<?xml version="1.0" encoding="utf-8"?>
<svg version="1.1" xmlns:xlink="http://www.w3.org/1999/xlink" width="13px" height="23px" xmlns="http://www.w3.org/2000/svg">
  <defs>
    <pattern id="BGPattern" patternUnits="userSpaceOnUse" alignment="0 0" imageRepeat="None" />
    <mask fill="white" id="Clip160">
      <path d="M 0 3.8851468919833385  C 0 3.8851468919833385  0 0  0 0  C 0 0  13 4.2939455863798335  13 4.2939455863798335  C 13 4.2939455863798335  13 8.468838316603659  13 8.468838316603659  C 13 8.468838316603659  4.419281179591893 15.758116980494288  4.419281179591893 15.758116980494288  C 4.419281179591893 15.758116980494288  12.66281552110496 18.815222670833627  12.66281552110496 18.815222670833627  C 12.66281552110496 18.815222670833627  12.66281552110496 23.000000000000004  12.66281552110496 23.000000000000004  C 12.66281552110496 23.000000000000004  0 18.49924602194876  0 18.49924602194876  C 0 18.49924602194876  0 14.42225570763471  0 14.42225570763471  C 0 14.42225570763471  8.271725074611325 6.89260142407054  8.271725074611325 6.89260142407054  C 8.271725074611325 6.89260142407054  0 3.8851468919833385  0 3.8851468919833385  Z " fill-rule="evenodd" />
    </mask>
  </defs>
  <g transform="matrix(1 0 0 1 -10 -6 )">
    <path d="M 0 3.8851468919833385  C 0 3.8851468919833385  0 0  0 0  C 0 0  13 4.2939455863798335  13 4.2939455863798335  C 13 4.2939455863798335  13 8.468838316603659  13 8.468838316603659  C 13 8.468838316603659  4.419281179591893 15.758116980494288  4.419281179591893 15.758116980494288  C 4.419281179591893 15.758116980494288  12.66281552110496 18.815222670833627  12.66281552110496 18.815222670833627  C 12.66281552110496 18.815222670833627  12.66281552110496 23.000000000000004  12.66281552110496 23.000000000000004  C 12.66281552110496 23.000000000000004  0 18.49924602194876  0 18.49924602194876  C 0 18.49924602194876  0 14.42225570763471  0 14.42225570763471  C 0 14.42225570763471  8.271725074611325 6.89260142407054  8.271725074611325 6.89260142407054  C 8.271725074611325 6.89260142407054  0 3.8851468919833385  0 3.8851468919833385  Z " fill-rule="nonzero" fill="rgba(255, 255, 255, 1)" stroke="none" transform="matrix(1 0 0 1 10 6 )" class="fill" />
    <path d="M 0 3.8851468919833385  C 0 3.8851468919833385  0 0  0 0  C 0 0  13 4.2939455863798335  13 4.2939455863798335  C 13 4.2939455863798335  13 8.468838316603659  13 8.468838316603659  C 13 8.468838316603659  4.419281179591893 15.758116980494288  4.419281179591893 15.758116980494288  C 4.419281179591893 15.758116980494288  12.66281552110496 18.815222670833627  12.66281552110496 18.815222670833627  C 12.66281552110496 18.815222670833627  12.66281552110496 23.000000000000004  12.66281552110496 23.000000000000004  C 12.66281552110496 23.000000000000004  0 18.49924602194876  0 18.49924602194876  C 0 18.49924602194876  0 14.42225570763471  0 14.42225570763471  C 0 14.42225570763471  8.271725074611325 6.89260142407054  8.271725074611325 6.89260142407054  C 8.271725074611325 6.89260142407054  0 3.8851468919833385  0 3.8851468919833385  Z " stroke-width="0" stroke-dasharray="0" stroke="rgba(121, 121, 121, 1)" fill="none" transform="matrix(1 0 0 1 10 6 )" class="stroke" mask="url(#Clip160)" />
  </g>
</svg>