<?xml version="1.0" encoding="utf-8"?>
<svg version="1.1" xmlns:xlink="http://www.w3.org/1999/xlink" width="12px" height="13px" xmlns="http://www.w3.org/2000/svg">
  <defs>
    <pattern id="BGPattern" patternUnits="userSpaceOnUse" alignment="0 0" imageRepeat="None" />
    <mask fill="white" id="Clip150">
      <path d="M 10.953170305191644 3.137931034482759  C 10.953170305191644 3.137931034482759  2.427276569345383 13  2.427276569345383 13  C 1.8356716006886389 13  1.9418835769837721 12.775810034991485  1.7294592213591824 12.223021859605911  C 1.7294592213591824 12.223021859605911  0 6.604564347290641  0 6.604564347290641  L 10.740850335456834 0  L 12 0.32870130116129154  L 10.953170305191644 3.137931034482759  Z " fill-rule="evenodd" />
    </mask>
  </defs>
  <g transform="matrix(1 0 0 1 -12 -13 )">
    <path d="M 10.953170305191644 3.137931034482759  C 10.953170305191644 3.137931034482759  2.427276569345383 13  2.427276569345383 13  C 1.8356716006886389 13  1.9418835769837721 12.775810034991485  1.7294592213591824 12.223021859605911  C 1.7294592213591824 12.223021859605911  0 6.604564347290641  0 6.604564347290641  L 10.740850335456834 0  L 12 0.32870130116129154  L 10.953170305191644 3.137931034482759  Z " fill-rule="nonzero" fill="rgba(224, 224, 224, 1)" stroke="none" transform="matrix(1 0 0 1 12 13 )" class="fill" />
    <path d="M 10.953170305191644 3.137931034482759  C 10.953170305191644 3.137931034482759  2.427276569345383 13  2.427276569345383 13  C 1.8356716006886389 13  1.9418835769837721 12.775810034991485  1.7294592213591824 12.223021859605911  C 1.7294592213591824 12.223021859605911  0 6.604564347290641  0 6.604564347290641  L 10.740850335456834 0  L 12 0.32870130116129154  L 10.953170305191644 3.137931034482759  Z " stroke-width="0" stroke-dasharray="0" stroke="rgba(121, 121, 121, 1)" fill="none" transform="matrix(1 0 0 1 12 13 )" class="stroke" mask="url(#Clip150)" />
  </g>
</svg>