<?xml version="1.0" encoding="utf-8"?>
<svg version="1.1" xmlns:xlink="http://www.w3.org/1999/xlink" width="20px" height="22px" xmlns="http://www.w3.org/2000/svg">
  <defs>
    <pattern id="BGPattern" patternUnits="userSpaceOnUse" alignment="0 0" imageRepeat="None" />
    <mask fill="white" id="Clip163">
      <path d="M 10.427285136777094 11.054813623174109  C 10.427285136777094 11.054813623174109  0.6533971308143458 22  0.6533971308143458 22  C 0.257614098337397 21.89463662084023  0 21.506283196136096  0 20.90532079474652  C 0 20.90532079474652  0 1.068436293637457  0 1.068436293637457  C 0 0.5118535485858661  0.2181254595575799 0.1364788682165824  0.5638969632280484 0  C 0.5638969632280484 0  10.427285136777094 11.054813623174109  10.427285136777094 11.054813623174109  Z M 10.991876993590742 11.687604593390914  C 10.991876993590742 11.687604593390914  2.011163141684453 21.57892897757073  2.011163141684453 21.57892897757073  C 2.011163141684453 21.57892897757073  13.883569854878386 14.928593670871127  13.883569854878386 14.928593670871127  C 13.883569854878386 14.928593670871127  10.991876993590742 11.687604593390914  10.991876993590742 11.687604593390914  Z M 11.008995151015164 10.403392611894523  C 11.008995151015164 10.403392611894523  13.965323746958996 7.09277776774345  13.965323746958996 7.09277776774345  C 13.965323746958996 7.09277776774345  2.258373226088412 0.5335972728087403  2.258373226088412 0.5335972728087403  C 2.258373226088412 0.5335972728087403  11.008995151015164 10.403392611894523  11.008995151015164 10.403392611894523  Z M 11.57659853552385 11.043592041836662  C 11.57659853552385 11.043592041836662  14.75963060655415 7.5378126165766925  14.75963060655415 7.5378126165766925  C 14.75963060655415 7.5378126165766925  19.345771703005383 10.107338869734901  19.345771703005383 10.107338869734901  C 20.21410218637297 10.59384774423881  20.222043145643124 11.378094033908752  19.345771703005383 11.868938011938845  C 19.345771703005383 11.868938011938845  14.643605606621804 14.502857496649884  14.643605606621804 14.502857496649884  C 14.643605606621804 14.502857496649884  11.57659853552385 11.043592041836662  11.57659853552385 11.043592041836662  Z " fill-rule="evenodd" />
    </mask>
  </defs>
  <g transform="matrix(1 0 0 1 -15 -14 )">
    <path d="M 10.427285136777094 11.054813623174109  C 10.427285136777094 11.054813623174109  0.6533971308143458 22  0.6533971308143458 22  C 0.257614098337397 21.89463662084023  0 21.506283196136096  0 20.90532079474652  C 0 20.90532079474652  0 1.068436293637457  0 1.068436293637457  C 0 0.5118535485858661  0.2181254595575799 0.1364788682165824  0.5638969632280484 0  C 0.5638969632280484 0  10.427285136777094 11.054813623174109  10.427285136777094 11.054813623174109  Z M 10.991876993590742 11.687604593390914  C 10.991876993590742 11.687604593390914  2.011163141684453 21.57892897757073  2.011163141684453 21.57892897757073  C 2.011163141684453 21.57892897757073  13.883569854878386 14.928593670871127  13.883569854878386 14.928593670871127  C 13.883569854878386 14.928593670871127  10.991876993590742 11.687604593390914  10.991876993590742 11.687604593390914  Z M 11.008995151015164 10.403392611894523  C 11.008995151015164 10.403392611894523  13.965323746958996 7.09277776774345  13.965323746958996 7.09277776774345  C 13.965323746958996 7.09277776774345  2.258373226088412 0.5335972728087403  2.258373226088412 0.5335972728087403  C 2.258373226088412 0.5335972728087403  11.008995151015164 10.403392611894523  11.008995151015164 10.403392611894523  Z M 11.57659853552385 11.043592041836662  C 11.57659853552385 11.043592041836662  14.75963060655415 7.5378126165766925  14.75963060655415 7.5378126165766925  C 14.75963060655415 7.5378126165766925  19.345771703005383 10.107338869734901  19.345771703005383 10.107338869734901  C 20.21410218637297 10.59384774423881  20.222043145643124 11.378094033908752  19.345771703005383 11.868938011938845  C 19.345771703005383 11.868938011938845  14.643605606621804 14.502857496649884  14.643605606621804 14.502857496649884  C 14.643605606621804 14.502857496649884  11.57659853552385 11.043592041836662  11.57659853552385 11.043592041836662  Z " fill-rule="nonzero" fill="rgba(155, 155, 155, 1)" stroke="none" transform="matrix(1 0 0 1 15 14 )" class="fill" />
    <path d="M 10.427285136777094 11.054813623174109  C 10.427285136777094 11.054813623174109  0.6533971308143458 22  0.6533971308143458 22  C 0.257614098337397 21.89463662084023  0 21.506283196136096  0 20.90532079474652  C 0 20.90532079474652  0 1.068436293637457  0 1.068436293637457  C 0 0.5118535485858661  0.2181254595575799 0.1364788682165824  0.5638969632280484 0  C 0.5638969632280484 0  10.427285136777094 11.054813623174109  10.427285136777094 11.054813623174109  Z " stroke-width="0" stroke-dasharray="0" stroke="rgba(121, 121, 121, 1)" fill="none" transform="matrix(1 0 0 1 15 14 )" class="stroke" mask="url(#Clip163)" />
    <path d="M 10.991876993590742 11.687604593390914  C 10.991876993590742 11.687604593390914  2.011163141684453 21.57892897757073  2.011163141684453 21.57892897757073  C 2.011163141684453 21.57892897757073  13.883569854878386 14.928593670871127  13.883569854878386 14.928593670871127  C 13.883569854878386 14.928593670871127  10.991876993590742 11.687604593390914  10.991876993590742 11.687604593390914  Z " stroke-width="0" stroke-dasharray="0" stroke="rgba(121, 121, 121, 1)" fill="none" transform="matrix(1 0 0 1 15 14 )" class="stroke" mask="url(#Clip163)" />
    <path d="M 11.008995151015164 10.403392611894523  C 11.008995151015164 10.403392611894523  13.965323746958996 7.09277776774345  13.965323746958996 7.09277776774345  C 13.965323746958996 7.09277776774345  2.258373226088412 0.5335972728087403  2.258373226088412 0.5335972728087403  C 2.258373226088412 0.5335972728087403  11.008995151015164 10.403392611894523  11.008995151015164 10.403392611894523  Z " stroke-width="0" stroke-dasharray="0" stroke="rgba(121, 121, 121, 1)" fill="none" transform="matrix(1 0 0 1 15 14 )" class="stroke" mask="url(#Clip163)" />
    <path d="M 11.57659853552385 11.043592041836662  C 11.57659853552385 11.043592041836662  14.75963060655415 7.5378126165766925  14.75963060655415 7.5378126165766925  C 14.75963060655415 7.5378126165766925  19.345771703005383 10.107338869734901  19.345771703005383 10.107338869734901  C 20.21410218637297 10.59384774423881  20.222043145643124 11.378094033908752  19.345771703005383 11.868938011938845  C 19.345771703005383 11.868938011938845  14.643605606621804 14.502857496649884  14.643605606621804 14.502857496649884  C 14.643605606621804 14.502857496649884  11.57659853552385 11.043592041836662  11.57659853552385 11.043592041836662  Z " stroke-width="0" stroke-dasharray="0" stroke="rgba(121, 121, 121, 1)" fill="none" transform="matrix(1 0 0 1 15 14 )" class="stroke" mask="url(#Clip163)" />
  </g>
</svg>