<?xml version="1.0" encoding="utf-8"?>
<svg version="1.1" xmlns:xlink="http://www.w3.org/1999/xlink" width="35px" height="35px" xmlns="http://www.w3.org/2000/svg">
  <defs>
    <pattern id="BGPattern" patternUnits="userSpaceOnUse" alignment="0 0" imageRepeat="None" />
    <mask fill="white" id="Clip156">
      <path d="M 35 17.5  C 35 7.835350036621094  27.164999961853027 0  17.5 0  C 7.834989547729492 0  0 7.835350036621094  0 17.5  C 0 27.16469955444336  7.834989547729492 35  17.5 35  C 27.164999961853027 35  35 27.16469955444336  35 17.5  Z M 11.340700149536133 11.472100257873535  C 11.359700148925185 8.06164026260376  14.12350082397461 5.312480218708515  17.525100708007812 5.3217902183532715  C 20.93380069732666 5.331100217998028  23.669699609279633 8.119280338287354  23.652099609375 11.565600395202637  C 23.634899608790874 14.932400465011597  20.854299783706665 17.661100164987147  17.4512996673584 17.649700164794922  C 14.083099603652954 17.63820016477257  11.320700149983168 14.84570026397705  11.340700149536133 11.472100257873535  Z M 24.526100158691406 18.281299591064453  C 24.92540016770363 18.93189960718155  24.920700043439865 19.566299974918365  24.429100036621094 20.07159996032715  C 23.675400018692017 20.84529995918274  22.768099904060364 21.40529951453209  21.760499954223633 21.79599952697754  C 20.808099925518036 22.165099531412125  19.76430094242096 22.35090011358261  18.731000900268555 22.47480010986328  C 18.887500897049904 22.644600108265877  18.960900016129017 22.72799939662218  19.058300018310547 22.82539939880371  C 20.460399985313416 24.234999418258667  21.869399070739746 25.637500882148743  23.26689910888672 27.05120086669922  C 23.743099123239517 27.533100873231888  23.842300206422806 28.130300521850586  23.5802001953125 28.690000534057617  C 23.29410019516945 29.30230051279068  22.65210074186325 29.704699840396643  22.022300720214844 29.661399841308594  C 21.62340071797371 29.63379984162748  21.31219956278801 29.435800403356556  21.036199569702152 29.15760040283203  C 19.977699518203735 28.092700362205505  18.89930009841919 27.046900749206543  17.863100051879883 25.96190071105957  C 17.56050005555153 25.64610069990158  17.415899336338043 25.70630034804344  17.149099349975586 25.980600357055664  C 16.084599375724792 27.076900362968445  15.002600073814392 28.155800938606266  13.914400100708008 29.228900909423828  C 13.425700098276138 29.710800915956497  12.844200432300568 29.798199087381363  12.277000427246094 29.522499084472656  C 11.674400448799133 29.23099908232689  11.291299691423774 28.615500807762146  11.320699691772461 27.996400833129883  C 11.341399691998959 27.578900843858722  11.546999782323837 27.25880065560341  11.834099769592285 26.973100662231445  C 13.222299814224243 25.58780062198639  14.606200337409973 24.198200821876526  15.990400314331055 22.809600830078125  C 16.08250031620264 22.71760082989931  16.167700871825218 22.61980064213276  16.30120086669922 22.476600646972656  C 14.413200855255127 22.279300644993782  12.71060025691986 21.814600110054016  11.253000259399414 20.67490005493164  C 11.071800261735916 20.533100053668022  10.885300129652023 20.396300867199898  10.720600128173828 20.237300872802734  C 10.082100152969362 19.624700844287872  10.018100202083588 18.922600746154785  10.522600173950195 18.200000762939453  C 10.95470017194748 17.581300735473633  11.679399728775026 17.41590043902397  12.433099746704102 17.771400451660156  C 12.579199746251106 17.83980045467615  12.718200370669365 17.926400735974312  12.851400375366211 18.01810073852539  C 15.56760048866272 19.884700775146484  19.29919934272766 19.93589961528778  22.026199340820312 18.101499557495117  C 22.29619935154915 17.895299553871155  22.58510088920593 17.725599393248558  22.91990089416504 17.639999389648438  C 23.570100903511047 17.47239938378334  24.177400171756744 17.711999595165253  24.526100158691406 18.281299591064453  Z " fill-rule="evenodd" />
    </mask>
  </defs>
  <g>
    <path d="M 35 17.5  C 35 7.835350036621094  27.164999961853027 0  17.5 0  C 7.834989547729492 0  0 7.835350036621094  0 17.5  C 0 27.16469955444336  7.834989547729492 35  17.5 35  C 27.164999961853027 35  35 27.16469955444336  35 17.5  Z M 11.340700149536133 11.472100257873535  C 11.359700148925185 8.06164026260376  14.12350082397461 5.312480218708515  17.525100708007812 5.3217902183532715  C 20.93380069732666 5.331100217998028  23.669699609279633 8.119280338287354  23.652099609375 11.565600395202637  C 23.634899608790874 14.932400465011597  20.854299783706665 17.661100164987147  17.4512996673584 17.649700164794922  C 14.083099603652954 17.63820016477257  11.320700149983168 14.84570026397705  11.340700149536133 11.472100257873535  Z M 24.526100158691406 18.281299591064453  C 24.92540016770363 18.93189960718155  24.920700043439865 19.566299974918365  24.429100036621094 20.07159996032715  C 23.675400018692017 20.84529995918274  22.768099904060364 21.40529951453209  21.760499954223633 21.79599952697754  C 20.808099925518036 22.165099531412125  19.76430094242096 22.35090011358261  18.731000900268555 22.47480010986328  C 18.887500897049904 22.644600108265877  18.960900016129017 22.72799939662218  19.058300018310547 22.82539939880371  C 20.460399985313416 24.234999418258667  21.869399070739746 25.637500882148743  23.26689910888672 27.05120086669922  C 23.743099123239517 27.533100873231888  23.842300206422806 28.130300521850586  23.5802001953125 28.690000534057617  C 23.29410019516945 29.30230051279068  22.65210074186325 29.704699840396643  22.022300720214844 29.661399841308594  C 21.62340071797371 29.63379984162748  21.31219956278801 29.435800403356556  21.036199569702152 29.15760040283203  C 19.977699518203735 28.092700362205505  18.89930009841919 27.046900749206543  17.863100051879883 25.96190071105957  C 17.56050005555153 25.64610069990158  17.415899336338043 25.70630034804344  17.149099349975586 25.980600357055664  C 16.084599375724792 27.076900362968445  15.002600073814392 28.155800938606266  13.914400100708008 29.228900909423828  C 13.425700098276138 29.710800915956497  12.844200432300568 29.798199087381363  12.277000427246094 29.522499084472656  C 11.674400448799133 29.23099908232689  11.291299691423774 28.615500807762146  11.320699691772461 27.996400833129883  C 11.341399691998959 27.578900843858722  11.546999782323837 27.25880065560341  11.834099769592285 26.973100662231445  C 13.222299814224243 25.58780062198639  14.606200337409973 24.198200821876526  15.990400314331055 22.809600830078125  C 16.08250031620264 22.71760082989931  16.167700871825218 22.61980064213276  16.30120086669922 22.476600646972656  C 14.413200855255127 22.279300644993782  12.71060025691986 21.814600110054016  11.253000259399414 20.67490005493164  C 11.071800261735916 20.533100053668022  10.885300129652023 20.396300867199898  10.720600128173828 20.237300872802734  C 10.082100152969362 19.624700844287872  10.018100202083588 18.922600746154785  10.522600173950195 18.200000762939453  C 10.95470017194748 17.581300735473633  11.679399728775026 17.41590043902397  12.433099746704102 17.771400451660156  C 12.579199746251106 17.83980045467615  12.718200370669365 17.926400735974312  12.851400375366211 18.01810073852539  C 15.56760048866272 19.884700775146484  19.29919934272766 19.93589961528778  22.026199340820312 18.101499557495117  C 22.29619935154915 17.895299553871155  22.58510088920593 17.725599393248558  22.91990089416504 17.639999389648438  C 23.570100903511047 17.47239938378334  24.177400171756744 17.711999595165253  24.526100158691406 18.281299591064453  Z " fill-rule="nonzero" fill="rgba(206, 206, 206, 1)" stroke="none" class="fill" />
    <path d="M 35 17.5  C 35 7.835350036621094  27.164999961853027 0  17.5 0  C 7.834989547729492 0  0 7.835350036621094  0 17.5  C 0 27.16469955444336  7.834989547729492 35  17.5 35  C 27.164999961853027 35  35 27.16469955444336  35 17.5  Z " stroke-width="0" stroke-dasharray="0" stroke="rgba(121, 121, 121, 1)" fill="none" class="stroke" mask="url(#Clip156)" />
    <path d="M 11.340700149536133 11.472100257873535  C 11.359700148925185 8.06164026260376  14.12350082397461 5.312480218708515  17.525100708007812 5.3217902183532715  C 20.93380069732666 5.331100217998028  23.669699609279633 8.119280338287354  23.652099609375 11.565600395202637  C 23.634899608790874 14.932400465011597  20.854299783706665 17.661100164987147  17.4512996673584 17.649700164794922  C 14.083099603652954 17.63820016477257  11.320700149983168 14.84570026397705  11.340700149536133 11.472100257873535  Z " stroke-width="0" stroke-dasharray="0" stroke="rgba(121, 121, 121, 1)" fill="none" class="stroke" mask="url(#Clip156)" />
    <path d="M 24.526100158691406 18.281299591064453  C 24.92540016770363 18.93189960718155  24.920700043439865 19.566299974918365  24.429100036621094 20.07159996032715  C 23.675400018692017 20.84529995918274  22.768099904060364 21.40529951453209  21.760499954223633 21.79599952697754  C 20.808099925518036 22.165099531412125  19.76430094242096 22.35090011358261  18.731000900268555 22.47480010986328  C 18.887500897049904 22.644600108265877  18.960900016129017 22.72799939662218  19.058300018310547 22.82539939880371  C 20.460399985313416 24.234999418258667  21.869399070739746 25.637500882148743  23.26689910888672 27.05120086669922  C 23.743099123239517 27.533100873231888  23.842300206422806 28.130300521850586  23.5802001953125 28.690000534057617  C 23.29410019516945 29.30230051279068  22.65210074186325 29.704699840396643  22.022300720214844 29.661399841308594  C 21.62340071797371 29.63379984162748  21.31219956278801 29.435800403356556  21.036199569702152 29.15760040283203  C 19.977699518203735 28.092700362205505  18.89930009841919 27.046900749206543  17.863100051879883 25.96190071105957  C 17.56050005555153 25.64610069990158  17.415899336338043 25.70630034804344  17.149099349975586 25.980600357055664  C 16.084599375724792 27.076900362968445  15.002600073814392 28.155800938606266  13.914400100708008 29.228900909423828  C 13.425700098276138 29.710800915956497  12.844200432300568 29.798199087381363  12.277000427246094 29.522499084472656  C 11.674400448799133 29.23099908232689  11.291299691423774 28.615500807762146  11.320699691772461 27.996400833129883  C 11.341399691998959 27.578900843858722  11.546999782323837 27.25880065560341  11.834099769592285 26.973100662231445  C 13.222299814224243 25.58780062198639  14.606200337409973 24.198200821876526  15.990400314331055 22.809600830078125  C 16.08250031620264 22.71760082989931  16.167700871825218 22.61980064213276  16.30120086669922 22.476600646972656  C 14.413200855255127 22.279300644993782  12.71060025691986 21.814600110054016  11.253000259399414 20.67490005493164  C 11.071800261735916 20.533100053668022  10.885300129652023 20.396300867199898  10.720600128173828 20.237300872802734  C 10.082100152969362 19.624700844287872  10.018100202083588 18.922600746154785  10.522600173950195 18.200000762939453  C 10.95470017194748 17.581300735473633  11.679399728775026 17.41590043902397  12.433099746704102 17.771400451660156  C 12.579199746251106 17.83980045467615  12.718200370669365 17.926400735974312  12.851400375366211 18.01810073852539  C 15.56760048866272 19.884700775146484  19.29919934272766 19.93589961528778  22.026199340820312 18.101499557495117  C 22.29619935154915 17.895299553871155  22.58510088920593 17.725599393248558  22.91990089416504 17.639999389648438  C 23.570100903511047 17.47239938378334  24.177400171756744 17.711999595165253  24.526100158691406 18.281299591064453  Z " stroke-width="0" stroke-dasharray="0" stroke="rgba(121, 121, 121, 1)" fill="none" class="stroke" mask="url(#Clip156)" />
  </g>
</svg>