<?xml version="1.0" encoding="utf-8"?>
<svg version="1.1" xmlns:xlink="http://www.w3.org/1999/xlink" width="6px" height="6px" xmlns="http://www.w3.org/2000/svg">
  <defs>
    <pattern id="BGPattern" patternUnits="userSpaceOnUse" alignment="0 0" imageRepeat="None" />
    <mask fill="white" id="Clip151">
      <path d="M 0 5.860401708790783  C 0 5.860401708790783  0 6  0 6  C 0.42857142857142855 6  0.6143020464449513 5.804618219624327  0.8571428571428571 5.5813930994417085  C 1.2286040928899027 5.232538066067363  6 0.6977104089326749  6 0.6977104089326749  C 6 0.6977104089326749  3.0714111328125 0  3.0714111328125 0  L 0.3571584273357781 1.6744276022331688  L 0 5.860401708790783  Z " fill-rule="evenodd" />
    </mask>
  </defs>
  <g transform="matrix(1 0 0 1 -14 -20 )">
    <path d="M 0 5.860401708790783  C 0 5.860401708790783  0 6  0 6  C 0.42857142857142855 6  0.6143020464449513 5.804618219624327  0.8571428571428571 5.5813930994417085  C 1.2286040928899027 5.232538066067363  6 0.6977104089326749  6 0.6977104089326749  C 6 0.6977104089326749  3.0714111328125 0  3.0714111328125 0  L 0.3571584273357781 1.6744276022331688  L 0 5.860401708790783  Z " fill-rule="nonzero" fill="rgba(196, 196, 196, 1)" stroke="none" transform="matrix(1 0 0 1 14 20 )" class="fill" />
    <path d="M 0 5.860401708790783  C 0 5.860401708790783  0 6  0 6  C 0.42857142857142855 6  0.6143020464449513 5.804618219624327  0.8571428571428571 5.5813930994417085  C 1.2286040928899027 5.232538066067363  6 0.6977104089326749  6 0.6977104089326749  C 6 0.6977104089326749  3.0714111328125 0  3.0714111328125 0  L 0.3571584273357781 1.6744276022331688  L 0 5.860401708790783  Z " stroke-width="0" stroke-dasharray="0" stroke="rgba(121, 121, 121, 1)" fill="none" transform="matrix(1 0 0 1 14 20 )" class="stroke" mask="url(#Clip151)" />
  </g>
</svg>