<?xml version="1.0" encoding="utf-8"?>
<svg version="1.1" xmlns:xlink="http://www.w3.org/1999/xlink" width="17px" height="21px" xmlns="http://www.w3.org/2000/svg">
  <defs>
    <pattern id="BGPattern" patternUnits="userSpaceOnUse" alignment="0 0" imageRepeat="None" />
    <mask fill="white" id="Clip158">
      <path d="M 14.393454109599842 14.69139944862874  C 14.393454109599842 14.69139944862874  14.380336486185069 15.360899325420684  14.380336486185069 15.360899325420684  L 13.259970125109552 15.360899325420684  C 13.259970125109552 15.360899325420684  13.26546478618007 14.69139944862874  13.26546478618007 14.69139944862874  C 13.26546478618007 14.393576398685433  13.502671261058083 14.15059667610247  13.793004007249326 14.15059667610247  C 13.793004007249326 14.15059667610247  13.864817612582064 14.15059667610247  13.864817612582064 14.15059667610247  C 14.155223629115978 14.15059667610247  14.393454109599842 14.39365179257569  14.393454109599842 14.69139944862874  Z M 10.697903246932087 14.363025222535667  C 10.697903246932087 14.122835540108994  10.465389276529796 13.926096582123346  10.179966225578378 13.926096582123346  C 9.896741543698587 13.926096582123346  9.66422582645369 14.122836489192858  9.66422582645369 14.363327863734735  C 9.66422582645369 14.363327863734735  9.66422582645369 17.619239922007477  9.66422582645369 17.619239922007477  C 9.66422582645369 17.859731296549356  9.896741543698587 18.055337364760387  10.179966225578378 18.055337364760387  C 10.465389276529796 18.055337364760387  10.697903246932087 17.859731296549356  10.697903246932087 17.619239922007477  C 10.697903246932087 17.619239922007477  10.697903246932087 14.363025222535667  10.697903246932087 14.363025222535667  Z M 14.218610433364933 9.403379615176798  C 15.748536594974926 9.403379615176798  17 10.619643043991973  17 12.10521318240922  C 17 12.10521318240922  17 18.298697120503974  17 18.298697120503974  C 17 19.784568967687015  15.748608927198417 21  14.218316446224009 21  C 14.218316446224009 21  2.78168355377599 21  2.78168355377599 21  C 1.251097991430896 21  0 19.78426725892122  0 18.298697120503974  C 0 18.298697120503974  0 12.10521318240922  0 12.10521318240922  C 0 10.619341335226178  1.2511712294246298 9.403379615176798  2.78168355377599 9.403379615176798  C 2.78168355377599 9.403379615176798  14.218610433364933 9.403379615176798  14.218610433364933 9.403379615176798  Z M 2.3619392726570583 18.97106143230682  L 3.5442282280387856 18.971364073505885  L 3.5437158208741466 12.447091173553666  L 4.961304216590338 12.44761759873796  L 4.961304216590338 11.48059797922554  L 1.1820684650260338 11.47463893139037  L 1.1820684650260338 12.424761794380172  L 2.3619392726570583 12.428457427050482  L 2.3619392726570583 18.97106143230682  Z M 7.793916901867543 18.9693265736023  L 7.794209853842478 13.419164048580104  L 6.612141388816443 13.419164048580104  C 6.612141388816443 13.419164048580104  6.612141388816443 16.90289459764147  6.612141388816443 16.90289459764147  C 6.612141388816443 17.40703642500466  6.641453460324326 17.659071140294596  6.610529635371305 17.74770897973583  C 6.514020738188131 18.01784683704553  6.081892232583286 18.30465496949637  5.913789427874109 17.777052388389134  C 5.885283768868069 17.684491793848245  5.910491965627142 17.40560297535524  5.909978981867971 16.92658159965867  C 5.909978981867971 16.92658159965867  5.904482250465475 13.418863538657089  5.904482250465475 13.418863538657089  L 4.729008827956448 13.418863538657089  C 4.729008827956448 13.418863538657089  4.733405177912456 16.87121317916156  4.733405177912456 16.87121317916156  C 4.733918161671627 17.400475324986612  4.7216070666336005 17.79508293381845  4.737215623918593 17.9746216782033  C 4.766014354186276 18.291303923694432  4.7553163746605485 18.66079202994352  5.041325653051209 18.87110884812446  C 5.5727474259075365 19.26601864858932  6.592135787084197 18.812419166915653  6.8471478771759715 18.248682465443895  C 6.8471478771759715 18.248682465443895  6.844950219780962 18.9678922248208  6.844950219780962 18.9678922248208  L 7.793916901867543 18.9693265736023  Z M 9.55613793452843 18.44398620881715  C 10.797416729573296 19.617174017776062  11.577768357234403 18.813851584228235  11.575643262801789 17.408394913679263  C 11.575643262801789 17.408394913679263  11.57344664057277 14.508693677985706  11.57344664057277 14.508693677985706  C 11.572347405112653 13.403323272737772  10.769497655866616 12.741443840064177  9.678734712957908 13.635667594820472  C 9.678734712957908 13.635667594820472  9.683645540410534 11.479694318180435  9.683645540410534 11.479694318180435  L 8.502674351333024 11.481655092146227  L 8.49688570312158 18.92248112602824  L 9.46783620532018 18.907771058732692  C 9.46783620532018 18.907771058732692  9.55613793452843 18.44398620881715  9.55613793452843 18.44398620881715  Z M 12.287773283059988 17.02857168374462  C 12.288506070518117 19.90254974956492  15.679433927623139 19.496325603973187  15.275591510591543 17.024272899952223  C 15.275591510591543 17.024272899952223  14.38883726928814 17.02910024020496  14.38883726928814 17.02910024020496  C 14.38883726928814 17.06553605268469  14.387224828364904 17.10702746008691  14.38663857672714 17.152741957680572  C 14.38663857672714 17.152741957680572  14.38663857672714 17.661937906388676  14.38663857672714 17.661937906388676  C 14.38663857672714 17.934338945754916  14.168119565264384 18.1561957412639  13.902408630312813 18.1561957412639  C 13.902408630312813 18.1561957412639  13.728811293928866 18.1561957412639  13.728811293928866 18.1561957412639  C 13.462587482753067 18.1561957412639  13.244067905183908 17.934338945754916  13.244067905183908 17.661937906388676  C 13.244067905183908 17.661937906388676  13.244067905183908 17.605510241694827  13.244067905183908 17.605510241694827  L 13.244067905183908 17.04494201508294  L 13.244067905183908 16.322337132958744  L 15.273686805171469 16.322337132958744  C 15.273686805171469 16.322337132958744  15.273686805171469 15.535911189524027  15.273686805171469 15.535911189524027  C 15.273686805171469 14.96153808851636  15.259176713669342 14.38708962691962  15.213084047501452 14.058563913721073  C 15.068064215091171 13.018974144906677  13.650987644258752 12.854146283696492  12.934828628574953 13.386199601918232  C 12.710007688314807 13.552461495548629  12.53860785566842 13.774846581108452  12.438288488217404 14.074103047399987  C 12.33767593426166 14.37305770502216  12.287773283059988 14.780869085150773  12.287773283059988 15.299721046411888  C 12.287773283059988 15.299721046411888  12.287773283059988 17.02857168374462  12.287773283059988 17.02857168374462  Z M 10.6154646978865 7.156881986779593  C 10.630999878683873 7.323370261887904  10.668005089511563 7.482843591733725  10.728900257311818 7.637262017656709  C 10.789502246694578 7.79024716043622  10.884106947953438 7.913585046195282  11.013225158893412 8.007277115210288  C 11.139632019403486 8.098706110397615  11.302532476125569 8.14532625878238  11.496869201357867 8.14532625878238  C 11.667170472185482 8.14532625878238  11.818197938937324 8.097876969086578  11.949294707920913 7.99996044453141  C 12.08061127984528 7.9025720018946535  12.191410384717459 7.7575078131565105  12.281324198947454 7.563334445318155  C 12.281324198947454 7.563334445318155  12.258827971670794 8.040922504570066  12.258827971670794 8.040922504570066  L 13.576316851400156 8.040922504570066  L 13.576316851400156 2.272523173060021  L 12.539047404939335 2.272523173060021  C 12.539047404939335 2.272523173060021  12.539047404939335 6.761972519326615  12.539047404939335 6.761972519326615  C 12.539047404939335 7.0047269760214705  12.34412495367632 7.203728499991678  12.106333529142082 7.203728499991678  C 11.870227484233965 7.203728499991678  11.674716929293353 7.0047269760214705  11.674716929293353 6.761972519326615  C 11.674716929293353 6.761972519326615  11.674716929293353 2.272523173060021  11.674716929293353 2.272523173060021  L 10.592455028279211 2.272523173060021  C 10.592455028279211 2.272523173060021  10.592455028279211 6.16300722340198  10.592455028279211 6.16300722340198  C 10.592455028279211 6.658700239588414  10.60095537669344 6.989186810005723  10.6154646978865 7.156881986779593  Z M 6.736349920691062 5.906750050643179  C 6.736349920691062 5.906750050643179  6.736129430335367 4.37938811978015  6.736129430335367 4.37938811978015  C 6.736129430335367 3.825609106326013  6.781123518510015 3.393433444613007  6.869938091593556 3.0818054536715396  C 6.959338916378043 2.7710072617395767  7.121066416813117 2.521236727541831  7.354168038007885 2.333249088727255  C 7.58719629181317 2.143828150118611  7.885589616770591 2.049306640081874  8.247516286662306 2.049306640081874  C 8.552138431819126 2.049306640081874  8.813452353661475 2.1110887945136034  9.031971284251892 2.2316362405021204  C 9.250490328063588 2.35301349382544  9.420204959003014 2.5102233585546174  9.537012207712511 2.7046985350623327  C 9.657117058552856 2.8997771957040177  9.737724641580625 3.100438517500365  9.781325873480672 3.3056256705907856  C 9.825733160022443 3.513377664551764  9.847131375412262 3.827570413110819  9.847131375412262 4.250089995668436  C 9.847131375412262 4.250089995668436  9.847131375412262 5.709106166167272  9.847131375412262 5.709106166167272  C 9.847131375412262 6.244252332250308  9.826318809224432 6.637728216849117  9.786015175411617 6.887875520691037  C 9.746224417823028 7.13855089812607  9.660195836298271 7.370820492342275  9.526900706330288 7.588454730478831  C 9.395290955988425 7.8041274786740455  9.225283162805974 7.965259191045505  9.0190751863588 8.068003563696534  C 8.81125489036009 8.172181344370495  8.573536606772773 8.22295052942927  8.304235101540952 8.22295052942927  C 8.004302743549133 8.22295052942927  7.7509020025407835 8.180329121130518  7.542788738392668 8.090861499330373  C 7.3338693063815485 8.002223659889141  7.172068559865505 7.8683985888935455  7.057166493722905 7.690896645087328  C 6.940359245013407 7.5130928759611555  6.8589459672258375 7.2965907283706954  6.809848776254169 7.044255769567246  C 6.75994563577482 6.791619002094436  6.736349920691062 6.41255144272419  6.736349920691062 5.906750050643179  Z M 7.767610228584744 3.6000539974010617  C 7.767610228584744 3.6000539974010617  7.767610228584744 6.671071464527651  7.767610228584744 6.671071464527651  C 7.767610228584744 6.997334095573219  8.004228987972407 7.264077712617115  8.291850375646513 7.264077712617115  C 8.57947176332062 7.264077712617115  8.814478769263145 6.99763590424258  8.814478769263145 6.671071464527651  C 8.814478769263145 6.671071464527651  8.814478769263145 3.6000539974010617  8.814478769263145 3.6000539974010617  C 8.814478769263145 3.273791333054306  8.57947176332062 3.007047749311598  8.291850375646513 3.007047749311598  C 8.004228987972407 3.007047749311598  7.767610228584744 3.273489590987321  7.767610228584744 3.6000539974010617  Z M 4.119178051412067 3.799884571104038  L 4.12108379199813 8.221517246285796  L 5.364560373833756 8.221517246285796  L 5.365659720114254 3.797319580378133  L 6.834543696091828 0.007317203497890849  L 5.474845923154026 0.007317203497890849  L 4.693908419595643 2.8229076298870672  L 3.9017579980425614 0  L 2.556569111608978 0  L 4.119178051412067 3.799884571104038  Z " fill-rule="evenodd" />
    </mask>
  </defs>
  <g transform="matrix(1 0 0 1 -10 -7 )">
    <path d="M 14.393454109599842 14.69139944862874  C 14.393454109599842 14.69139944862874  14.380336486185069 15.360899325420684  14.380336486185069 15.360899325420684  L 13.259970125109552 15.360899325420684  C 13.259970125109552 15.360899325420684  13.26546478618007 14.69139944862874  13.26546478618007 14.69139944862874  C 13.26546478618007 14.393576398685433  13.502671261058083 14.15059667610247  13.793004007249326 14.15059667610247  C 13.793004007249326 14.15059667610247  13.864817612582064 14.15059667610247  13.864817612582064 14.15059667610247  C 14.155223629115978 14.15059667610247  14.393454109599842 14.39365179257569  14.393454109599842 14.69139944862874  Z M 10.697903246932087 14.363025222535667  C 10.697903246932087 14.122835540108994  10.465389276529796 13.926096582123346  10.179966225578378 13.926096582123346  C 9.896741543698587 13.926096582123346  9.66422582645369 14.122836489192858  9.66422582645369 14.363327863734735  C 9.66422582645369 14.363327863734735  9.66422582645369 17.619239922007477  9.66422582645369 17.619239922007477  C 9.66422582645369 17.859731296549356  9.896741543698587 18.055337364760387  10.179966225578378 18.055337364760387  C 10.465389276529796 18.055337364760387  10.697903246932087 17.859731296549356  10.697903246932087 17.619239922007477  C 10.697903246932087 17.619239922007477  10.697903246932087 14.363025222535667  10.697903246932087 14.363025222535667  Z M 14.218610433364933 9.403379615176798  C 15.748536594974926 9.403379615176798  17 10.619643043991973  17 12.10521318240922  C 17 12.10521318240922  17 18.298697120503974  17 18.298697120503974  C 17 19.784568967687015  15.748608927198417 21  14.218316446224009 21  C 14.218316446224009 21  2.78168355377599 21  2.78168355377599 21  C 1.251097991430896 21  0 19.78426725892122  0 18.298697120503974  C 0 18.298697120503974  0 12.10521318240922  0 12.10521318240922  C 0 10.619341335226178  1.2511712294246298 9.403379615176798  2.78168355377599 9.403379615176798  C 2.78168355377599 9.403379615176798  14.218610433364933 9.403379615176798  14.218610433364933 9.403379615176798  Z M 2.3619392726570583 18.97106143230682  L 3.5442282280387856 18.971364073505885  L 3.5437158208741466 12.447091173553666  L 4.961304216590338 12.44761759873796  L 4.961304216590338 11.48059797922554  L 1.1820684650260338 11.47463893139037  L 1.1820684650260338 12.424761794380172  L 2.3619392726570583 12.428457427050482  L 2.3619392726570583 18.97106143230682  Z M 7.793916901867543 18.9693265736023  L 7.794209853842478 13.419164048580104  L 6.612141388816443 13.419164048580104  C 6.612141388816443 13.419164048580104  6.612141388816443 16.90289459764147  6.612141388816443 16.90289459764147  C 6.612141388816443 17.40703642500466  6.641453460324326 17.659071140294596  6.610529635371305 17.74770897973583  C 6.514020738188131 18.01784683704553  6.081892232583286 18.30465496949637  5.913789427874109 17.777052388389134  C 5.885283768868069 17.684491793848245  5.910491965627142 17.40560297535524  5.909978981867971 16.92658159965867  C 5.909978981867971 16.92658159965867  5.904482250465475 13.418863538657089  5.904482250465475 13.418863538657089  L 4.729008827956448 13.418863538657089  C 4.729008827956448 13.418863538657089  4.733405177912456 16.87121317916156  4.733405177912456 16.87121317916156  C 4.733918161671627 17.400475324986612  4.7216070666336005 17.79508293381845  4.737215623918593 17.9746216782033  C 4.766014354186276 18.291303923694432  4.7553163746605485 18.66079202994352  5.041325653051209 18.87110884812446  C 5.5727474259075365 19.26601864858932  6.592135787084197 18.812419166915653  6.8471478771759715 18.248682465443895  C 6.8471478771759715 18.248682465443895  6.844950219780962 18.9678922248208  6.844950219780962 18.9678922248208  L 7.793916901867543 18.9693265736023  Z M 9.55613793452843 18.44398620881715  C 10.797416729573296 19.617174017776062  11.577768357234403 18.813851584228235  11.575643262801789 17.408394913679263  C 11.575643262801789 17.408394913679263  11.57344664057277 14.508693677985706  11.57344664057277 14.508693677985706  C 11.572347405112653 13.403323272737772  10.769497655866616 12.741443840064177  9.678734712957908 13.635667594820472  C 9.678734712957908 13.635667594820472  9.683645540410534 11.479694318180435  9.683645540410534 11.479694318180435  L 8.502674351333024 11.481655092146227  L 8.49688570312158 18.92248112602824  L 9.46783620532018 18.907771058732692  C 9.46783620532018 18.907771058732692  9.55613793452843 18.44398620881715  9.55613793452843 18.44398620881715  Z M 12.287773283059988 17.02857168374462  C 12.288506070518117 19.90254974956492  15.679433927623139 19.496325603973187  15.275591510591543 17.024272899952223  C 15.275591510591543 17.024272899952223  14.38883726928814 17.02910024020496  14.38883726928814 17.02910024020496  C 14.38883726928814 17.06553605268469  14.387224828364904 17.10702746008691  14.38663857672714 17.152741957680572  C 14.38663857672714 17.152741957680572  14.38663857672714 17.661937906388676  14.38663857672714 17.661937906388676  C 14.38663857672714 17.934338945754916  14.168119565264384 18.1561957412639  13.902408630312813 18.1561957412639  C 13.902408630312813 18.1561957412639  13.728811293928866 18.1561957412639  13.728811293928866 18.1561957412639  C 13.462587482753067 18.1561957412639  13.244067905183908 17.934338945754916  13.244067905183908 17.661937906388676  C 13.244067905183908 17.661937906388676  13.244067905183908 17.605510241694827  13.244067905183908 17.605510241694827  L 13.244067905183908 17.04494201508294  L 13.244067905183908 16.322337132958744  L 15.273686805171469 16.322337132958744  C 15.273686805171469 16.322337132958744  15.273686805171469 15.535911189524027  15.273686805171469 15.535911189524027  C 15.273686805171469 14.96153808851636  15.259176713669342 14.38708962691962  15.213084047501452 14.058563913721073  C 15.068064215091171 13.018974144906677  13.650987644258752 12.854146283696492  12.934828628574953 13.386199601918232  C 12.710007688314807 13.552461495548629  12.53860785566842 13.774846581108452  12.438288488217404 14.074103047399987  C 12.33767593426166 14.37305770502216  12.287773283059988 14.780869085150773  12.287773283059988 15.299721046411888  C 12.287773283059988 15.299721046411888  12.287773283059988 17.02857168374462  12.287773283059988 17.02857168374462  Z M 10.6154646978865 7.156881986779593  C 10.630999878683873 7.323370261887904  10.668005089511563 7.482843591733725  10.728900257311818 7.637262017656709  C 10.789502246694578 7.79024716043622  10.884106947953438 7.913585046195282  11.013225158893412 8.007277115210288  C 11.139632019403486 8.098706110397615  11.302532476125569 8.14532625878238  11.496869201357867 8.14532625878238  C 11.667170472185482 8.14532625878238  11.818197938937324 8.097876969086578  11.949294707920913 7.99996044453141  C 12.08061127984528 7.9025720018946535  12.191410384717459 7.7575078131565105  12.281324198947454 7.563334445318155  C 12.281324198947454 7.563334445318155  12.258827971670794 8.040922504570066  12.258827971670794 8.040922504570066  L 13.576316851400156 8.040922504570066  L 13.576316851400156 2.272523173060021  L 12.539047404939335 2.272523173060021  C 12.539047404939335 2.272523173060021  12.539047404939335 6.761972519326615  12.539047404939335 6.761972519326615  C 12.539047404939335 7.0047269760214705  12.34412495367632 7.203728499991678  12.106333529142082 7.203728499991678  C 11.870227484233965 7.203728499991678  11.674716929293353 7.0047269760214705  11.674716929293353 6.761972519326615  C 11.674716929293353 6.761972519326615  11.674716929293353 2.272523173060021  11.674716929293353 2.272523173060021  L 10.592455028279211 2.272523173060021  C 10.592455028279211 2.272523173060021  10.592455028279211 6.16300722340198  10.592455028279211 6.16300722340198  C 10.592455028279211 6.658700239588414  10.60095537669344 6.989186810005723  10.6154646978865 7.156881986779593  Z M 6.736349920691062 5.906750050643179  C 6.736349920691062 5.906750050643179  6.736129430335367 4.37938811978015  6.736129430335367 4.37938811978015  C 6.736129430335367 3.825609106326013  6.781123518510015 3.393433444613007  6.869938091593556 3.0818054536715396  C 6.959338916378043 2.7710072617395767  7.121066416813117 2.521236727541831  7.354168038007885 2.333249088727255  C 7.58719629181317 2.143828150118611  7.885589616770591 2.049306640081874  8.247516286662306 2.049306640081874  C 8.552138431819126 2.049306640081874  8.813452353661475 2.1110887945136034  9.031971284251892 2.2316362405021204  C 9.250490328063588 2.35301349382544  9.420204959003014 2.5102233585546174  9.537012207712511 2.7046985350623327  C 9.657117058552856 2.8997771957040177  9.737724641580625 3.100438517500365  9.781325873480672 3.3056256705907856  C 9.825733160022443 3.513377664551764  9.847131375412262 3.827570413110819  9.847131375412262 4.250089995668436  C 9.847131375412262 4.250089995668436  9.847131375412262 5.709106166167272  9.847131375412262 5.709106166167272  C 9.847131375412262 6.244252332250308  9.826318809224432 6.637728216849117  9.786015175411617 6.887875520691037  C 9.746224417823028 7.13855089812607  9.660195836298271 7.370820492342275  9.526900706330288 7.588454730478831  C 9.395290955988425 7.8041274786740455  9.225283162805974 7.965259191045505  9.0190751863588 8.068003563696534  C 8.81125489036009 8.172181344370495  8.573536606772773 8.22295052942927  8.304235101540952 8.22295052942927  C 8.004302743549133 8.22295052942927  7.7509020025407835 8.180329121130518  7.542788738392668 8.090861499330373  C 7.3338693063815485 8.002223659889141  7.172068559865505 7.8683985888935455  7.057166493722905 7.690896645087328  C 6.940359245013407 7.5130928759611555  6.8589459672258375 7.2965907283706954  6.809848776254169 7.044255769567246  C 6.75994563577482 6.791619002094436  6.736349920691062 6.41255144272419  6.736349920691062 5.906750050643179  Z M 7.767610228584744 3.6000539974010617  C 7.767610228584744 3.6000539974010617  7.767610228584744 6.671071464527651  7.767610228584744 6.671071464527651  C 7.767610228584744 6.997334095573219  8.004228987972407 7.264077712617115  8.291850375646513 7.264077712617115  C 8.57947176332062 7.264077712617115  8.814478769263145 6.99763590424258  8.814478769263145 6.671071464527651  C 8.814478769263145 6.671071464527651  8.814478769263145 3.6000539974010617  8.814478769263145 3.6000539974010617  C 8.814478769263145 3.273791333054306  8.57947176332062 3.007047749311598  8.291850375646513 3.007047749311598  C 8.004228987972407 3.007047749311598  7.767610228584744 3.273489590987321  7.767610228584744 3.6000539974010617  Z M 4.119178051412067 3.799884571104038  L 4.12108379199813 8.221517246285796  L 5.364560373833756 8.221517246285796  L 5.365659720114254 3.797319580378133  L 6.834543696091828 0.007317203497890849  L 5.474845923154026 0.007317203497890849  L 4.693908419595643 2.8229076298870672  L 3.9017579980425614 0  L 2.556569111608978 0  L 4.119178051412067 3.799884571104038  Z " fill-rule="nonzero" fill="rgba(255, 255, 255, 1)" stroke="none" transform="matrix(1 0 0 1 10 7 )" class="fill" />
    <path d="M 14.393454109599842 14.69139944862874  C 14.393454109599842 14.69139944862874  14.380336486185069 15.360899325420684  14.380336486185069 15.360899325420684  L 13.259970125109552 15.360899325420684  C 13.259970125109552 15.360899325420684  13.26546478618007 14.69139944862874  13.26546478618007 14.69139944862874  C 13.26546478618007 14.393576398685433  13.502671261058083 14.15059667610247  13.793004007249326 14.15059667610247  C 13.793004007249326 14.15059667610247  13.864817612582064 14.15059667610247  13.864817612582064 14.15059667610247  C 14.155223629115978 14.15059667610247  14.393454109599842 14.39365179257569  14.393454109599842 14.69139944862874  Z " stroke-width="0" stroke-dasharray="0" stroke="rgba(121, 121, 121, 1)" fill="none" transform="matrix(1 0 0 1 10 7 )" class="stroke" mask="url(#Clip158)" />
    <path d="M 10.697903246932087 14.363025222535667  C 10.697903246932087 14.122835540108994  10.465389276529796 13.926096582123346  10.179966225578378 13.926096582123346  C 9.896741543698587 13.926096582123346  9.66422582645369 14.122836489192858  9.66422582645369 14.363327863734735  C 9.66422582645369 14.363327863734735  9.66422582645369 17.619239922007477  9.66422582645369 17.619239922007477  C 9.66422582645369 17.859731296549356  9.896741543698587 18.055337364760387  10.179966225578378 18.055337364760387  C 10.465389276529796 18.055337364760387  10.697903246932087 17.859731296549356  10.697903246932087 17.619239922007477  C 10.697903246932087 17.619239922007477  10.697903246932087 14.363025222535667  10.697903246932087 14.363025222535667  Z " stroke-width="0" stroke-dasharray="0" stroke="rgba(121, 121, 121, 1)" fill="none" transform="matrix(1 0 0 1 10 7 )" class="stroke" mask="url(#Clip158)" />
    <path d="M 14.218610433364933 9.403379615176798  C 15.748536594974926 9.403379615176798  17 10.619643043991973  17 12.10521318240922  C 17 12.10521318240922  17 18.298697120503974  17 18.298697120503974  C 17 19.784568967687015  15.748608927198417 21  14.218316446224009 21  C 14.218316446224009 21  2.78168355377599 21  2.78168355377599 21  C 1.251097991430896 21  0 19.78426725892122  0 18.298697120503974  C 0 18.298697120503974  0 12.10521318240922  0 12.10521318240922  C 0 10.619341335226178  1.2511712294246298 9.403379615176798  2.78168355377599 9.403379615176798  C 2.78168355377599 9.403379615176798  14.218610433364933 9.403379615176798  14.218610433364933 9.403379615176798  Z " stroke-width="0" stroke-dasharray="0" stroke="rgba(121, 121, 121, 1)" fill="none" transform="matrix(1 0 0 1 10 7 )" class="stroke" mask="url(#Clip158)" />
    <path d="M 2.3619392726570583 18.97106143230682  L 3.5442282280387856 18.971364073505885  L 3.5437158208741466 12.447091173553666  L 4.961304216590338 12.44761759873796  L 4.961304216590338 11.48059797922554  L 1.1820684650260338 11.47463893139037  L 1.1820684650260338 12.424761794380172  L 2.3619392726570583 12.428457427050482  L 2.3619392726570583 18.97106143230682  Z " stroke-width="0" stroke-dasharray="0" stroke="rgba(121, 121, 121, 1)" fill="none" transform="matrix(1 0 0 1 10 7 )" class="stroke" mask="url(#Clip158)" />
    <path d="M 7.793916901867543 18.9693265736023  L 7.794209853842478 13.419164048580104  L 6.612141388816443 13.419164048580104  C 6.612141388816443 13.419164048580104  6.612141388816443 16.90289459764147  6.612141388816443 16.90289459764147  C 6.612141388816443 17.40703642500466  6.641453460324326 17.659071140294596  6.610529635371305 17.74770897973583  C 6.514020738188131 18.01784683704553  6.081892232583286 18.30465496949637  5.913789427874109 17.777052388389134  C 5.885283768868069 17.684491793848245  5.910491965627142 17.40560297535524  5.909978981867971 16.92658159965867  C 5.909978981867971 16.92658159965867  5.904482250465475 13.418863538657089  5.904482250465475 13.418863538657089  L 4.729008827956448 13.418863538657089  C 4.729008827956448 13.418863538657089  4.733405177912456 16.87121317916156  4.733405177912456 16.87121317916156  C 4.733918161671627 17.400475324986612  4.7216070666336005 17.79508293381845  4.737215623918593 17.9746216782033  C 4.766014354186276 18.291303923694432  4.7553163746605485 18.66079202994352  5.041325653051209 18.87110884812446  C 5.5727474259075365 19.26601864858932  6.592135787084197 18.812419166915653  6.8471478771759715 18.248682465443895  C 6.8471478771759715 18.248682465443895  6.844950219780962 18.9678922248208  6.844950219780962 18.9678922248208  L 7.793916901867543 18.9693265736023  Z " stroke-width="0" stroke-dasharray="0" stroke="rgba(121, 121, 121, 1)" fill="none" transform="matrix(1 0 0 1 10 7 )" class="stroke" mask="url(#Clip158)" />
    <path d="M 9.55613793452843 18.44398620881715  C 10.797416729573296 19.617174017776062  11.577768357234403 18.813851584228235  11.575643262801789 17.408394913679263  C 11.575643262801789 17.408394913679263  11.57344664057277 14.508693677985706  11.57344664057277 14.508693677985706  C 11.572347405112653 13.403323272737772  10.769497655866616 12.741443840064177  9.678734712957908 13.635667594820472  C 9.678734712957908 13.635667594820472  9.683645540410534 11.479694318180435  9.683645540410534 11.479694318180435  L 8.502674351333024 11.481655092146227  L 8.49688570312158 18.92248112602824  L 9.46783620532018 18.907771058732692  C 9.46783620532018 18.907771058732692  9.55613793452843 18.44398620881715  9.55613793452843 18.44398620881715  Z " stroke-width="0" stroke-dasharray="0" stroke="rgba(121, 121, 121, 1)" fill="none" transform="matrix(1 0 0 1 10 7 )" class="stroke" mask="url(#Clip158)" />
    <path d="M 12.287773283059988 17.02857168374462  C 12.288506070518117 19.90254974956492  15.679433927623139 19.496325603973187  15.275591510591543 17.024272899952223  C 15.275591510591543 17.024272899952223  14.38883726928814 17.02910024020496  14.38883726928814 17.02910024020496  C 14.38883726928814 17.06553605268469  14.387224828364904 17.10702746008691  14.38663857672714 17.152741957680572  C 14.38663857672714 17.152741957680572  14.38663857672714 17.661937906388676  14.38663857672714 17.661937906388676  C 14.38663857672714 17.934338945754916  14.168119565264384 18.1561957412639  13.902408630312813 18.1561957412639  C 13.902408630312813 18.1561957412639  13.728811293928866 18.1561957412639  13.728811293928866 18.1561957412639  C 13.462587482753067 18.1561957412639  13.244067905183908 17.934338945754916  13.244067905183908 17.661937906388676  C 13.244067905183908 17.661937906388676  13.244067905183908 17.605510241694827  13.244067905183908 17.605510241694827  L 13.244067905183908 17.04494201508294  L 13.244067905183908 16.322337132958744  L 15.273686805171469 16.322337132958744  C 15.273686805171469 16.322337132958744  15.273686805171469 15.535911189524027  15.273686805171469 15.535911189524027  C 15.273686805171469 14.96153808851636  15.259176713669342 14.38708962691962  15.213084047501452 14.058563913721073  C 15.068064215091171 13.018974144906677  13.650987644258752 12.854146283696492  12.934828628574953 13.386199601918232  C 12.710007688314807 13.552461495548629  12.53860785566842 13.774846581108452  12.438288488217404 14.074103047399987  C 12.33767593426166 14.37305770502216  12.287773283059988 14.780869085150773  12.287773283059988 15.299721046411888  C 12.287773283059988 15.299721046411888  12.287773283059988 17.02857168374462  12.287773283059988 17.02857168374462  Z " stroke-width="0" stroke-dasharray="0" stroke="rgba(121, 121, 121, 1)" fill="none" transform="matrix(1 0 0 1 10 7 )" class="stroke" mask="url(#Clip158)" />
    <path d="M 10.6154646978865 7.156881986779593  C 10.630999878683873 7.323370261887904  10.668005089511563 7.482843591733725  10.728900257311818 7.637262017656709  C 10.789502246694578 7.79024716043622  10.884106947953438 7.913585046195282  11.013225158893412 8.007277115210288  C 11.139632019403486 8.098706110397615  11.302532476125569 8.14532625878238  11.496869201357867 8.14532625878238  C 11.667170472185482 8.14532625878238  11.818197938937324 8.097876969086578  11.949294707920913 7.99996044453141  C 12.08061127984528 7.9025720018946535  12.191410384717459 7.7575078131565105  12.281324198947454 7.563334445318155  C 12.281324198947454 7.563334445318155  12.258827971670794 8.040922504570066  12.258827971670794 8.040922504570066  L 13.576316851400156 8.040922504570066  L 13.576316851400156 2.272523173060021  L 12.539047404939335 2.272523173060021  C 12.539047404939335 2.272523173060021  12.539047404939335 6.761972519326615  12.539047404939335 6.761972519326615  C 12.539047404939335 7.0047269760214705  12.34412495367632 7.203728499991678  12.106333529142082 7.203728499991678  C 11.870227484233965 7.203728499991678  11.674716929293353 7.0047269760214705  11.674716929293353 6.761972519326615  C 11.674716929293353 6.761972519326615  11.674716929293353 2.272523173060021  11.674716929293353 2.272523173060021  L 10.592455028279211 2.272523173060021  C 10.592455028279211 2.272523173060021  10.592455028279211 6.16300722340198  10.592455028279211 6.16300722340198  C 10.592455028279211 6.658700239588414  10.60095537669344 6.989186810005723  10.6154646978865 7.156881986779593  Z " stroke-width="0" stroke-dasharray="0" stroke="rgba(121, 121, 121, 1)" fill="none" transform="matrix(1 0 0 1 10 7 )" class="stroke" mask="url(#Clip158)" />
    <path d="M 6.736349920691062 5.906750050643179  C 6.736349920691062 5.906750050643179  6.736129430335367 4.37938811978015  6.736129430335367 4.37938811978015  C 6.736129430335367 3.825609106326013  6.781123518510015 3.393433444613007  6.869938091593556 3.0818054536715396  C 6.959338916378043 2.7710072617395767  7.121066416813117 2.521236727541831  7.354168038007885 2.333249088727255  C 7.58719629181317 2.143828150118611  7.885589616770591 2.049306640081874  8.247516286662306 2.049306640081874  C 8.552138431819126 2.049306640081874  8.813452353661475 2.1110887945136034  9.031971284251892 2.2316362405021204  C 9.250490328063588 2.35301349382544  9.420204959003014 2.5102233585546174  9.537012207712511 2.7046985350623327  C 9.657117058552856 2.8997771957040177  9.737724641580625 3.100438517500365  9.781325873480672 3.3056256705907856  C 9.825733160022443 3.513377664551764  9.847131375412262 3.827570413110819  9.847131375412262 4.250089995668436  C 9.847131375412262 4.250089995668436  9.847131375412262 5.709106166167272  9.847131375412262 5.709106166167272  C 9.847131375412262 6.244252332250308  9.826318809224432 6.637728216849117  9.786015175411617 6.887875520691037  C 9.746224417823028 7.13855089812607  9.660195836298271 7.370820492342275  9.526900706330288 7.588454730478831  C 9.395290955988425 7.8041274786740455  9.225283162805974 7.965259191045505  9.0190751863588 8.068003563696534  C 8.81125489036009 8.172181344370495  8.573536606772773 8.22295052942927  8.304235101540952 8.22295052942927  C 8.004302743549133 8.22295052942927  7.7509020025407835 8.180329121130518  7.542788738392668 8.090861499330373  C 7.3338693063815485 8.002223659889141  7.172068559865505 7.8683985888935455  7.057166493722905 7.690896645087328  C 6.940359245013407 7.5130928759611555  6.8589459672258375 7.2965907283706954  6.809848776254169 7.044255769567246  C 6.75994563577482 6.791619002094436  6.736349920691062 6.41255144272419  6.736349920691062 5.906750050643179  Z " stroke-width="0" stroke-dasharray="0" stroke="rgba(121, 121, 121, 1)" fill="none" transform="matrix(1 0 0 1 10 7 )" class="stroke" mask="url(#Clip158)" />
    <path d="M 7.767610228584744 3.6000539974010617  C 7.767610228584744 3.6000539974010617  7.767610228584744 6.671071464527651  7.767610228584744 6.671071464527651  C 7.767610228584744 6.997334095573219  8.004228987972407 7.264077712617115  8.291850375646513 7.264077712617115  C 8.57947176332062 7.264077712617115  8.814478769263145 6.99763590424258  8.814478769263145 6.671071464527651  C 8.814478769263145 6.671071464527651  8.814478769263145 3.6000539974010617  8.814478769263145 3.6000539974010617  C 8.814478769263145 3.273791333054306  8.57947176332062 3.007047749311598  8.291850375646513 3.007047749311598  C 8.004228987972407 3.007047749311598  7.767610228584744 3.273489590987321  7.767610228584744 3.6000539974010617  Z " stroke-width="0" stroke-dasharray="0" stroke="rgba(121, 121, 121, 1)" fill="none" transform="matrix(1 0 0 1 10 7 )" class="stroke" mask="url(#Clip158)" />
    <path d="M 4.119178051412067 3.799884571104038  L 4.12108379199813 8.221517246285796  L 5.364560373833756 8.221517246285796  L 5.365659720114254 3.797319580378133  L 6.834543696091828 0.007317203497890849  L 5.474845923154026 0.007317203497890849  L 4.693908419595643 2.8229076298870672  L 3.9017579980425614 0  L 2.556569111608978 0  L 4.119178051412067 3.799884571104038  Z " stroke-width="0" stroke-dasharray="0" stroke="rgba(121, 121, 121, 1)" fill="none" transform="matrix(1 0 0 1 10 7 )" class="stroke" mask="url(#Clip158)" />
  </g>
</svg>