<?xml version="1.0" encoding="utf-8"?>
<svg version="1.1" xmlns:xlink="http://www.w3.org/1999/xlink" width="111px" height="25px" xmlns="http://www.w3.org/2000/svg">
  <defs>
    <pattern id="BGPattern" patternUnits="userSpaceOnUse" alignment="0 0" imageRepeat="None" />
    <mask fill="white" id="Clip162">
      <path d="M 52.044323212566646 7.120644782286926  C 52.044323212566646 7.120644782286926  50.553053985295236 7.120644782286926  50.553053985295236 7.120644782286926  C 51.10445387893118 7.585621948225269  52.254922535072716 8.57251359288785  52.254922535072716 10.444101119115052  C 52.254922535072716 12.268241973535323  51.25244186488762 13.128120831889925  50.24142349396836 13.942013163581708  C 49.931216658690914 14.262460459332408  49.56836088762409 14.609915842891063  49.56836088762409 15.147157853185893  C 49.56836088762409 15.692429270467592  49.93121746404434 15.988058590266292  50.19233201302596 16.208502987140715  C 50.19233201302596 16.208502987140715  51.0596301148955 16.89538216957519  51.0596301148955 16.89538216957519  C 52.114048921907965 17.808547554414524  53.075267220187726 18.645799546783724  53.075267220187726 20.346579248078946  C 53.075267220187726 22.663435307834455  50.889588629192666 25  46.759425609193514 25  C 43.28027020439701 25  41.59832192229857 23.29995091570083  41.59832192229857 21.477269964458454  C 41.59832192229857 20.59038277632968  42.028771393583426 19.334141294024494  43.44889283634302 18.473532302606284  C 44.93731683946887 17.539928394259523  46.95365669018893 17.415108578033447  48.03368895733874 17.342113751842234  C 47.696445632260506 16.895385345381804  47.311534870052064 16.427486830553033  47.311534870052064 15.66396091653242  C 47.311534870052064 15.246430513138339  47.43390734520272 14.99751820089251  47.55201363958374 14.704078992949762  C 47.2894761802503 14.729627173799098  47.02480787508185 14.755904285442398  46.78432642103877 14.755904285442398  C 44.237926096397665 14.755904285442398  42.798592977656135 12.806942253736075  42.798592977656135 10.886448273507153  C 42.798592977656135 9.75356848875101  43.30232591140834 8.49659802272175  44.33682325762559 7.585622553140814  C 45.705717899422105 6.4293843175383465  47.33786252953252 6.2301084411289605  48.634897335083224 6.2301084411289605  C 48.634897335083224 6.2301084411289605  53.58255349253611 6.2301084411289605  53.58255349253611 6.2301084411289605  C 53.58255349253611 6.2301084411289605  52.044323212566646 7.120644782286926  52.044323212566646 7.120644782286926  Z M 68.87162905769569 15.704107951466764  C 68.87162905769569 15.704107951466764  69.02744323701154 15.620894181102502  68.91645204620586 15.734766039185674  C 68.91645204620586 15.734766039185674  67.76811304278316 16.846477893269437  67.76811304278316 16.846477893269437  C 67.50272943463912 16.996117258227937  67.23877377776276 17.16984431484594  66.97552501239294 17.293205604076988  C 66.17795196365081 17.664749359825137  65.36686013310602 17.758183374930876  64.64612698752947 17.758183374930876  C 63.879148181714164 17.758183374930876  62.67673900251291 17.707087489603197  61.450141003544594 16.796841911119653  C 59.74613761099291 15.565419085296462  59.00120991869165 13.448567825182852  59.00120991869165 11.603988447255158  C 59.00120991869165 7.784898671516419  62.031418614187686 5.911851242111321  64.50311340119096 5.911851242111321  C 65.36685416752513 5.911851242111321  66.25408023267305 6.133755527040751  66.97552501239294 6.601652408597551  C 68.17508687949532 7.415544740289334  68.48529271553797 8.473238966959881  68.6574713855055 9.039678859337954  C 68.6574713855055 9.039678859337954  63.01327209535931 11.379165051622815  63.01327209535931 11.379165051622815  C 63.01327209535931 11.379165051622815  61.164831609559215 11.5266134578436  61.164831609559215 11.5266134578436  C 61.76318981172601 14.658091861371398  63.827919173486166 16.47931254648655  66.10964719601962 16.47931254648655  C 67.24944372624344 16.47931254648655  68.09540032044478 16.09755007340868  68.87162905769569 15.704107951466764  Z M 79.75305475576882 17.993223552163194  C 78.16786926937057 17.993223552163194  76.74775182355017 17.154515044143157  75.83705274868514 15.83987810012926  C 75.83705274868514 15.83987810012926  75.83705274868514 22.113784362493735  75.83705274868514 22.113784362493735  C 75.83705274868514 22.113784362493735  74.62254829459113 22.113784362493735  74.62254829459113 22.113784362493735  C 74.62254829459113 22.113784362493735  74.62254829459113 6.149084601145983  74.62254829459113 6.149084601145983  C 74.62254829459113 6.149084601145983  75.83705274868514 6.149084601145983  75.83705274868514 6.149084601145983  C 75.83705274868514 6.149084601145983  75.83705274868514 7.9673852379391255  75.83705274868514 7.9673852379391255  C 76.6282222832534 6.792168502990238  78.07395265230888 5.8607557197329685  79.75305475576882 5.8607557197329685  C 82.76476466219825 5.8607557197329685  84.79321273312158 8.204618596973788  84.79321273312158 11.914946009400214  C 84.79321273312158 15.600455188785528  82.76476466219825 17.993223552163194  79.75305475576882 17.993223552163194  Z M 99.14525876011264 17.67131943830388  C 99.14525876011264 17.67131943830388  97.74577357404945 17.67131943830388  97.74577357404945 17.67131943830388  C 97.66466501439818 17.270577770226712  97.6034715845694 16.91728147338805  97.55864714194888 16.622382332021633  C 97.52165041018243 16.32821320273571  97.5003085333939 16.027474660378154  97.5003085333939 15.721626305669071  C 97.08409055185962 16.348651998455132  96.49426509899484 16.87056451120385  95.74080388186603 17.28152541078895  C 94.9866310902497 17.69540611672985  94.27017824895552 17.89833020854933  93.28761957646792 17.89833020854933  C 92.10442177496957 17.89833020854933  91.18589233829547 17.599783396196802  90.53061634997222 16.993926299490223  C 89.8774741902744 16.388799093881033  89.54877145923706 15.569067209969226  89.54877145923706 14.531810659924338  C 89.54877145923706 13.496014013057348  90.0247485734458 12.655113109625177  90.97386759989361 12.01202866335693  C 91.92298662634143 11.36602435024134  93.14958653429564 11.04484710290169  94.66789272861429 11.04484710290169  C 94.66789272861429 11.04484710290169  97.5003085333939 11.04484710290169  97.5003085333939 11.04484710290169  C 97.5003085333939 11.04484710290169  97.5003085333939 9.609038921021144  97.5003085333939 9.609038921021144  C 97.5003085333939 8.782007400236749  97.22567776780939 8.131623196112807  96.67712327728643 7.660076526365491  C 96.126434958138 7.187800056258113  95.35376188605983 6.949108155105534  94.35199374485519 6.949108155105534  C 93.43631340995424 6.949108155105534  92.69351686176702 7.167362470369784  92.12788774530125 7.592192419899116  C 91.56723887472265 8.02578166751271  91.28478794847238 8.563023496332876  91.28478794847238 9.210487652134807  C 91.28478794847238 9.210487652134807  90.04182433284899 9.210487652134807  90.04182433284899 9.210487652134807  C 90.04182433284899 9.210487652134807  90.01621337825561 9.148441706582705  90.01621337825561 9.148441706582705  C 89.97138993486989 8.275423538152381  90.36056961455822 7.509707890348033  91.1880252720838 6.848374714847651  C 92.01192287820433 6.187771430444662  93.09124780642904 5.855645393203234  94.41958711696628 5.855645393203234  C 95.74365877025262 5.855645393203234  96.81514856420357 6.1826612248980375  97.62268216437586 6.835234981331048  C 98.42950514455357 7.481239294446638  98.83433841153388 8.414844775573817  98.83433841153388 9.635318388054348  C 98.83433841153388 9.635318388054348  98.83433841153388 15.336214770299339  98.83433841153388 15.336214770299339  C 98.83433841153388 15.745715766706548  98.85354835376889 16.141348439068185  98.9033520691412 16.526761154023227  C 98.95457900432984 16.912903760075668  99.03640239716721 17.298315779377834  99.14525876011264 17.67131943830388  Z M 41.76765660597857 11.723699781943916  C 41.76765660597857 14.631083834055  39.58268791910839 17.707087852552522  35.667392952670774 17.707087852552522  C 31.850994192968134 17.707087852552522  29.809035990334408 14.658092345303833  29.809035990334408 11.897427655197907  C 29.809035990334408 8.671785920136745  32.376070304751195 5.911851242111321  36.02740478219194 5.911851242111321  C 39.5570755327756 5.911851242111321  41.76765660597857 8.746970631340579  41.76765660597857 11.723699781943916  Z M 28.987981162471275 11.723699781943916  C 28.987981162471275 14.631083834055  26.805861875653267 17.707087852552522  22.889855573351355 17.707087852552522  C 19.07274523916119 17.707087852552522  17.034342999979227 14.658092345303833  17.034342999979227 11.897427655197907  C 17.034342999979227 8.671785920136745  19.60208626402795 5.911851242111321  23.251997831116867 5.911851242111321  C 26.779534096861184 5.911851242111321  28.987981162471275 8.746970631340579  28.987981162471275 11.723699781943916  Z M 57.12075955762159 1.5737686087507683  C 57.12075955762159 1.5737686087507683  57.11507077969313 15.544249581843662  57.11507077969313 15.544249581843662  C 57.11507077969313 16.50121188054519  57.28155886714397 16.650120447032975  58.07059457308678 16.725305082622366  C 58.481832278905976 16.77494153736242  58.891640899997164 16.796841336449884  59.297186725785835 16.846477893269437  C 59.297186725785835 16.846477893269437  58.40925630450326 17.38883065353488  58.40925630450326 17.38883065353488  C 58.40925630450326 17.38883065353488  54.178065456408596 17.38883065353488  54.178065456408596 17.38883065353488  C 54.73302280489153 16.650122912063825  54.82835767915196 16.576396228799695  54.82835767915196 16.084411096036508  C 54.82835767915196 16.084411096036508  54.82835767915196 15.534760634628222  54.82835767915196 15.534760634628222  C 54.82835767915196 15.534760634628222  54.81911055153939 0.8890768009293981  54.81911055153939 0.8890768009293981  C 54.81911055153939 0.8890768009293981  52.9507555250179 0.8890768009293981  52.9507555250179 0.8890768009293981  C 52.9507555250179 0.8890768009293981  54.74938675118395 0  54.74938675118395 0  C 54.74938675118395 0  58.183003297764515 0  58.183003297764515 0  C 57.438790997922546 0.44234869692674256  57.21609832442355 0.7116997141546598  57.12075955762159 1.5737686087507683  Z M 15.5082118725301 14.036906507195573  C 15.5082118725301 14.036906507195573  15.5082118725301 16.852316054183706  15.5082118725301 16.852316054183706  C 15.5082118725301 16.852316054183706  12.289459322916072 17.608543722637492  12.289459322916072 17.608543722637492  C 10.985309607671413 17.819498779101373  9.814207975902956 18.00490374545123  8.574091732034242 18.00490374545123  C 2.3656849830021147 18.00490374545123  0 13.316446769057997  0 9.646996645612639  C 0 5.165843742784568  3.3518021841412597 1.01097841382588  9.092053053434956 1.01097841382588  C 10.306555837166325 1.01097841382588  11.474809381310402 1.1941950830664219  12.539189038032088 1.4920140307886334  C 14.226116909803823 1.978159550840238  15.015153600067475 2.57744774865339  15.5082118725301 2.9285529506483376  C 15.5082118725301 2.9285529506483376  13.638432742540612 4.750504373742647  13.638432742540612 4.750504373742647  C 13.638432742540612 4.750504373742647  12.850109386610848 4.931529948139477  12.850109386610848 4.931529948139477  C 12.850109386610848 4.931529948139477  13.412179735801857 4.012524829605453  13.412179735801857 4.012524829605453  C 12.650892094147366 3.249728806682232  11.251402911144996 1.8416600555043405  8.59543419419539 1.8416600555043405  C 5.044418833841456 1.8416600555043405  2.3656840285091736 4.611083680745203  2.3656840285091736 8.65426732396822  C 2.3656840285091736 12.996730029811786  5.424353794520475 17.08152194196125  10.330034215906235 17.08152194196125  C 11.771500149124474 17.08152194196125  12.513575756862167 16.784431826734224  13.1873508325311 16.507051553748322  C 13.1873508325311 16.507051553748322  13.1873508325311 12.784315145784452  13.1873508325311 12.784315145784452  C 13.1873508325311 12.784315145784452  9.788596186128256 12.971910586939586  9.788596186128256 12.971910586939586  C 9.788596186128256 12.971910586939586  11.590071801258542 11.97918126529517  11.590071801258542 11.97918126529517  C 11.590071801258542 11.97918126529517  16.359856290166956 11.97918126529517  16.359856290166956 11.97918126529517  C 16.359856290166956 11.97918126529517  15.776439660843032 12.555111193736659  15.776439660843032 12.555111193736659  C 15.619201698709151 12.692341532911936  15.59786075404264 12.739057391125266  15.553748821760156 12.923004374904085  C 15.530269784942103 13.133229540270575  15.5082118725301 13.801863169279526  15.5082118725301 14.036906507195573  Z M 86.45167857988511 17.70562444086446  C 86.45167857988511 17.70562444086446  86.45167857988511 1.740926615246458  86.45167857988511 1.740926615246458  C 86.45167857988511 1.740926615246458  87.665472891231 1.740926615246458  87.665472891231 1.740926615246458  C 87.665472891231 1.740926615246458  87.665472891231 17.70562444086446  87.665472891231 17.70562444086446  C 87.665472891231 17.70562444086446  86.45167857988511 17.70562444086446  86.45167857988511 17.70562444086446  Z M 101.0847578724858 22.231306386839638  C 101.0847578724858 22.231306386839638  101.29323440269104 21.081637776029254  101.29323440269104 21.081637776029254  C 101.5529251166558 21.200619348165173  101.99618131800935 21.273611837870092  102.27721735761406 21.273611837870092  C 103.02000638916937 21.273611837870092  103.53724256438606 20.96192607839117  104.0018410191054 19.861164042565612  C 104.0018410191054 19.861164042565612  104.88764101214363 17.801981196166388  104.88764101214363 17.801981196166388  C 104.88764101214363 17.801981196166388  100.1036307604423 6.149084601145983  100.1036307604423 6.149084601145983  C 100.1036307604423 6.149084601145983  101.4582929579953 6.149084601145983  101.4582929579953 6.149084601145983  C 101.4582929579953 6.149084601145983  105.56212390398413 16.24719144971137  105.56212390398413 16.24719144971137  C 105.56212390398413 16.24719144971137  109.6261257685302 6.149084601145983  109.6261257685302 6.149084601145983  C 109.6261257685302 6.149084601145983  111 6.149084601145983  111 6.149084601145983  C 111 6.149084601145983  105.16511592806914 20.247307283779374  105.16511592806914 20.247307283779374  C 104.5596436513897 21.699904412697272  103.60697039150858 22.39846439333533  102.2985521838317 22.39846439333533  C 101.90581335656283 22.39846439333533  101.38784982789718 22.326929689603897  101.0847578724858 22.231306386839638  Z M 51.465175075674956 21.307189006046134  C 51.465175075674956 20.050947826198723  50.67329396661916 19.38815492899511  48.851895578265875 18.05599926782958  C 48.654814649799725 18.029721186431047  48.536711778170734 18.02972367225587  48.299076174659206 18.02972367225587  C 48.0813621512545 18.02972367225587  46.78432618241553 18.07790084007574  45.77971114670271 18.4238963204565  C 45.24823283317358 18.62317224223455  43.712141989475604 19.21223835031381  43.712141989475604 20.961924505610753  C 43.712141989475604 22.707960842471397  45.37060592725326 23.96712170769149  47.93621613820205 23.96712170769149  C 50.24142349396836 23.96712170769149  51.465175075674956 22.83351094298997  51.465175075674956 21.307189006046134  Z M 36.219502213529324 16.967646832457014  C 37.15866068854696 16.967646832457014  38.117030779890726 16.501210912680314  38.669853583878506 15.714326668796485  C 39.250424332842975 14.925982400751654  39.391297528417056 13.942013103090153  39.391297528417056 12.982861010113336  C 39.391297528417056 10.8134545664097  38.383833569898535 6.676106381822228  35.40627422778253 6.676106381822228  C 34.61439288010351 6.676106381822228  33.8168212631008 6.993635020556675  33.241942394166855 7.511898350030421  C 32.30420682950104 8.37396736560964  32.13700609375811 9.457209837401798  32.13700609375811 10.520014632568298  C 32.13700609375811 12.953662462622994  33.30953385729206 16.967646832457014  36.219502213529324 16.967646832457014  Z M 23.444813041145903 16.967646832457014  C 24.381837090979996 16.967646832457014  25.33878051365599 16.501210912680314  25.893026347307202 15.714326668796485  C 26.469328126592973 14.925982400751654  26.61305000634953 13.942013103090153  26.61305000634953 12.982861010113336  C 26.61305000634953 10.8134545664097  25.602740227127356 6.676106381822228  22.628026705715 6.676106381822228  C 21.833299418020715 6.676106381822228  21.04426514381732 6.993635020556675  20.467963364531553 7.511898350030421  C 19.5288047702023 8.37396736560964  19.362316921374685 9.457209837401798  19.362316921374685 10.520014632568298  C 19.362316921374685 12.953662462622994  20.53982499045163 16.967646832457014  23.444813041145903 16.967646832457014  Z M 61.14064094046207 11.452159484618923  C 61.14064094046207 11.452159484618923  65.51128702521113 9.506116170420407  65.51128702521113 9.506116170420407  C 65.96948300973328 9.335308239628205  66.20783015790443 9.187859455335204  66.20783015790443 8.844783781310236  C 66.20783015790443 7.860813394800754  65.12282092593692 6.724282823743444  63.82792036660233 6.724282823743444  C 62.86883983423141 6.724282823743444  61.06806893317063 7.490729935425604  61.06806893317063 10.152121451400872  C 61.06806893317063 10.567462060519661  61.11645119416571 11.009810787692182  61.14064094046207 11.452159484618923  Z M 79.54815184713473 16.86691532792888  C 82.06751568197505 16.86691532792888  83.4883521592591 14.715757734440487  83.4883521592591 11.914946009400214  C 83.4883521592591 9.118513872910516  82.06751568197505 6.985604403738716  79.54815184713473 6.985604403738716  C 77.98359903808436 6.985604403738716  76.48734849112122 8.246955547166532  75.83705274868514 9.346987570911587  C 75.83705274868514 9.346987570911587  75.83705274868514 14.457356686699663  75.83705274868514 14.457356686699663  C 76.48734849112122 15.559578625703116  77.98359903808436 16.86691532792888  79.54815184713473 16.86691532792888  Z M 47.91273561185302 14.065373348841884  C 48.51465085127614 14.065373348841884  49.16210745445916 13.765364606844384  49.542039790282594 13.375572182355652  C 50.09699707910972 12.806942374719183  50.1453709603279 12.021518064259027  50.1453709603279 11.5755196698791  C 50.1453709603279 9.803934966913733  49.115859407988054 7.044731268833683  47.12014758146279 7.044731268833683  C 46.49759936641274 7.044731268833683  45.823109942261176 7.365178685567493  45.44033163659458 7.860813636766972  C 45.034074415285794 8.37396736560964  44.91241304483317 9.03967934327039  44.91241304483317 9.679844043674398  C 44.91241304483317 11.329527254726395  45.85014437393656 14.065373348841884  47.91273561185302 14.065373348841884  Z M 91.57079984926234 16.15959483937547  C 92.02472614823608 16.563256313808427  92.64513713427958 16.763264742943605  93.43630666884783 16.763264742943605  C 94.46795843298469 16.763264742943605  95.20932700007631 16.52676021640413  95.96705688860479 16.05886333484733  C 96.71980748573901 15.593886289892101  97.23207949230898 14.987298757664135  97.5003085333939 14.252970725726763  C 97.5003085333939 14.252970725726763  97.5003085333939 12.033927573974687  97.5003085333939 12.033927573974687  C 97.5003085333939 12.033927573974687  94.65437710856949 12.033927573974687  94.65437710856949 12.033927573974687  C 93.56722969310249 12.033927573974687  92.66719701719752 12.28065027341989  91.95927084031288 12.778475049140436  C 91.24992145479739 13.274839921683085  90.89062054354984 13.875588355377683  90.89062054354984 14.574148940931284  C 90.89062054354984 15.233292201173269  91.11829574477072 15.760313195459306  91.57079984926234 16.15959483937547  Z " fill-rule="evenodd" />
    </mask>
  </defs>
  <g transform="matrix(1 0 0 1 -45 -15 )">
    <path d="M 52.044323212566646 7.120644782286926  C 52.044323212566646 7.120644782286926  50.553053985295236 7.120644782286926  50.553053985295236 7.120644782286926  C 51.10445387893118 7.585621948225269  52.254922535072716 8.57251359288785  52.254922535072716 10.444101119115052  C 52.254922535072716 12.268241973535323  51.25244186488762 13.128120831889925  50.24142349396836 13.942013163581708  C 49.931216658690914 14.262460459332408  49.56836088762409 14.609915842891063  49.56836088762409 15.147157853185893  C 49.56836088762409 15.692429270467592  49.93121746404434 15.988058590266292  50.19233201302596 16.208502987140715  C 50.19233201302596 16.208502987140715  51.0596301148955 16.89538216957519  51.0596301148955 16.89538216957519  C 52.114048921907965 17.808547554414524  53.075267220187726 18.645799546783724  53.075267220187726 20.346579248078946  C 53.075267220187726 22.663435307834455  50.889588629192666 25  46.759425609193514 25  C 43.28027020439701 25  41.59832192229857 23.29995091570083  41.59832192229857 21.477269964458454  C 41.59832192229857 20.59038277632968  42.028771393583426 19.334141294024494  43.44889283634302 18.473532302606284  C 44.93731683946887 17.539928394259523  46.95365669018893 17.415108578033447  48.03368895733874 17.342113751842234  C 47.696445632260506 16.895385345381804  47.311534870052064 16.427486830553033  47.311534870052064 15.66396091653242  C 47.311534870052064 15.246430513138339  47.43390734520272 14.99751820089251  47.55201363958374 14.704078992949762  C 47.2894761802503 14.729627173799098  47.02480787508185 14.755904285442398  46.78432642103877 14.755904285442398  C 44.237926096397665 14.755904285442398  42.798592977656135 12.806942253736075  42.798592977656135 10.886448273507153  C 42.798592977656135 9.75356848875101  43.30232591140834 8.49659802272175  44.33682325762559 7.585622553140814  C 45.705717899422105 6.4293843175383465  47.33786252953252 6.2301084411289605  48.634897335083224 6.2301084411289605  C 48.634897335083224 6.2301084411289605  53.58255349253611 6.2301084411289605  53.58255349253611 6.2301084411289605  C 53.58255349253611 6.2301084411289605  52.044323212566646 7.120644782286926  52.044323212566646 7.120644782286926  Z M 68.87162905769569 15.704107951466764  C 68.87162905769569 15.704107951466764  69.02744323701154 15.620894181102502  68.91645204620586 15.734766039185674  C 68.91645204620586 15.734766039185674  67.76811304278316 16.846477893269437  67.76811304278316 16.846477893269437  C 67.50272943463912 16.996117258227937  67.23877377776276 17.16984431484594  66.97552501239294 17.293205604076988  C 66.17795196365081 17.664749359825137  65.36686013310602 17.758183374930876  64.64612698752947 17.758183374930876  C 63.879148181714164 17.758183374930876  62.67673900251291 17.707087489603197  61.450141003544594 16.796841911119653  C 59.74613761099291 15.565419085296462  59.00120991869165 13.448567825182852  59.00120991869165 11.603988447255158  C 59.00120991869165 7.784898671516419  62.031418614187686 5.911851242111321  64.50311340119096 5.911851242111321  C 65.36685416752513 5.911851242111321  66.25408023267305 6.133755527040751  66.97552501239294 6.601652408597551  C 68.17508687949532 7.415544740289334  68.48529271553797 8.473238966959881  68.6574713855055 9.039678859337954  C 68.6574713855055 9.039678859337954  63.01327209535931 11.379165051622815  63.01327209535931 11.379165051622815  C 63.01327209535931 11.379165051622815  61.164831609559215 11.5266134578436  61.164831609559215 11.5266134578436  C 61.76318981172601 14.658091861371398  63.827919173486166 16.47931254648655  66.10964719601962 16.47931254648655  C 67.24944372624344 16.47931254648655  68.09540032044478 16.09755007340868  68.87162905769569 15.704107951466764  Z M 79.75305475576882 17.993223552163194  C 78.16786926937057 17.993223552163194  76.74775182355017 17.154515044143157  75.83705274868514 15.83987810012926  C 75.83705274868514 15.83987810012926  75.83705274868514 22.113784362493735  75.83705274868514 22.113784362493735  C 75.83705274868514 22.113784362493735  74.62254829459113 22.113784362493735  74.62254829459113 22.113784362493735  C 74.62254829459113 22.113784362493735  74.62254829459113 6.149084601145983  74.62254829459113 6.149084601145983  C 74.62254829459113 6.149084601145983  75.83705274868514 6.149084601145983  75.83705274868514 6.149084601145983  C 75.83705274868514 6.149084601145983  75.83705274868514 7.9673852379391255  75.83705274868514 7.9673852379391255  C 76.6282222832534 6.792168502990238  78.07395265230888 5.8607557197329685  79.75305475576882 5.8607557197329685  C 82.76476466219825 5.8607557197329685  84.79321273312158 8.204618596973788  84.79321273312158 11.914946009400214  C 84.79321273312158 15.600455188785528  82.76476466219825 17.993223552163194  79.75305475576882 17.993223552163194  Z M 99.14525876011264 17.67131943830388  C 99.14525876011264 17.67131943830388  97.74577357404945 17.67131943830388  97.74577357404945 17.67131943830388  C 97.66466501439818 17.270577770226712  97.6034715845694 16.91728147338805  97.55864714194888 16.622382332021633  C 97.52165041018243 16.32821320273571  97.5003085333939 16.027474660378154  97.5003085333939 15.721626305669071  C 97.08409055185962 16.348651998455132  96.49426509899484 16.87056451120385  95.74080388186603 17.28152541078895  C 94.9866310902497 17.69540611672985  94.27017824895552 17.89833020854933  93.28761957646792 17.89833020854933  C 92.10442177496957 17.89833020854933  91.18589233829547 17.599783396196802  90.53061634997222 16.993926299490223  C 89.8774741902744 16.388799093881033  89.54877145923706 15.569067209969226  89.54877145923706 14.531810659924338  C 89.54877145923706 13.496014013057348  90.0247485734458 12.655113109625177  90.97386759989361 12.01202866335693  C 91.92298662634143 11.36602435024134  93.14958653429564 11.04484710290169  94.66789272861429 11.04484710290169  C 94.66789272861429 11.04484710290169  97.5003085333939 11.04484710290169  97.5003085333939 11.04484710290169  C 97.5003085333939 11.04484710290169  97.5003085333939 9.609038921021144  97.5003085333939 9.609038921021144  C 97.5003085333939 8.782007400236749  97.22567776780939 8.131623196112807  96.67712327728643 7.660076526365491  C 96.126434958138 7.187800056258113  95.35376188605983 6.949108155105534  94.35199374485519 6.949108155105534  C 93.43631340995424 6.949108155105534  92.69351686176702 7.167362470369784  92.12788774530125 7.592192419899116  C 91.56723887472265 8.02578166751271  91.28478794847238 8.563023496332876  91.28478794847238 9.210487652134807  C 91.28478794847238 9.210487652134807  90.04182433284899 9.210487652134807  90.04182433284899 9.210487652134807  C 90.04182433284899 9.210487652134807  90.01621337825561 9.148441706582705  90.01621337825561 9.148441706582705  C 89.97138993486989 8.275423538152381  90.36056961455822 7.509707890348033  91.1880252720838 6.848374714847651  C 92.01192287820433 6.187771430444662  93.09124780642904 5.855645393203234  94.41958711696628 5.855645393203234  C 95.74365877025262 5.855645393203234  96.81514856420357 6.1826612248980375  97.62268216437586 6.835234981331048  C 98.42950514455357 7.481239294446638  98.83433841153388 8.414844775573817  98.83433841153388 9.635318388054348  C 98.83433841153388 9.635318388054348  98.83433841153388 15.336214770299339  98.83433841153388 15.336214770299339  C 98.83433841153388 15.745715766706548  98.85354835376889 16.141348439068185  98.9033520691412 16.526761154023227  C 98.95457900432984 16.912903760075668  99.03640239716721 17.298315779377834  99.14525876011264 17.67131943830388  Z M 41.76765660597857 11.723699781943916  C 41.76765660597857 14.631083834055  39.58268791910839 17.707087852552522  35.667392952670774 17.707087852552522  C 31.850994192968134 17.707087852552522  29.809035990334408 14.658092345303833  29.809035990334408 11.897427655197907  C 29.809035990334408 8.671785920136745  32.376070304751195 5.911851242111321  36.02740478219194 5.911851242111321  C 39.5570755327756 5.911851242111321  41.76765660597857 8.746970631340579  41.76765660597857 11.723699781943916  Z M 28.987981162471275 11.723699781943916  C 28.987981162471275 14.631083834055  26.805861875653267 17.707087852552522  22.889855573351355 17.707087852552522  C 19.07274523916119 17.707087852552522  17.034342999979227 14.658092345303833  17.034342999979227 11.897427655197907  C 17.034342999979227 8.671785920136745  19.60208626402795 5.911851242111321  23.251997831116867 5.911851242111321  C 26.779534096861184 5.911851242111321  28.987981162471275 8.746970631340579  28.987981162471275 11.723699781943916  Z M 57.12075955762159 1.5737686087507683  C 57.12075955762159 1.5737686087507683  57.11507077969313 15.544249581843662  57.11507077969313 15.544249581843662  C 57.11507077969313 16.50121188054519  57.28155886714397 16.650120447032975  58.07059457308678 16.725305082622366  C 58.481832278905976 16.77494153736242  58.891640899997164 16.796841336449884  59.297186725785835 16.846477893269437  C 59.297186725785835 16.846477893269437  58.40925630450326 17.38883065353488  58.40925630450326 17.38883065353488  C 58.40925630450326 17.38883065353488  54.178065456408596 17.38883065353488  54.178065456408596 17.38883065353488  C 54.73302280489153 16.650122912063825  54.82835767915196 16.576396228799695  54.82835767915196 16.084411096036508  C 54.82835767915196 16.084411096036508  54.82835767915196 15.534760634628222  54.82835767915196 15.534760634628222  C 54.82835767915196 15.534760634628222  54.81911055153939 0.8890768009293981  54.81911055153939 0.8890768009293981  C 54.81911055153939 0.8890768009293981  52.9507555250179 0.8890768009293981  52.9507555250179 0.8890768009293981  C 52.9507555250179 0.8890768009293981  54.74938675118395 0  54.74938675118395 0  C 54.74938675118395 0  58.183003297764515 0  58.183003297764515 0  C 57.438790997922546 0.44234869692674256  57.21609832442355 0.7116997141546598  57.12075955762159 1.5737686087507683  Z M 15.5082118725301 14.036906507195573  C 15.5082118725301 14.036906507195573  15.5082118725301 16.852316054183706  15.5082118725301 16.852316054183706  C 15.5082118725301 16.852316054183706  12.289459322916072 17.608543722637492  12.289459322916072 17.608543722637492  C 10.985309607671413 17.819498779101373  9.814207975902956 18.00490374545123  8.574091732034242 18.00490374545123  C 2.3656849830021147 18.00490374545123  0 13.316446769057997  0 9.646996645612639  C 0 5.165843742784568  3.3518021841412597 1.01097841382588  9.092053053434956 1.01097841382588  C 10.306555837166325 1.01097841382588  11.474809381310402 1.1941950830664219  12.539189038032088 1.4920140307886334  C 14.226116909803823 1.978159550840238  15.015153600067475 2.57744774865339  15.5082118725301 2.9285529506483376  C 15.5082118725301 2.9285529506483376  13.638432742540612 4.750504373742647  13.638432742540612 4.750504373742647  C 13.638432742540612 4.750504373742647  12.850109386610848 4.931529948139477  12.850109386610848 4.931529948139477  C 12.850109386610848 4.931529948139477  13.412179735801857 4.012524829605453  13.412179735801857 4.012524829605453  C 12.650892094147366 3.249728806682232  11.251402911144996 1.8416600555043405  8.59543419419539 1.8416600555043405  C 5.044418833841456 1.8416600555043405  2.3656840285091736 4.611083680745203  2.3656840285091736 8.65426732396822  C 2.3656840285091736 12.996730029811786  5.424353794520475 17.08152194196125  10.330034215906235 17.08152194196125  C 11.771500149124474 17.08152194196125  12.513575756862167 16.784431826734224  13.1873508325311 16.507051553748322  C 13.1873508325311 16.507051553748322  13.1873508325311 12.784315145784452  13.1873508325311 12.784315145784452  C 13.1873508325311 12.784315145784452  9.788596186128256 12.971910586939586  9.788596186128256 12.971910586939586  C 9.788596186128256 12.971910586939586  11.590071801258542 11.97918126529517  11.590071801258542 11.97918126529517  C 11.590071801258542 11.97918126529517  16.359856290166956 11.97918126529517  16.359856290166956 11.97918126529517  C 16.359856290166956 11.97918126529517  15.776439660843032 12.555111193736659  15.776439660843032 12.555111193736659  C 15.619201698709151 12.692341532911936  15.59786075404264 12.739057391125266  15.553748821760156 12.923004374904085  C 15.530269784942103 13.133229540270575  15.5082118725301 13.801863169279526  15.5082118725301 14.036906507195573  Z M 86.45167857988511 17.70562444086446  C 86.45167857988511 17.70562444086446  86.45167857988511 1.740926615246458  86.45167857988511 1.740926615246458  C 86.45167857988511 1.740926615246458  87.665472891231 1.740926615246458  87.665472891231 1.740926615246458  C 87.665472891231 1.740926615246458  87.665472891231 17.70562444086446  87.665472891231 17.70562444086446  C 87.665472891231 17.70562444086446  86.45167857988511 17.70562444086446  86.45167857988511 17.70562444086446  Z M 101.0847578724858 22.231306386839638  C 101.0847578724858 22.231306386839638  101.29323440269104 21.081637776029254  101.29323440269104 21.081637776029254  C 101.5529251166558 21.200619348165173  101.99618131800935 21.273611837870092  102.27721735761406 21.273611837870092  C 103.02000638916937 21.273611837870092  103.53724256438606 20.96192607839117  104.0018410191054 19.861164042565612  C 104.0018410191054 19.861164042565612  104.88764101214363 17.801981196166388  104.88764101214363 17.801981196166388  C 104.88764101214363 17.801981196166388  100.1036307604423 6.149084601145983  100.1036307604423 6.149084601145983  C 100.1036307604423 6.149084601145983  101.4582929579953 6.149084601145983  101.4582929579953 6.149084601145983  C 101.4582929579953 6.149084601145983  105.56212390398413 16.24719144971137  105.56212390398413 16.24719144971137  C 105.56212390398413 16.24719144971137  109.6261257685302 6.149084601145983  109.6261257685302 6.149084601145983  C 109.6261257685302 6.149084601145983  111 6.149084601145983  111 6.149084601145983  C 111 6.149084601145983  105.16511592806914 20.247307283779374  105.16511592806914 20.247307283779374  C 104.5596436513897 21.699904412697272  103.60697039150858 22.39846439333533  102.2985521838317 22.39846439333533  C 101.90581335656283 22.39846439333533  101.38784982789718 22.326929689603897  101.0847578724858 22.231306386839638  Z M 51.465175075674956 21.307189006046134  C 51.465175075674956 20.050947826198723  50.67329396661916 19.38815492899511  48.851895578265875 18.05599926782958  C 48.654814649799725 18.029721186431047  48.536711778170734 18.02972367225587  48.299076174659206 18.02972367225587  C 48.0813621512545 18.02972367225587  46.78432618241553 18.07790084007574  45.77971114670271 18.4238963204565  C 45.24823283317358 18.62317224223455  43.712141989475604 19.21223835031381  43.712141989475604 20.961924505610753  C 43.712141989475604 22.707960842471397  45.37060592725326 23.96712170769149  47.93621613820205 23.96712170769149  C 50.24142349396836 23.96712170769149  51.465175075674956 22.83351094298997  51.465175075674956 21.307189006046134  Z M 36.219502213529324 16.967646832457014  C 37.15866068854696 16.967646832457014  38.117030779890726 16.501210912680314  38.669853583878506 15.714326668796485  C 39.250424332842975 14.925982400751654  39.391297528417056 13.942013103090153  39.391297528417056 12.982861010113336  C 39.391297528417056 10.8134545664097  38.383833569898535 6.676106381822228  35.40627422778253 6.676106381822228  C 34.61439288010351 6.676106381822228  33.8168212631008 6.993635020556675  33.241942394166855 7.511898350030421  C 32.30420682950104 8.37396736560964  32.13700609375811 9.457209837401798  32.13700609375811 10.520014632568298  C 32.13700609375811 12.953662462622994  33.30953385729206 16.967646832457014  36.219502213529324 16.967646832457014  Z M 23.444813041145903 16.967646832457014  C 24.381837090979996 16.967646832457014  25.33878051365599 16.501210912680314  25.893026347307202 15.714326668796485  C 26.469328126592973 14.925982400751654  26.61305000634953 13.942013103090153  26.61305000634953 12.982861010113336  C 26.61305000634953 10.8134545664097  25.602740227127356 6.676106381822228  22.628026705715 6.676106381822228  C 21.833299418020715 6.676106381822228  21.04426514381732 6.993635020556675  20.467963364531553 7.511898350030421  C 19.5288047702023 8.37396736560964  19.362316921374685 9.457209837401798  19.362316921374685 10.520014632568298  C 19.362316921374685 12.953662462622994  20.53982499045163 16.967646832457014  23.444813041145903 16.967646832457014  Z M 61.14064094046207 11.452159484618923  C 61.14064094046207 11.452159484618923  65.51128702521113 9.506116170420407  65.51128702521113 9.506116170420407  C 65.96948300973328 9.335308239628205  66.20783015790443 9.187859455335204  66.20783015790443 8.844783781310236  C 66.20783015790443 7.860813394800754  65.12282092593692 6.724282823743444  63.82792036660233 6.724282823743444  C 62.86883983423141 6.724282823743444  61.06806893317063 7.490729935425604  61.06806893317063 10.152121451400872  C 61.06806893317063 10.567462060519661  61.11645119416571 11.009810787692182  61.14064094046207 11.452159484618923  Z M 79.54815184713473 16.86691532792888  C 82.06751568197505 16.86691532792888  83.4883521592591 14.715757734440487  83.4883521592591 11.914946009400214  C 83.4883521592591 9.118513872910516  82.06751568197505 6.985604403738716  79.54815184713473 6.985604403738716  C 77.98359903808436 6.985604403738716  76.48734849112122 8.246955547166532  75.83705274868514 9.346987570911587  C 75.83705274868514 9.346987570911587  75.83705274868514 14.457356686699663  75.83705274868514 14.457356686699663  C 76.48734849112122 15.559578625703116  77.98359903808436 16.86691532792888  79.54815184713473 16.86691532792888  Z M 47.91273561185302 14.065373348841884  C 48.51465085127614 14.065373348841884  49.16210745445916 13.765364606844384  49.542039790282594 13.375572182355652  C 50.09699707910972 12.806942374719183  50.1453709603279 12.021518064259027  50.1453709603279 11.5755196698791  C 50.1453709603279 9.803934966913733  49.115859407988054 7.044731268833683  47.12014758146279 7.044731268833683  C 46.49759936641274 7.044731268833683  45.823109942261176 7.365178685567493  45.44033163659458 7.860813636766972  C 45.034074415285794 8.37396736560964  44.91241304483317 9.03967934327039  44.91241304483317 9.679844043674398  C 44.91241304483317 11.329527254726395  45.85014437393656 14.065373348841884  47.91273561185302 14.065373348841884  Z M 91.57079984926234 16.15959483937547  C 92.02472614823608 16.563256313808427  92.64513713427958 16.763264742943605  93.43630666884783 16.763264742943605  C 94.46795843298469 16.763264742943605  95.20932700007631 16.52676021640413  95.96705688860479 16.05886333484733  C 96.71980748573901 15.593886289892101  97.23207949230898 14.987298757664135  97.5003085333939 14.252970725726763  C 97.5003085333939 14.252970725726763  97.5003085333939 12.033927573974687  97.5003085333939 12.033927573974687  C 97.5003085333939 12.033927573974687  94.65437710856949 12.033927573974687  94.65437710856949 12.033927573974687  C 93.56722969310249 12.033927573974687  92.66719701719752 12.28065027341989  91.95927084031288 12.778475049140436  C 91.24992145479739 13.274839921683085  90.89062054354984 13.875588355377683  90.89062054354984 14.574148940931284  C 90.89062054354984 15.233292201173269  91.11829574477072 15.760313195459306  91.57079984926234 16.15959483937547  Z " fill-rule="nonzero" fill="rgba(155, 155, 155, 1)" stroke="none" transform="matrix(1 0 0 1 45 15 )" class="fill" />
    <path d="M 52.044323212566646 7.120644782286926  C 52.044323212566646 7.120644782286926  50.553053985295236 7.120644782286926  50.553053985295236 7.120644782286926  C 51.10445387893118 7.585621948225269  52.254922535072716 8.57251359288785  52.254922535072716 10.444101119115052  C 52.254922535072716 12.268241973535323  51.25244186488762 13.128120831889925  50.24142349396836 13.942013163581708  C 49.931216658690914 14.262460459332408  49.56836088762409 14.609915842891063  49.56836088762409 15.147157853185893  C 49.56836088762409 15.692429270467592  49.93121746404434 15.988058590266292  50.19233201302596 16.208502987140715  C 50.19233201302596 16.208502987140715  51.0596301148955 16.89538216957519  51.0596301148955 16.89538216957519  C 52.114048921907965 17.808547554414524  53.075267220187726 18.645799546783724  53.075267220187726 20.346579248078946  C 53.075267220187726 22.663435307834455  50.889588629192666 25  46.759425609193514 25  C 43.28027020439701 25  41.59832192229857 23.29995091570083  41.59832192229857 21.477269964458454  C 41.59832192229857 20.59038277632968  42.028771393583426 19.334141294024494  43.44889283634302 18.473532302606284  C 44.93731683946887 17.539928394259523  46.95365669018893 17.415108578033447  48.03368895733874 17.342113751842234  C 47.696445632260506 16.895385345381804  47.311534870052064 16.427486830553033  47.311534870052064 15.66396091653242  C 47.311534870052064 15.246430513138339  47.43390734520272 14.99751820089251  47.55201363958374 14.704078992949762  C 47.2894761802503 14.729627173799098  47.02480787508185 14.755904285442398  46.78432642103877 14.755904285442398  C 44.237926096397665 14.755904285442398  42.798592977656135 12.806942253736075  42.798592977656135 10.886448273507153  C 42.798592977656135 9.75356848875101  43.30232591140834 8.49659802272175  44.33682325762559 7.585622553140814  C 45.705717899422105 6.4293843175383465  47.33786252953252 6.2301084411289605  48.634897335083224 6.2301084411289605  C 48.634897335083224 6.2301084411289605  53.58255349253611 6.2301084411289605  53.58255349253611 6.2301084411289605  C 53.58255349253611 6.2301084411289605  52.044323212566646 7.120644782286926  52.044323212566646 7.120644782286926  Z " stroke-width="0" stroke-dasharray="0" stroke="rgba(121, 121, 121, 1)" fill="none" transform="matrix(1 0 0 1 45 15 )" class="stroke" mask="url(#Clip162)" />
    <path d="M 68.87162905769569 15.704107951466764  C 68.87162905769569 15.704107951466764  69.02744323701154 15.620894181102502  68.91645204620586 15.734766039185674  C 68.91645204620586 15.734766039185674  67.76811304278316 16.846477893269437  67.76811304278316 16.846477893269437  C 67.50272943463912 16.996117258227937  67.23877377776276 17.16984431484594  66.97552501239294 17.293205604076988  C 66.17795196365081 17.664749359825137  65.36686013310602 17.758183374930876  64.64612698752947 17.758183374930876  C 63.879148181714164 17.758183374930876  62.67673900251291 17.707087489603197  61.450141003544594 16.796841911119653  C 59.74613761099291 15.565419085296462  59.00120991869165 13.448567825182852  59.00120991869165 11.603988447255158  C 59.00120991869165 7.784898671516419  62.031418614187686 5.911851242111321  64.50311340119096 5.911851242111321  C 65.36685416752513 5.911851242111321  66.25408023267305 6.133755527040751  66.97552501239294 6.601652408597551  C 68.17508687949532 7.415544740289334  68.48529271553797 8.473238966959881  68.6574713855055 9.039678859337954  C 68.6574713855055 9.039678859337954  63.01327209535931 11.379165051622815  63.01327209535931 11.379165051622815  C 63.01327209535931 11.379165051622815  61.164831609559215 11.5266134578436  61.164831609559215 11.5266134578436  C 61.76318981172601 14.658091861371398  63.827919173486166 16.47931254648655  66.10964719601962 16.47931254648655  C 67.24944372624344 16.47931254648655  68.09540032044478 16.09755007340868  68.87162905769569 15.704107951466764  Z " stroke-width="0" stroke-dasharray="0" stroke="rgba(121, 121, 121, 1)" fill="none" transform="matrix(1 0 0 1 45 15 )" class="stroke" mask="url(#Clip162)" />
    <path d="M 79.75305475576882 17.993223552163194  C 78.16786926937057 17.993223552163194  76.74775182355017 17.154515044143157  75.83705274868514 15.83987810012926  C 75.83705274868514 15.83987810012926  75.83705274868514 22.113784362493735  75.83705274868514 22.113784362493735  C 75.83705274868514 22.113784362493735  74.62254829459113 22.113784362493735  74.62254829459113 22.113784362493735  C 74.62254829459113 22.113784362493735  74.62254829459113 6.149084601145983  74.62254829459113 6.149084601145983  C 74.62254829459113 6.149084601145983  75.83705274868514 6.149084601145983  75.83705274868514 6.149084601145983  C 75.83705274868514 6.149084601145983  75.83705274868514 7.9673852379391255  75.83705274868514 7.9673852379391255  C 76.6282222832534 6.792168502990238  78.07395265230888 5.8607557197329685  79.75305475576882 5.8607557197329685  C 82.76476466219825 5.8607557197329685  84.79321273312158 8.204618596973788  84.79321273312158 11.914946009400214  C 84.79321273312158 15.600455188785528  82.76476466219825 17.993223552163194  79.75305475576882 17.993223552163194  Z " stroke-width="0" stroke-dasharray="0" stroke="rgba(121, 121, 121, 1)" fill="none" transform="matrix(1 0 0 1 45 15 )" class="stroke" mask="url(#Clip162)" />
    <path d="M 99.14525876011264 17.67131943830388  C 99.14525876011264 17.67131943830388  97.74577357404945 17.67131943830388  97.74577357404945 17.67131943830388  C 97.66466501439818 17.270577770226712  97.6034715845694 16.91728147338805  97.55864714194888 16.622382332021633  C 97.52165041018243 16.32821320273571  97.5003085333939 16.027474660378154  97.5003085333939 15.721626305669071  C 97.08409055185962 16.348651998455132  96.49426509899484 16.87056451120385  95.74080388186603 17.28152541078895  C 94.9866310902497 17.69540611672985  94.27017824895552 17.89833020854933  93.28761957646792 17.89833020854933  C 92.10442177496957 17.89833020854933  91.18589233829547 17.599783396196802  90.53061634997222 16.993926299490223  C 89.8774741902744 16.388799093881033  89.54877145923706 15.569067209969226  89.54877145923706 14.531810659924338  C 89.54877145923706 13.496014013057348  90.0247485734458 12.655113109625177  90.97386759989361 12.01202866335693  C 91.92298662634143 11.36602435024134  93.14958653429564 11.04484710290169  94.66789272861429 11.04484710290169  C 94.66789272861429 11.04484710290169  97.5003085333939 11.04484710290169  97.5003085333939 11.04484710290169  C 97.5003085333939 11.04484710290169  97.5003085333939 9.609038921021144  97.5003085333939 9.609038921021144  C 97.5003085333939 8.782007400236749  97.22567776780939 8.131623196112807  96.67712327728643 7.660076526365491  C 96.126434958138 7.187800056258113  95.35376188605983 6.949108155105534  94.35199374485519 6.949108155105534  C 93.43631340995424 6.949108155105534  92.69351686176702 7.167362470369784  92.12788774530125 7.592192419899116  C 91.56723887472265 8.02578166751271  91.28478794847238 8.563023496332876  91.28478794847238 9.210487652134807  C 91.28478794847238 9.210487652134807  90.04182433284899 9.210487652134807  90.04182433284899 9.210487652134807  C 90.04182433284899 9.210487652134807  90.01621337825561 9.148441706582705  90.01621337825561 9.148441706582705  C 89.97138993486989 8.275423538152381  90.36056961455822 7.509707890348033  91.1880252720838 6.848374714847651  C 92.01192287820433 6.187771430444662  93.09124780642904 5.855645393203234  94.41958711696628 5.855645393203234  C 95.74365877025262 5.855645393203234  96.81514856420357 6.1826612248980375  97.62268216437586 6.835234981331048  C 98.42950514455357 7.481239294446638  98.83433841153388 8.414844775573817  98.83433841153388 9.635318388054348  C 98.83433841153388 9.635318388054348  98.83433841153388 15.336214770299339  98.83433841153388 15.336214770299339  C 98.83433841153388 15.745715766706548  98.85354835376889 16.141348439068185  98.9033520691412 16.526761154023227  C 98.95457900432984 16.912903760075668  99.03640239716721 17.298315779377834  99.14525876011264 17.67131943830388  Z " stroke-width="0" stroke-dasharray="0" stroke="rgba(121, 121, 121, 1)" fill="none" transform="matrix(1 0 0 1 45 15 )" class="stroke" mask="url(#Clip162)" />
    <path d="M 41.76765660597857 11.723699781943916  C 41.76765660597857 14.631083834055  39.58268791910839 17.707087852552522  35.667392952670774 17.707087852552522  C 31.850994192968134 17.707087852552522  29.809035990334408 14.658092345303833  29.809035990334408 11.897427655197907  C 29.809035990334408 8.671785920136745  32.376070304751195 5.911851242111321  36.02740478219194 5.911851242111321  C 39.5570755327756 5.911851242111321  41.76765660597857 8.746970631340579  41.76765660597857 11.723699781943916  Z " stroke-width="0" stroke-dasharray="0" stroke="rgba(121, 121, 121, 1)" fill="none" transform="matrix(1 0 0 1 45 15 )" class="stroke" mask="url(#Clip162)" />
    <path d="M 28.987981162471275 11.723699781943916  C 28.987981162471275 14.631083834055  26.805861875653267 17.707087852552522  22.889855573351355 17.707087852552522  C 19.07274523916119 17.707087852552522  17.034342999979227 14.658092345303833  17.034342999979227 11.897427655197907  C 17.034342999979227 8.671785920136745  19.60208626402795 5.911851242111321  23.251997831116867 5.911851242111321  C 26.779534096861184 5.911851242111321  28.987981162471275 8.746970631340579  28.987981162471275 11.723699781943916  Z " stroke-width="0" stroke-dasharray="0" stroke="rgba(121, 121, 121, 1)" fill="none" transform="matrix(1 0 0 1 45 15 )" class="stroke" mask="url(#Clip162)" />
    <path d="M 57.12075955762159 1.5737686087507683  C 57.12075955762159 1.5737686087507683  57.11507077969313 15.544249581843662  57.11507077969313 15.544249581843662  C 57.11507077969313 16.50121188054519  57.28155886714397 16.650120447032975  58.07059457308678 16.725305082622366  C 58.481832278905976 16.77494153736242  58.891640899997164 16.796841336449884  59.297186725785835 16.846477893269437  C 59.297186725785835 16.846477893269437  58.40925630450326 17.38883065353488  58.40925630450326 17.38883065353488  C 58.40925630450326 17.38883065353488  54.178065456408596 17.38883065353488  54.178065456408596 17.38883065353488  C 54.73302280489153 16.650122912063825  54.82835767915196 16.576396228799695  54.82835767915196 16.084411096036508  C 54.82835767915196 16.084411096036508  54.82835767915196 15.534760634628222  54.82835767915196 15.534760634628222  C 54.82835767915196 15.534760634628222  54.81911055153939 0.8890768009293981  54.81911055153939 0.8890768009293981  C 54.81911055153939 0.8890768009293981  52.9507555250179 0.8890768009293981  52.9507555250179 0.8890768009293981  C 52.9507555250179 0.8890768009293981  54.74938675118395 0  54.74938675118395 0  C 54.74938675118395 0  58.183003297764515 0  58.183003297764515 0  C 57.438790997922546 0.44234869692674256  57.21609832442355 0.7116997141546598  57.12075955762159 1.5737686087507683  Z " stroke-width="0" stroke-dasharray="0" stroke="rgba(121, 121, 121, 1)" fill="none" transform="matrix(1 0 0 1 45 15 )" class="stroke" mask="url(#Clip162)" />
    <path d="M 15.5082118725301 14.036906507195573  C 15.5082118725301 14.036906507195573  15.5082118725301 16.852316054183706  15.5082118725301 16.852316054183706  C 15.5082118725301 16.852316054183706  12.289459322916072 17.608543722637492  12.289459322916072 17.608543722637492  C 10.985309607671413 17.819498779101373  9.814207975902956 18.00490374545123  8.574091732034242 18.00490374545123  C 2.3656849830021147 18.00490374545123  0 13.316446769057997  0 9.646996645612639  C 0 5.165843742784568  3.3518021841412597 1.01097841382588  9.092053053434956 1.01097841382588  C 10.306555837166325 1.01097841382588  11.474809381310402 1.1941950830664219  12.539189038032088 1.4920140307886334  C 14.226116909803823 1.978159550840238  15.015153600067475 2.57744774865339  15.5082118725301 2.9285529506483376  C 15.5082118725301 2.9285529506483376  13.638432742540612 4.750504373742647  13.638432742540612 4.750504373742647  C 13.638432742540612 4.750504373742647  12.850109386610848 4.931529948139477  12.850109386610848 4.931529948139477  C 12.850109386610848 4.931529948139477  13.412179735801857 4.012524829605453  13.412179735801857 4.012524829605453  C 12.650892094147366 3.249728806682232  11.251402911144996 1.8416600555043405  8.59543419419539 1.8416600555043405  C 5.044418833841456 1.8416600555043405  2.3656840285091736 4.611083680745203  2.3656840285091736 8.65426732396822  C 2.3656840285091736 12.996730029811786  5.424353794520475 17.08152194196125  10.330034215906235 17.08152194196125  C 11.771500149124474 17.08152194196125  12.513575756862167 16.784431826734224  13.1873508325311 16.507051553748322  C 13.1873508325311 16.507051553748322  13.1873508325311 12.784315145784452  13.1873508325311 12.784315145784452  C 13.1873508325311 12.784315145784452  9.788596186128256 12.971910586939586  9.788596186128256 12.971910586939586  C 9.788596186128256 12.971910586939586  11.590071801258542 11.97918126529517  11.590071801258542 11.97918126529517  C 11.590071801258542 11.97918126529517  16.359856290166956 11.97918126529517  16.359856290166956 11.97918126529517  C 16.359856290166956 11.97918126529517  15.776439660843032 12.555111193736659  15.776439660843032 12.555111193736659  C 15.619201698709151 12.692341532911936  15.59786075404264 12.739057391125266  15.553748821760156 12.923004374904085  C 15.530269784942103 13.133229540270575  15.5082118725301 13.801863169279526  15.5082118725301 14.036906507195573  Z " stroke-width="0" stroke-dasharray="0" stroke="rgba(121, 121, 121, 1)" fill="none" transform="matrix(1 0 0 1 45 15 )" class="stroke" mask="url(#Clip162)" />
    <path d="M 86.45167857988511 17.70562444086446  C 86.45167857988511 17.70562444086446  86.45167857988511 1.740926615246458  86.45167857988511 1.740926615246458  C 86.45167857988511 1.740926615246458  87.665472891231 1.740926615246458  87.665472891231 1.740926615246458  C 87.665472891231 1.740926615246458  87.665472891231 17.70562444086446  87.665472891231 17.70562444086446  C 87.665472891231 17.70562444086446  86.45167857988511 17.70562444086446  86.45167857988511 17.70562444086446  Z " stroke-width="0" stroke-dasharray="0" stroke="rgba(121, 121, 121, 1)" fill="none" transform="matrix(1 0 0 1 45 15 )" class="stroke" mask="url(#Clip162)" />
    <path d="M 101.0847578724858 22.231306386839638  C 101.0847578724858 22.231306386839638  101.29323440269104 21.081637776029254  101.29323440269104 21.081637776029254  C 101.5529251166558 21.200619348165173  101.99618131800935 21.273611837870092  102.27721735761406 21.273611837870092  C 103.02000638916937 21.273611837870092  103.53724256438606 20.96192607839117  104.0018410191054 19.861164042565612  C 104.0018410191054 19.861164042565612  104.88764101214363 17.801981196166388  104.88764101214363 17.801981196166388  C 104.88764101214363 17.801981196166388  100.1036307604423 6.149084601145983  100.1036307604423 6.149084601145983  C 100.1036307604423 6.149084601145983  101.4582929579953 6.149084601145983  101.4582929579953 6.149084601145983  C 101.4582929579953 6.149084601145983  105.56212390398413 16.24719144971137  105.56212390398413 16.24719144971137  C 105.56212390398413 16.24719144971137  109.6261257685302 6.149084601145983  109.6261257685302 6.149084601145983  C 109.6261257685302 6.149084601145983  111 6.149084601145983  111 6.149084601145983  C 111 6.149084601145983  105.16511592806914 20.247307283779374  105.16511592806914 20.247307283779374  C 104.5596436513897 21.699904412697272  103.60697039150858 22.39846439333533  102.2985521838317 22.39846439333533  C 101.90581335656283 22.39846439333533  101.38784982789718 22.326929689603897  101.0847578724858 22.231306386839638  Z " stroke-width="0" stroke-dasharray="0" stroke="rgba(121, 121, 121, 1)" fill="none" transform="matrix(1 0 0 1 45 15 )" class="stroke" mask="url(#Clip162)" />
    <path d="M 51.465175075674956 21.307189006046134  C 51.465175075674956 20.050947826198723  50.67329396661916 19.38815492899511  48.851895578265875 18.05599926782958  C 48.654814649799725 18.029721186431047  48.536711778170734 18.02972367225587  48.299076174659206 18.02972367225587  C 48.0813621512545 18.02972367225587  46.78432618241553 18.07790084007574  45.77971114670271 18.4238963204565  C 45.24823283317358 18.62317224223455  43.712141989475604 19.21223835031381  43.712141989475604 20.961924505610753  C 43.712141989475604 22.707960842471397  45.37060592725326 23.96712170769149  47.93621613820205 23.96712170769149  C 50.24142349396836 23.96712170769149  51.465175075674956 22.83351094298997  51.465175075674956 21.307189006046134  Z " stroke-width="0" stroke-dasharray="0" stroke="rgba(121, 121, 121, 1)" fill="none" transform="matrix(1 0 0 1 45 15 )" class="stroke" mask="url(#Clip162)" />
    <path d="M 36.219502213529324 16.967646832457014  C 37.15866068854696 16.967646832457014  38.117030779890726 16.501210912680314  38.669853583878506 15.714326668796485  C 39.250424332842975 14.925982400751654  39.391297528417056 13.942013103090153  39.391297528417056 12.982861010113336  C 39.391297528417056 10.8134545664097  38.383833569898535 6.676106381822228  35.40627422778253 6.676106381822228  C 34.61439288010351 6.676106381822228  33.8168212631008 6.993635020556675  33.241942394166855 7.511898350030421  C 32.30420682950104 8.37396736560964  32.13700609375811 9.457209837401798  32.13700609375811 10.520014632568298  C 32.13700609375811 12.953662462622994  33.30953385729206 16.967646832457014  36.219502213529324 16.967646832457014  Z " stroke-width="0" stroke-dasharray="0" stroke="rgba(121, 121, 121, 1)" fill="none" transform="matrix(1 0 0 1 45 15 )" class="stroke" mask="url(#Clip162)" />
    <path d="M 23.444813041145903 16.967646832457014  C 24.381837090979996 16.967646832457014  25.33878051365599 16.501210912680314  25.893026347307202 15.714326668796485  C 26.469328126592973 14.925982400751654  26.61305000634953 13.942013103090153  26.61305000634953 12.982861010113336  C 26.61305000634953 10.8134545664097  25.602740227127356 6.676106381822228  22.628026705715 6.676106381822228  C 21.833299418020715 6.676106381822228  21.04426514381732 6.993635020556675  20.467963364531553 7.511898350030421  C 19.5288047702023 8.37396736560964  19.362316921374685 9.457209837401798  19.362316921374685 10.520014632568298  C 19.362316921374685 12.953662462622994  20.53982499045163 16.967646832457014  23.444813041145903 16.967646832457014  Z " stroke-width="0" stroke-dasharray="0" stroke="rgba(121, 121, 121, 1)" fill="none" transform="matrix(1 0 0 1 45 15 )" class="stroke" mask="url(#Clip162)" />
    <path d="M 61.14064094046207 11.452159484618923  C 61.14064094046207 11.452159484618923  65.51128702521113 9.506116170420407  65.51128702521113 9.506116170420407  C 65.96948300973328 9.335308239628205  66.20783015790443 9.187859455335204  66.20783015790443 8.844783781310236  C 66.20783015790443 7.860813394800754  65.12282092593692 6.724282823743444  63.82792036660233 6.724282823743444  C 62.86883983423141 6.724282823743444  61.06806893317063 7.490729935425604  61.06806893317063 10.152121451400872  C 61.06806893317063 10.567462060519661  61.11645119416571 11.009810787692182  61.14064094046207 11.452159484618923  Z " stroke-width="0" stroke-dasharray="0" stroke="rgba(121, 121, 121, 1)" fill="none" transform="matrix(1 0 0 1 45 15 )" class="stroke" mask="url(#Clip162)" />
    <path d="M 79.54815184713473 16.86691532792888  C 82.06751568197505 16.86691532792888  83.4883521592591 14.715757734440487  83.4883521592591 11.914946009400214  C 83.4883521592591 9.118513872910516  82.06751568197505 6.985604403738716  79.54815184713473 6.985604403738716  C 77.98359903808436 6.985604403738716  76.48734849112122 8.246955547166532  75.83705274868514 9.346987570911587  C 75.83705274868514 9.346987570911587  75.83705274868514 14.457356686699663  75.83705274868514 14.457356686699663  C 76.48734849112122 15.559578625703116  77.98359903808436 16.86691532792888  79.54815184713473 16.86691532792888  Z " stroke-width="0" stroke-dasharray="0" stroke="rgba(121, 121, 121, 1)" fill="none" transform="matrix(1 0 0 1 45 15 )" class="stroke" mask="url(#Clip162)" />
    <path d="M 47.91273561185302 14.065373348841884  C 48.51465085127614 14.065373348841884  49.16210745445916 13.765364606844384  49.542039790282594 13.375572182355652  C 50.09699707910972 12.806942374719183  50.1453709603279 12.021518064259027  50.1453709603279 11.5755196698791  C 50.1453709603279 9.803934966913733  49.115859407988054 7.044731268833683  47.12014758146279 7.044731268833683  C 46.49759936641274 7.044731268833683  45.823109942261176 7.365178685567493  45.44033163659458 7.860813636766972  C 45.034074415285794 8.37396736560964  44.91241304483317 9.03967934327039  44.91241304483317 9.679844043674398  C 44.91241304483317 11.329527254726395  45.85014437393656 14.065373348841884  47.91273561185302 14.065373348841884  Z " stroke-width="0" stroke-dasharray="0" stroke="rgba(121, 121, 121, 1)" fill="none" transform="matrix(1 0 0 1 45 15 )" class="stroke" mask="url(#Clip162)" />
    <path d="M 91.57079984926234 16.15959483937547  C 92.02472614823608 16.563256313808427  92.64513713427958 16.763264742943605  93.43630666884783 16.763264742943605  C 94.46795843298469 16.763264742943605  95.20932700007631 16.52676021640413  95.96705688860479 16.05886333484733  C 96.71980748573901 15.593886289892101  97.23207949230898 14.987298757664135  97.5003085333939 14.252970725726763  C 97.5003085333939 14.252970725726763  97.5003085333939 12.033927573974687  97.5003085333939 12.033927573974687  C 97.5003085333939 12.033927573974687  94.65437710856949 12.033927573974687  94.65437710856949 12.033927573974687  C 93.56722969310249 12.033927573974687  92.66719701719752 12.28065027341989  91.95927084031288 12.778475049140436  C 91.24992145479739 13.274839921683085  90.89062054354984 13.875588355377683  90.89062054354984 14.574148940931284  C 90.89062054354984 15.233292201173269  91.11829574477072 15.760313195459306  91.57079984926234 16.15959483937547  Z " stroke-width="0" stroke-dasharray="0" stroke="rgba(121, 121, 121, 1)" fill="none" transform="matrix(1 0 0 1 45 15 )" class="stroke" mask="url(#Clip162)" />
  </g>
</svg>