<?xml version="1.0" encoding="utf-8"?>
<svg version="1.1" xmlns:xlink="http://www.w3.org/1999/xlink" width="19px" height="19px" xmlns="http://www.w3.org/2000/svg">
  <defs>
    <pattern id="BGPattern" patternUnits="userSpaceOnUse" alignment="0 0" imageRepeat="None" />
    <mask fill="white" id="Clip146">
      <path d="M 9.672688484191895 0  C 14.824855327606201 0  19 4.143689155578613  19 9.255322456359863  C 19 14.366955757141113  14.824432849884033 18.510644912719727  9.672688484191895 18.510644912719727  C 8.037210702896118 18.510644912719727  6.500744581222534 18.092644691467285  5.163989067077637 17.359033584594727  C 5.163989067077637 17.359033584594727  0 19  0 19  C 0 19  1.6836111545562744 14.034244537353516  1.6836111545562744 14.034244537353516  C 0.8343111276626588 12.639644503593445  0.3451666533946991 11.003955841064453  0.3451666533946991 9.255322456359863  C 0.3451666533946991 4.143689155578613  4.52115535736084 0  9.672688484191895 0  Z M 17.514833450317383 9.255743980407715  C 17.514833450317383 4.965121746063232  13.996877193450928 1.47397780418396  9.672688484191895 1.47397780418396  C 5.348288536071777 1.47397780418396  1.830755591392517 4.964700222015381  1.830755591392517 9.255322456359863  C 1.830755591392517 10.95793354511261  2.3857666850090027 12.534722208976746  3.324577808380127 13.81743335723877  C 3.324577808380127 13.81743335723877  2.344811201095581 16.707332611083984  2.344811201095581 16.707332611083984  C 2.344811201095581 16.707332611083984  5.35842227935791 15.74952220916748  5.35842227935791 15.74952220916748  C 6.596588969230652 16.562511086463928  8.079855799674988 17.036666870117188  9.672900199890137 17.036666870117188  C 13.99666690826416 17.036666870117188  17.514833450317383 13.546366214752199  17.514833450317383 9.255743980407715  Z M 14.249577522277832 12.465900421142578  C 14.439577519893646 11.93558931350708  14.43957755714655 11.481489188969135  14.38278865814209 11.386911392211914  C 14.325155358761549 11.292544692754745  14.172944098711014 11.235544674098492  13.944521903991701 11.122178077697754  C 13.715677499771118 11.008811376988888  12.59130038321018 10.45971079915762  12.38230037689209 10.384344100952148  C 12.172667071223259 10.308766402304173  12.019822031259537 10.270766779780388  11.867610931396486 10.497711181640625  C 11.715399831533432 10.724866777658463  11.277133628726006 11.235544696450233  11.143500328063965 11.386911392211914  C 11.010078132152557 11.538700297474861  10.876867145299911 11.557700112462044  10.648022651672363 11.444122314453125  C 10.419600456953049 11.330755718052387  9.683033287525177 11.090933442115784  8.809666633605957 10.318266868591309  C 8.130099952220917 9.717022359371185  7.671144336462021 8.974755510687828  7.53772211074829 8.74738883972168  C 7.404511004686356 8.520444393157959  7.523788899183273 8.397788845002651  7.638000011444092 8.284844398498535  C 7.741022229194641 8.183088846504688  7.866844616830349 8.019899860024452  7.981055736541748 7.887533187866211  C 8.095689065754414 7.754955410957336  8.133688531816006 7.660589054226875  8.209477424621582 7.509011268615722  C 8.286110751330853 7.357644602656364  8.24789959192276 7.225277706980705  8.19047737121582 7.1114888191223145  C 8.133477371186018 6.998122148215771  7.675789043307304 5.881766527891159  7.4853668212890625 5.427455425262451  C 7.294944584369659 4.97356653213501  7.104733183979988 5.049144268035889  6.971099853515625 5.049144268035889  C 6.83788874745369 5.049144268035889  6.685255333781242 5.030144214630127  6.532833099365234 5.030144214630127  C 6.380410879850388 5.030144214630127  6.132566437125206 5.086933135986328  5.922933101654053 5.313877582550048  C 5.713510885834693 5.541033133864403  5.12303352355957 6.089922189712524  5.12303352355957 7.206066608428955  C 5.12303352355957 8.32242214679718  5.941933378577232 9.40098850429058  6.0565667152404785 9.552144050598145  C 6.170777827501297 9.703299611806871  7.637788534164429 12.06858915090561  9.962121963500977 12.97700023651123  C 12.28666639328003 13.884989142417908  12.286666959524155 13.58204449340701  12.705933570861816 13.544044494628906  C 13.124778062105179 13.506255693733692  14.058310821652412 12.995367109775543  14.249577522277832 12.465900421142578  Z " fill-rule="evenodd" />
    </mask>
  </defs>
  <g>
    <path d="M 9.672688484191895 0  C 14.824855327606201 0  19 4.143689155578613  19 9.255322456359863  C 19 14.366955757141113  14.824432849884033 18.510644912719727  9.672688484191895 18.510644912719727  C 8.037210702896118 18.510644912719727  6.500744581222534 18.092644691467285  5.163989067077637 17.359033584594727  C 5.163989067077637 17.359033584594727  0 19  0 19  C 0 19  1.6836111545562744 14.034244537353516  1.6836111545562744 14.034244537353516  C 0.8343111276626588 12.639644503593445  0.3451666533946991 11.003955841064453  0.3451666533946991 9.255322456359863  C 0.3451666533946991 4.143689155578613  4.52115535736084 0  9.672688484191895 0  Z M 17.514833450317383 9.255743980407715  C 17.514833450317383 4.965121746063232  13.996877193450928 1.47397780418396  9.672688484191895 1.47397780418396  C 5.348288536071777 1.47397780418396  1.830755591392517 4.964700222015381  1.830755591392517 9.255322456359863  C 1.830755591392517 10.95793354511261  2.3857666850090027 12.534722208976746  3.324577808380127 13.81743335723877  C 3.324577808380127 13.81743335723877  2.344811201095581 16.707332611083984  2.344811201095581 16.707332611083984  C 2.344811201095581 16.707332611083984  5.35842227935791 15.74952220916748  5.35842227935791 15.74952220916748  C 6.596588969230652 16.562511086463928  8.079855799674988 17.036666870117188  9.672900199890137 17.036666870117188  C 13.99666690826416 17.036666870117188  17.514833450317383 13.546366214752199  17.514833450317383 9.255743980407715  Z M 14.249577522277832 12.465900421142578  C 14.439577519893646 11.93558931350708  14.43957755714655 11.481489188969135  14.38278865814209 11.386911392211914  C 14.325155358761549 11.292544692754745  14.172944098711014 11.235544674098492  13.944521903991701 11.122178077697754  C 13.715677499771118 11.008811376988888  12.59130038321018 10.45971079915762  12.38230037689209 10.384344100952148  C 12.172667071223259 10.308766402304173  12.019822031259537 10.270766779780388  11.867610931396486 10.497711181640625  C 11.715399831533432 10.724866777658463  11.277133628726006 11.235544696450233  11.143500328063965 11.386911392211914  C 11.010078132152557 11.538700297474861  10.876867145299911 11.557700112462044  10.648022651672363 11.444122314453125  C 10.419600456953049 11.330755718052387  9.683033287525177 11.090933442115784  8.809666633605957 10.318266868591309  C 8.130099952220917 9.717022359371185  7.671144336462021 8.974755510687828  7.53772211074829 8.74738883972168  C 7.404511004686356 8.520444393157959  7.523788899183273 8.397788845002651  7.638000011444092 8.284844398498535  C 7.741022229194641 8.183088846504688  7.866844616830349 8.019899860024452  7.981055736541748 7.887533187866211  C 8.095689065754414 7.754955410957336  8.133688531816006 7.660589054226875  8.209477424621582 7.509011268615722  C 8.286110751330853 7.357644602656364  8.24789959192276 7.225277706980705  8.19047737121582 7.1114888191223145  C 8.133477371186018 6.998122148215771  7.675789043307304 5.881766527891159  7.4853668212890625 5.427455425262451  C 7.294944584369659 4.97356653213501  7.104733183979988 5.049144268035889  6.971099853515625 5.049144268035889  C 6.83788874745369 5.049144268035889  6.685255333781242 5.030144214630127  6.532833099365234 5.030144214630127  C 6.380410879850388 5.030144214630127  6.132566437125206 5.086933135986328  5.922933101654053 5.313877582550048  C 5.713510885834693 5.541033133864403  5.12303352355957 6.089922189712524  5.12303352355957 7.206066608428955  C 5.12303352355957 8.32242214679718  5.941933378577232 9.40098850429058  6.0565667152404785 9.552144050598145  C 6.170777827501297 9.703299611806871  7.637788534164429 12.06858915090561  9.962121963500977 12.97700023651123  C 12.28666639328003 13.884989142417908  12.286666959524155 13.58204449340701  12.705933570861816 13.544044494628906  C 13.124778062105179 13.506255693733692  14.058310821652412 12.995367109775543  14.249577522277832 12.465900421142578  Z " fill-rule="nonzero" fill="rgba(255, 255, 255, 1)" stroke="none" class="fill" />
    <path d="M 9.672688484191895 0  C 14.824855327606201 0  19 4.143689155578613  19 9.255322456359863  C 19 14.366955757141113  14.824432849884033 18.510644912719727  9.672688484191895 18.510644912719727  C 8.037210702896118 18.510644912719727  6.500744581222534 18.092644691467285  5.163989067077637 17.359033584594727  C 5.163989067077637 17.359033584594727  0 19  0 19  C 0 19  1.6836111545562744 14.034244537353516  1.6836111545562744 14.034244537353516  C 0.8343111276626588 12.639644503593445  0.3451666533946991 11.003955841064453  0.3451666533946991 9.255322456359863  C 0.3451666533946991 4.143689155578613  4.52115535736084 0  9.672688484191895 0  Z " stroke-width="0" stroke-dasharray="0" stroke="rgba(121, 121, 121, 1)" fill="none" class="stroke" mask="url(#Clip146)" />
    <path d="M 17.514833450317383 9.255743980407715  C 17.514833450317383 4.965121746063232  13.996877193450928 1.47397780418396  9.672688484191895 1.47397780418396  C 5.348288536071777 1.47397780418396  1.830755591392517 4.964700222015381  1.830755591392517 9.255322456359863  C 1.830755591392517 10.95793354511261  2.3857666850090027 12.534722208976746  3.324577808380127 13.81743335723877  C 3.324577808380127 13.81743335723877  2.344811201095581 16.707332611083984  2.344811201095581 16.707332611083984  C 2.344811201095581 16.707332611083984  5.35842227935791 15.74952220916748  5.35842227935791 15.74952220916748  C 6.596588969230652 16.562511086463928  8.079855799674988 17.036666870117188  9.672900199890137 17.036666870117188  C 13.99666690826416 17.036666870117188  17.514833450317383 13.546366214752199  17.514833450317383 9.255743980407715  Z " stroke-width="0" stroke-dasharray="0" stroke="rgba(121, 121, 121, 1)" fill="none" class="stroke" mask="url(#Clip146)" />
    <path d="M 14.249577522277832 12.465900421142578  C 14.439577519893646 11.93558931350708  14.43957755714655 11.481489188969135  14.38278865814209 11.386911392211914  C 14.325155358761549 11.292544692754745  14.172944098711014 11.235544674098492  13.944521903991701 11.122178077697754  C 13.715677499771118 11.008811376988888  12.59130038321018 10.45971079915762  12.38230037689209 10.384344100952148  C 12.172667071223259 10.308766402304173  12.019822031259537 10.270766779780388  11.867610931396486 10.497711181640625  C 11.715399831533432 10.724866777658463  11.277133628726006 11.235544696450233  11.143500328063965 11.386911392211914  C 11.010078132152557 11.538700297474861  10.876867145299911 11.557700112462044  10.648022651672363 11.444122314453125  C 10.419600456953049 11.330755718052387  9.683033287525177 11.090933442115784  8.809666633605957 10.318266868591309  C 8.130099952220917 9.717022359371185  7.671144336462021 8.974755510687828  7.53772211074829 8.74738883972168  C 7.404511004686356 8.520444393157959  7.523788899183273 8.397788845002651  7.638000011444092 8.284844398498535  C 7.741022229194641 8.183088846504688  7.866844616830349 8.019899860024452  7.981055736541748 7.887533187866211  C 8.095689065754414 7.754955410957336  8.133688531816006 7.660589054226875  8.209477424621582 7.509011268615722  C 8.286110751330853 7.357644602656364  8.24789959192276 7.225277706980705  8.19047737121582 7.1114888191223145  C 8.133477371186018 6.998122148215771  7.675789043307304 5.881766527891159  7.4853668212890625 5.427455425262451  C 7.294944584369659 4.97356653213501  7.104733183979988 5.049144268035889  6.971099853515625 5.049144268035889  C 6.83788874745369 5.049144268035889  6.685255333781242 5.030144214630127  6.532833099365234 5.030144214630127  C 6.380410879850388 5.030144214630127  6.132566437125206 5.086933135986328  5.922933101654053 5.313877582550048  C 5.713510885834693 5.541033133864403  5.12303352355957 6.089922189712524  5.12303352355957 7.206066608428955  C 5.12303352355957 8.32242214679718  5.941933378577232 9.40098850429058  6.0565667152404785 9.552144050598145  C 6.170777827501297 9.703299611806871  7.637788534164429 12.06858915090561  9.962121963500977 12.97700023651123  C 12.28666639328003 13.884989142417908  12.286666959524155 13.58204449340701  12.705933570861816 13.544044494628906  C 13.124778062105179 13.506255693733692  14.058310821652412 12.995367109775543  14.249577522277832 12.465900421142578  Z " stroke-width="0" stroke-dasharray="0" stroke="rgba(121, 121, 121, 1)" fill="none" class="stroke" mask="url(#Clip146)" />
  </g>
</svg>