<?xml version="1.0" encoding="utf-8"?>
<svg version="1.1" xmlns:xlink="http://www.w3.org/1999/xlink" width="35px" height="35px" xmlns="http://www.w3.org/2000/svg">
  <defs>
    <pattern id="BGPattern" patternUnits="userSpaceOnUse" alignment="0 0" imageRepeat="None" />
    <mask fill="white" id="Clip157">
      <path d="M 17.5 0  C 27.164982921713147 0  35 7.835017078286854  35 17.5  C 35 27.164982921713147  27.164982921713147 35  17.5 35  C 7.835017078286854 35  0 27.164982921713147  0 17.5  C 0 7.835017078286854  7.835017078286854 0  17.5 0  Z " fill-rule="evenodd" />
    </mask>
  </defs>
  <g>
    <path d="M 17.5 0  C 27.164982921713147 0  35 7.835017078286854  35 17.5  C 35 27.164982921713147  27.164982921713147 35  17.5 35  C 7.835017078286854 35  0 27.164982921713147  0 17.5  C 0 7.835017078286854  7.835017078286854 0  17.5 0  Z " fill-rule="nonzero" fill="rgba(218, 218, 218, 1)" stroke="none" class="fill" />
    <path d="M 17.5 0  C 27.164982921713147 0  35 7.835017078286854  35 17.5  C 35 27.164982921713147  27.164982921713147 35  17.5 35  C 7.835017078286854 35  0 27.164982921713147  0 17.5  C 0 7.835017078286854  7.835017078286854 0  17.5 0  Z " stroke-width="0" stroke-dasharray="0" stroke="rgba(121, 121, 121, 1)" fill="none" class="stroke" mask="url(#Clip157)" />
  </g>
</svg>