<?xml version="1.0" encoding="utf-8"?>
<svg version="1.1" xmlns:xlink="http://www.w3.org/1999/xlink" width="6px" height="6px" xmlns="http://www.w3.org/2000/svg">
  <defs>
    <pattern id="BGPattern" patternUnits="userSpaceOnUse" alignment="0 0" imageRepeat="None" />
    <mask fill="white" id="Clip155">
      <path d="M 9.146378422163808E-05 3.0297516126492785  C 0.012527596771085558 4.6891598953259965  1.3516511876268678 6.006045894444446  3.0194857763960767 5.999979133489706  C 4.681948013102634 5.994011827465556  6.00604795905405 4.658925626066445  5.9999791263640105 2.993450524081376  C 5.994009782567379 1.3271996858641724  4.667024193571979 0.0014239660948262374  3.0037660308931393 0  C 1.326678847171223 -0.001778488065578006  -0.01274262570283485 1.348572564712265  9.146378422163808E-05 3.0297516126492785  Z " fill-rule="evenodd" />
    </mask>
  </defs>
  <g transform="matrix(1 0 0 1 -15 -9 )">
    <path d="M 9.146378422163808E-05 3.0297516126492785  C 0.012527596771085558 4.6891598953259965  1.3516511876268678 6.006045894444446  3.0194857763960767 5.999979133489706  C 4.681948013102634 5.994011827465556  6.00604795905405 4.658925626066445  5.9999791263640105 2.993450524081376  C 5.994009782567379 1.3271996858641724  4.667024193571979 0.0014239660948262374  3.0037660308931393 0  C 1.326678847171223 -0.001778488065578006  -0.01274262570283485 1.348572564712265  9.146378422163808E-05 3.0297516126492785  Z " fill-rule="nonzero" fill="rgba(206, 206, 206, 1)" stroke="none" transform="matrix(1 0 0 1 15 9 )" class="fill" />
    <path d="M 9.146378422163808E-05 3.0297516126492785  C 0.012527596771085558 4.6891598953259965  1.3516511876268678 6.006045894444446  3.0194857763960767 5.999979133489706  C 4.681948013102634 5.994011827465556  6.00604795905405 4.658925626066445  5.9999791263640105 2.993450524081376  C 5.994009782567379 1.3271996858641724  4.667024193571979 0.0014239660948262374  3.0037660308931393 0  C 1.326678847171223 -0.001778488065578006  -0.01274262570283485 1.348572564712265  9.146378422163808E-05 3.0297516126492785  Z " stroke-width="0" stroke-dasharray="0" stroke="rgba(121, 121, 121, 1)" fill="none" transform="matrix(1 0 0 1 15 9 )" class="stroke" mask="url(#Clip155)" />
  </g>
</svg>