<?xml version="1.0" encoding="utf-8"?>
<svg version="1.1" xmlns:xlink="http://www.w3.org/1999/xlink" width="171px" height="49px" xmlns="http://www.w3.org/2000/svg">
  <defs>
    <pattern id="BGPattern" patternUnits="userSpaceOnUse" alignment="0 0" imageRepeat="None" />
    <mask fill="white" id="Clip161">
      <path d="M 0 10  C 0 4.477152347564697  4.477152347564697 0  10 0  C 10 0  161 0  161 0  C 166.5228476524353 0  171 4.477152347564697  171 10  C 171 10  171 39  171 39  C 171 44.5228476524353  166.5228476524353 49  161 49  C 161 49  10 49  10 49  C 4.477152347564697 49  0 44.5228476524353  0 39  C 0 39  0 10  0 10  Z " fill-rule="evenodd" />
    </mask>
  </defs>
  <g transform="matrix(1 0 0 1 0 -1 )">
    <path d="M 0 10  C 0 4.477152347564697  4.477152347564697 0  10 0  C 10 0  161 0  161 0  C 166.5228476524353 0  171 4.477152347564697  171 10  C 171 10  171 39  171 39  C 171 44.5228476524353  166.5228476524353 49  161 49  C 161 49  10 49  10 49  C 4.477152347564697 49  0 44.5228476524353  0 39  C 0 39  0 10  0 10  Z " fill-rule="nonzero" fill="rgba(255, 255, 255, 0)" stroke="none" transform="matrix(1 0 0 1 0 1 )" class="fill" />
    <path d="M 0 10  C 0 4.477152347564697  4.477152347564697 0  10 0  C 10 0  161 0  161 0  C 166.5228476524353 0  171 4.477152347564697  171 10  C 171 10  171 39  171 39  C 171 44.5228476524353  166.5228476524353 49  161 49  C 161 49  10 49  10 49  C 4.477152347564697 49  0 44.5228476524353  0 39  C 0 39  0 10  0 10  Z " stroke-width="2" stroke-dasharray="0" stroke="rgba(155, 155, 155, 1)" fill="none" transform="matrix(1 0 0 1 0 1 )" class="stroke" mask="url(#Clip161)" />
  </g>
</svg>