<?xml version="1.0" encoding="utf-8"?>
<svg version="1.1" xmlns:xlink="http://www.w3.org/1999/xlink" width="18px" height="18px" xmlns="http://www.w3.org/2000/svg">
  <defs>
    <pattern id="BGPattern" patternUnits="userSpaceOnUse" alignment="0 0" imageRepeat="None" />
    <mask fill="white" id="Clip148">
      <path d="M 9 0  C 13.970562934875488 0  18 4.029437065124512  18 9  C 18 13.970562934875488  13.970562934875488 18  9 18  C 4.029437065124512 18  0 13.970562934875488  0 9  C 0 4.029437065124512  4.029437065124512 0  9 0  Z " fill-rule="evenodd" />
    </mask>
  </defs>
  <g transform="matrix(1 0 0 1 -1 -1 )">
    <path d="M 9 0  C 13.970562934875488 0  18 4.029437065124512  18 9  C 18 13.970562934875488  13.970562934875488 18  9 18  C 4.029437065124512 18  0 13.970562934875488  0 9  C 0 4.029437065124512  4.029437065124512 0  9 0  Z " fill-rule="nonzero" fill="rgba(255, 255, 255, 0)" stroke="none" transform="matrix(1 0 0 1 1 1 )" class="fill" />
    <path d="M 9 0  C 13.970562934875488 0  18 4.029437065124512  18 9  C 18 13.970562934875488  13.970562934875488 18  9 18  C 4.029437065124512 18  0 13.970562934875488  0 9  C 0 4.029437065124512  4.029437065124512 0  9 0  Z " stroke-width="2" stroke-dasharray="0" stroke="rgba(251, 241, 241, 1)" fill="none" transform="matrix(1 0 0 1 1 1 )" class="stroke" mask="url(#Clip148)" />
  </g>
</svg>