<?xml version="1.0" encoding="utf-8"?>
<svg version="1.1" xmlns:xlink="http://www.w3.org/1999/xlink" width="17px" height="10px" xmlns="http://www.w3.org/2000/svg">
  <defs>
    <pattern id="BGPattern" patternUnits="userSpaceOnUse" alignment="0 0" imageRepeat="None" />
    <mask fill="white" id="Clip145">
      <path d="M 4.10095785376132 7.97776460647583  C 6.075338806863538 10.097343921661377  8.317433336755341 9.958133697509766  8.317433336755341 9.958133697509766  C 8.317433336755341 9.958133697509766  9.333586786335976 9.958133697509766  9.333586786335976 9.958133697509766  C 9.333586786335976 9.958133697509766  9.640532368235853 9.923389509320259  9.797236588111943 9.749197006225586  C 9.941478309832272 9.589282602071762  9.936864060442764 9.28896713256836  9.936864060442764 9.28896713256836  C 9.936864060442764 9.28896713256836  9.917015175063769 7.883054047822952  10.549832574040195 7.676022052764893  C 11.173649253413172 7.472083657979965  11.974711271562159 9.034818053245544  12.823775776557449 9.635686874389648  C 13.465824624743139 10.09044337272644  13.953706399548071 9.990734100341797  13.953706399548071 9.990734100341797  C 13.953706399548071 9.990734100341797  16.223956974697895 9.958133697509766  16.223956974697895 9.958133697509766  C 16.223956974697895 9.958133697509766  17.4115846022813 9.882697820663452  16.84846494881854 8.919879913330078  C 16.802307542584717 8.841112613677979  16.520518249121075 8.207642674446106  15.160491736972107 6.905958652496338  C 13.736998907201308 5.543592810630798  13.927628172440045 5.7639501094818115  15.64237388637474 3.4073545932769775  C 16.686684096469214 1.9721707105636597  17.104178008204684 1.0959729552268982  16.97378349010058 0.7206976413726807  C 16.84938937970982 0.3632700443267822  16.08133114997989 0.45774391293525696  16.08133114997989 0.45774391293525696  C 16.08133114997989 0.45774391293525696  13.525136557762659 0.47416332364082336  13.525136557762659 0.47416332364082336  C 13.525136557762659 0.47416332364082336  13.33566091075066 0.4475109875202179  13.195111801496596 0.5341312885284424  C 13.057793681584378 0.6190857887268066  12.96940186101149 0.8170750141143799  12.96940186101149 0.8170750141143799  C 12.96940186101149 0.8170750141143799  12.564832189765504 1.927670657634735  12.025252737746825 2.8721649646759033  C 10.88701227266786 4.865145444869995  10.43190122464418 4.970328100025654  10.245886998556585 4.846584796905518  C 9.813161848296765 4.558167785406113  9.921170394131199 3.68791800737381  9.921170394131199 3.0696775913238525  C 9.921170394131199 1.1383306980133057  10.205268872375362 0.33304817229509354  9.367974378695138 0.12458827346563339  C 9.090107149528857 0.05533967167139053  8.88562886273203 0.009649866027757525  8.175036393898953 0.002272865967825055  C 7.262967090098111 -0.007483834167942405  6.490985317130405 0.005128785967826843  6.053875171871765 0.22596289217472076  C 5.7630838363264685 0.37278908491134644  5.538758958929731 0.6999946068972349  5.67538468140823 0.7187941074371338  C 5.844320595328454 0.7421150077134371  6.226965455493137 0.8251657485961914  6.429826981020196 1.1100132465362549  C 6.691770022885381 1.4774355590343475  6.6825392591296096 2.3027079105377197  6.6825392591296096 2.3027079105377197  C 6.6825392591296096 2.3027079105377197  6.833012334235958 4.576253443956375  6.33105110629038 4.8587212562561035  C 5.986486480753448 5.052427053451538  5.513833903013555 4.656923413276672  4.499064473439887 2.848843812942505  C 3.979101806287407 1.922672986984253  3.586534664101843 0.8989355564117432  3.586534664101843 0.8989355564117432  C 3.586534664101843 0.8989355564117432  3.5108362352033207 0.7076100781559944  3.375826022296908 0.6052839756011963  C 3.211967396501081 0.4813026785850525  2.983026600784594 0.44179943203926086  2.983026600784594 0.44179943203926086  C 2.983026600784594 0.44179943203926086  0.5539957906493905 0.4582197964191437  0.5539957906493905 0.4582197964191437  C 0.5539957906493905 0.4582197964191437  0.18935315200266017 0.4686898738145828  0.055496840445079854 0.6321737766265869  C -0.06358917025907407 0.7775721698999405  0.046034482816049105 1.0783636569976807  0.046034482816049105 1.0783636569976807  C 0.046034482816049105 1.0783636569976807  1.9477174083168263 5.665907144546509  4.10095785376132 7.97776460647583  Z " fill-rule="evenodd" />
    </mask>
  </defs>
  <g>
    <path d="M 4.10095785376132 7.97776460647583  C 6.075338806863538 10.097343921661377  8.317433336755341 9.958133697509766  8.317433336755341 9.958133697509766  C 8.317433336755341 9.958133697509766  9.333586786335976 9.958133697509766  9.333586786335976 9.958133697509766  C 9.333586786335976 9.958133697509766  9.640532368235853 9.923389509320259  9.797236588111943 9.749197006225586  C 9.941478309832272 9.589282602071762  9.936864060442764 9.28896713256836  9.936864060442764 9.28896713256836  C 9.936864060442764 9.28896713256836  9.917015175063769 7.883054047822952  10.549832574040195 7.676022052764893  C 11.173649253413172 7.472083657979965  11.974711271562159 9.034818053245544  12.823775776557449 9.635686874389648  C 13.465824624743139 10.09044337272644  13.953706399548071 9.990734100341797  13.953706399548071 9.990734100341797  C 13.953706399548071 9.990734100341797  16.223956974697895 9.958133697509766  16.223956974697895 9.958133697509766  C 16.223956974697895 9.958133697509766  17.4115846022813 9.882697820663452  16.84846494881854 8.919879913330078  C 16.802307542584717 8.841112613677979  16.520518249121075 8.207642674446106  15.160491736972107 6.905958652496338  C 13.736998907201308 5.543592810630798  13.927628172440045 5.7639501094818115  15.64237388637474 3.4073545932769775  C 16.686684096469214 1.9721707105636597  17.104178008204684 1.0959729552268982  16.97378349010058 0.7206976413726807  C 16.84938937970982 0.3632700443267822  16.08133114997989 0.45774391293525696  16.08133114997989 0.45774391293525696  C 16.08133114997989 0.45774391293525696  13.525136557762659 0.47416332364082336  13.525136557762659 0.47416332364082336  C 13.525136557762659 0.47416332364082336  13.33566091075066 0.4475109875202179  13.195111801496596 0.5341312885284424  C 13.057793681584378 0.6190857887268066  12.96940186101149 0.8170750141143799  12.96940186101149 0.8170750141143799  C 12.96940186101149 0.8170750141143799  12.564832189765504 1.927670657634735  12.025252737746825 2.8721649646759033  C 10.88701227266786 4.865145444869995  10.43190122464418 4.970328100025654  10.245886998556585 4.846584796905518  C 9.813161848296765 4.558167785406113  9.921170394131199 3.68791800737381  9.921170394131199 3.0696775913238525  C 9.921170394131199 1.1383306980133057  10.205268872375362 0.33304817229509354  9.367974378695138 0.12458827346563339  C 9.090107149528857 0.05533967167139053  8.88562886273203 0.009649866027757525  8.175036393898953 0.002272865967825055  C 7.262967090098111 -0.007483834167942405  6.490985317130405 0.005128785967826843  6.053875171871765 0.22596289217472076  C 5.7630838363264685 0.37278908491134644  5.538758958929731 0.6999946068972349  5.67538468140823 0.7187941074371338  C 5.844320595328454 0.7421150077134371  6.226965455493137 0.8251657485961914  6.429826981020196 1.1100132465362549  C 6.691770022885381 1.4774355590343475  6.6825392591296096 2.3027079105377197  6.6825392591296096 2.3027079105377197  C 6.6825392591296096 2.3027079105377197  6.833012334235958 4.576253443956375  6.33105110629038 4.8587212562561035  C 5.986486480753448 5.052427053451538  5.513833903013555 4.656923413276672  4.499064473439887 2.848843812942505  C 3.979101806287407 1.922672986984253  3.586534664101843 0.8989355564117432  3.586534664101843 0.8989355564117432  C 3.586534664101843 0.8989355564117432  3.5108362352033207 0.7076100781559944  3.375826022296908 0.6052839756011963  C 3.211967396501081 0.4813026785850525  2.983026600784594 0.44179943203926086  2.983026600784594 0.44179943203926086  C 2.983026600784594 0.44179943203926086  0.5539957906493905 0.4582197964191437  0.5539957906493905 0.4582197964191437  C 0.5539957906493905 0.4582197964191437  0.18935315200266017 0.4686898738145828  0.055496840445079854 0.6321737766265869  C -0.06358917025907407 0.7775721698999405  0.046034482816049105 1.0783636569976807  0.046034482816049105 1.0783636569976807  C 0.046034482816049105 1.0783636569976807  1.9477174083168263 5.665907144546509  4.10095785376132 7.97776460647583  Z " fill-rule="nonzero" fill="rgba(255, 255, 255, 1)" stroke="none" class="fill" />
    <path d="M 4.10095785376132 7.97776460647583  C 6.075338806863538 10.097343921661377  8.317433336755341 9.958133697509766  8.317433336755341 9.958133697509766  C 8.317433336755341 9.958133697509766  9.333586786335976 9.958133697509766  9.333586786335976 9.958133697509766  C 9.333586786335976 9.958133697509766  9.640532368235853 9.923389509320259  9.797236588111943 9.749197006225586  C 9.941478309832272 9.589282602071762  9.936864060442764 9.28896713256836  9.936864060442764 9.28896713256836  C 9.936864060442764 9.28896713256836  9.917015175063769 7.883054047822952  10.549832574040195 7.676022052764893  C 11.173649253413172 7.472083657979965  11.974711271562159 9.034818053245544  12.823775776557449 9.635686874389648  C 13.465824624743139 10.09044337272644  13.953706399548071 9.990734100341797  13.953706399548071 9.990734100341797  C 13.953706399548071 9.990734100341797  16.223956974697895 9.958133697509766  16.223956974697895 9.958133697509766  C 16.223956974697895 9.958133697509766  17.4115846022813 9.882697820663452  16.84846494881854 8.919879913330078  C 16.802307542584717 8.841112613677979  16.520518249121075 8.207642674446106  15.160491736972107 6.905958652496338  C 13.736998907201308 5.543592810630798  13.927628172440045 5.7639501094818115  15.64237388637474 3.4073545932769775  C 16.686684096469214 1.9721707105636597  17.104178008204684 1.0959729552268982  16.97378349010058 0.7206976413726807  C 16.84938937970982 0.3632700443267822  16.08133114997989 0.45774391293525696  16.08133114997989 0.45774391293525696  C 16.08133114997989 0.45774391293525696  13.525136557762659 0.47416332364082336  13.525136557762659 0.47416332364082336  C 13.525136557762659 0.47416332364082336  13.33566091075066 0.4475109875202179  13.195111801496596 0.5341312885284424  C 13.057793681584378 0.6190857887268066  12.96940186101149 0.8170750141143799  12.96940186101149 0.8170750141143799  C 12.96940186101149 0.8170750141143799  12.564832189765504 1.927670657634735  12.025252737746825 2.8721649646759033  C 10.88701227266786 4.865145444869995  10.43190122464418 4.970328100025654  10.245886998556585 4.846584796905518  C 9.813161848296765 4.558167785406113  9.921170394131199 3.68791800737381  9.921170394131199 3.0696775913238525  C 9.921170394131199 1.1383306980133057  10.205268872375362 0.33304817229509354  9.367974378695138 0.12458827346563339  C 9.090107149528857 0.05533967167139053  8.88562886273203 0.009649866027757525  8.175036393898953 0.002272865967825055  C 7.262967090098111 -0.007483834167942405  6.490985317130405 0.005128785967826843  6.053875171871765 0.22596289217472076  C 5.7630838363264685 0.37278908491134644  5.538758958929731 0.6999946068972349  5.67538468140823 0.7187941074371338  C 5.844320595328454 0.7421150077134371  6.226965455493137 0.8251657485961914  6.429826981020196 1.1100132465362549  C 6.691770022885381 1.4774355590343475  6.6825392591296096 2.3027079105377197  6.6825392591296096 2.3027079105377197  C 6.6825392591296096 2.3027079105377197  6.833012334235958 4.576253443956375  6.33105110629038 4.8587212562561035  C 5.986486480753448 5.052427053451538  5.513833903013555 4.656923413276672  4.499064473439887 2.848843812942505  C 3.979101806287407 1.922672986984253  3.586534664101843 0.8989355564117432  3.586534664101843 0.8989355564117432  C 3.586534664101843 0.8989355564117432  3.5108362352033207 0.7076100781559944  3.375826022296908 0.6052839756011963  C 3.211967396501081 0.4813026785850525  2.983026600784594 0.44179943203926086  2.983026600784594 0.44179943203926086  C 2.983026600784594 0.44179943203926086  0.5539957906493905 0.4582197964191437  0.5539957906493905 0.4582197964191437  C 0.5539957906493905 0.4582197964191437  0.18935315200266017 0.4686898738145828  0.055496840445079854 0.6321737766265869  C -0.06358917025907407 0.7775721698999405  0.046034482816049105 1.0783636569976807  0.046034482816049105 1.0783636569976807  C 0.046034482816049105 1.0783636569976807  1.9477174083168263 5.665907144546509  4.10095785376132 7.97776460647583  Z " stroke-width="0" stroke-dasharray="0" stroke="rgba(121, 121, 121, 1)" fill="none" class="stroke" mask="url(#Clip145)" />
  </g>
</svg>