<?xml version="1.0" encoding="utf-8"?>
<svg version="1.1" xmlns:xlink="http://www.w3.org/1999/xlink" width="21px" height="12px" xmlns="http://www.w3.org/2000/svg">
  <defs>
    <pattern id="BGPattern" patternUnits="userSpaceOnUse" alignment="0 0" imageRepeat="None" />
    <mask fill="white" id="Clip154">
      <path d="M 5.065889281956502 9.57331778016793  C 7.5048300741182965 12.11681317266638  10.274473751622198 11.949758516254882  10.274473751622198 11.949758516254882  C 10.274473751622198 11.949758516254882  11.529722474505293 11.949758516254882  11.529722474505293 11.949758516254882  C 11.529722474505293 11.949758516254882  11.90889210836493 11.908066553752478  12.102467857725047 11.69903564660751  C 12.280648837442547 11.507138373662798  12.274946914701504 11.146759966809626  12.274946914701504 11.146759966809626  C 12.274946914701504 11.146759966809626  12.250429961808225 9.459663387713746  13.032145450542284 9.211224962865817  C 13.802742334652262 8.966498802234263  14.792287230101216 10.841780787664389  15.841131526633683 11.562823281222514  C 16.634250629296307 12.108531008269408  17.236930854678597 11.988880817979634  17.236930854678597 11.988880817979634  C 17.236930854678597 11.988880817979634  20.04135678189828 11.949758516254882  20.04135678189828 11.949758516254882  C 20.04135678189828 11.949758516254882  21.50842576949866 11.859235842070577  20.812807370758733 10.70385454197168  C 20.755789483050812 10.609333658648605  20.40769588633924 9.849169873947439  18.727663421212526 8.287149049823467  C 16.969231300531593 6.652310147813093  17.204715011866124 6.916740083863039  19.322930096770847 4.088825780484953  C 20.612960143155643 2.3666050259685254  21.128686629755713 1.3151679522738595  20.967611087470598 0.8648377339325461  C 20.81394788762324 0.4359245252077292  19.865170751535395 0.5492924094644699  19.865170751535395 0.5492924094644699  C 19.865170751535395 0.5492924094644699  16.707519588104656 0.5689956050409009  16.707519588104656 0.5689956050409009  C 16.707519588104656 0.5689956050409009  16.47346095637161 0.5370125909203243  16.299841432149258 0.6409569747102314  C 16.130213162878185 0.7429023698991468  16.02102241332224 0.9804901623902088  16.02102241332224 0.9804901623902088  C 16.02102241332224 0.9804901623902088  15.521262302769326 2.313204695743558  14.854723056697003 3.446597858459185  C 13.448661541262574 5.8381743915458735  12.886464810216088 5.964394108443392  12.656682608134169 5.81590209846684  C 12.122139784758431 5.469801786381538  12.255560989344833 4.42550296485897  12.255560989344833 3.6836144569158202  C 12.255560989344833 1.3659981909814323  12.606506018803733 0.39965832619041664  11.572201298605066 0.14950653460907695  C 11.228953505111642 0.06640825632222126  10.97636414133074 0.011579782590078282  10.098573524461578 0.00272740264199413  C 8.971899855616455 -0.008980600608478426  8.018275593147496 0.006154989304842633  7.478316005191032 0.2711559205862585  C 7.119103258050652 0.447347329046906  6.841996560967115 0.8399934503536881  7.010769488073537 0.8625528252595329  C 7.219455097009016 0.8905378311151635  7.69213340248183 0.9901993344253652  7.942727155326629 1.3320162710944297  C 8.266303749526305 1.7729230966538458  8.254900466388484 2.7632500625787535  8.254900466388484 2.7632500625787535  C 8.254900466388484 2.7632500625787535  8.440778930164516 5.4915026866231855  7.820709300036201 5.830464017592207  C 7.3950706291163595 6.062911047206514  6.811207402091233 5.588308097580268  5.557668735035025 3.4186127635563954  C 4.915362160291137 2.3072078044916924  4.430423856734264 1.0787232105281805  4.430423856734264 1.0787232105281805  C 4.430423856734264 1.0787232105281805  4.336914953567565 0.8491318528815694  4.170137587778631 0.7263404598745385  C 3.96772403596992 0.5775629357153403  3.684915730396546 0.5301596127106306  3.684915730396546 0.5301596127106306  C 3.684915730396546 0.5301596127106306  0.6843484242716782 0.549863901703335  0.6843484242716782 0.549863901703335  C 0.6843484242716782 0.549863901703335  0.23390667060043013 0.562428430934836  0.06855474828279909 0.7586090958626984  C -0.07855143475192283 0.9330871210230243  0.05686645584049429 1.2940369538474072  0.05686645584049429 1.2940369538474072  C 0.05686645584049429 1.2940369538474072  2.406004090161383 6.799089022993021  5.065889281956502 9.57331778016793  Z " fill-rule="evenodd" />
    </mask>
  </defs>
  <g transform="matrix(1 0 0 1 -7 -13 )">
    <path d="M 5.065889281956502 9.57331778016793  C 7.5048300741182965 12.11681317266638  10.274473751622198 11.949758516254882  10.274473751622198 11.949758516254882  C 10.274473751622198 11.949758516254882  11.529722474505293 11.949758516254882  11.529722474505293 11.949758516254882  C 11.529722474505293 11.949758516254882  11.90889210836493 11.908066553752478  12.102467857725047 11.69903564660751  C 12.280648837442547 11.507138373662798  12.274946914701504 11.146759966809626  12.274946914701504 11.146759966809626  C 12.274946914701504 11.146759966809626  12.250429961808225 9.459663387713746  13.032145450542284 9.211224962865817  C 13.802742334652262 8.966498802234263  14.792287230101216 10.841780787664389  15.841131526633683 11.562823281222514  C 16.634250629296307 12.108531008269408  17.236930854678597 11.988880817979634  17.236930854678597 11.988880817979634  C 17.236930854678597 11.988880817979634  20.04135678189828 11.949758516254882  20.04135678189828 11.949758516254882  C 20.04135678189828 11.949758516254882  21.50842576949866 11.859235842070577  20.812807370758733 10.70385454197168  C 20.755789483050812 10.609333658648605  20.40769588633924 9.849169873947439  18.727663421212526 8.287149049823467  C 16.969231300531593 6.652310147813093  17.204715011866124 6.916740083863039  19.322930096770847 4.088825780484953  C 20.612960143155643 2.3666050259685254  21.128686629755713 1.3151679522738595  20.967611087470598 0.8648377339325461  C 20.81394788762324 0.4359245252077292  19.865170751535395 0.5492924094644699  19.865170751535395 0.5492924094644699  C 19.865170751535395 0.5492924094644699  16.707519588104656 0.5689956050409009  16.707519588104656 0.5689956050409009  C 16.707519588104656 0.5689956050409009  16.47346095637161 0.5370125909203243  16.299841432149258 0.6409569747102314  C 16.130213162878185 0.7429023698991468  16.02102241332224 0.9804901623902088  16.02102241332224 0.9804901623902088  C 16.02102241332224 0.9804901623902088  15.521262302769326 2.313204695743558  14.854723056697003 3.446597858459185  C 13.448661541262574 5.8381743915458735  12.886464810216088 5.964394108443392  12.656682608134169 5.81590209846684  C 12.122139784758431 5.469801786381538  12.255560989344833 4.42550296485897  12.255560989344833 3.6836144569158202  C 12.255560989344833 1.3659981909814323  12.606506018803733 0.39965832619041664  11.572201298605066 0.14950653460907695  C 11.228953505111642 0.06640825632222126  10.97636414133074 0.011579782590078282  10.098573524461578 0.00272740264199413  C 8.971899855616455 -0.008980600608478426  8.018275593147496 0.006154989304842633  7.478316005191032 0.2711559205862585  C 7.119103258050652 0.447347329046906  6.841996560967115 0.8399934503536881  7.010769488073537 0.8625528252595329  C 7.219455097009016 0.8905378311151635  7.69213340248183 0.9901993344253652  7.942727155326629 1.3320162710944297  C 8.266303749526305 1.7729230966538458  8.254900466388484 2.7632500625787535  8.254900466388484 2.7632500625787535  C 8.254900466388484 2.7632500625787535  8.440778930164516 5.4915026866231855  7.820709300036201 5.830464017592207  C 7.3950706291163595 6.062911047206514  6.811207402091233 5.588308097580268  5.557668735035025 3.4186127635563954  C 4.915362160291137 2.3072078044916924  4.430423856734264 1.0787232105281805  4.430423856734264 1.0787232105281805  C 4.430423856734264 1.0787232105281805  4.336914953567565 0.8491318528815694  4.170137587778631 0.7263404598745385  C 3.96772403596992 0.5775629357153403  3.684915730396546 0.5301596127106306  3.684915730396546 0.5301596127106306  C 3.684915730396546 0.5301596127106306  0.6843484242716782 0.549863901703335  0.6843484242716782 0.549863901703335  C 0.6843484242716782 0.549863901703335  0.23390667060043013 0.562428430934836  0.06855474828279909 0.7586090958626984  C -0.07855143475192283 0.9330871210230243  0.05686645584049429 1.2940369538474072  0.05686645584049429 1.2940369538474072  C 0.05686645584049429 1.2940369538474072  2.406004090161383 6.799089022993021  5.065889281956502 9.57331778016793  Z " fill-rule="nonzero" fill="rgba(255, 255, 255, 1)" stroke="none" transform="matrix(1 0 0 1 7 13 )" class="fill" />
    <path d="M 5.065889281956502 9.57331778016793  C 7.5048300741182965 12.11681317266638  10.274473751622198 11.949758516254882  10.274473751622198 11.949758516254882  C 10.274473751622198 11.949758516254882  11.529722474505293 11.949758516254882  11.529722474505293 11.949758516254882  C 11.529722474505293 11.949758516254882  11.90889210836493 11.908066553752478  12.102467857725047 11.69903564660751  C 12.280648837442547 11.507138373662798  12.274946914701504 11.146759966809626  12.274946914701504 11.146759966809626  C 12.274946914701504 11.146759966809626  12.250429961808225 9.459663387713746  13.032145450542284 9.211224962865817  C 13.802742334652262 8.966498802234263  14.792287230101216 10.841780787664389  15.841131526633683 11.562823281222514  C 16.634250629296307 12.108531008269408  17.236930854678597 11.988880817979634  17.236930854678597 11.988880817979634  C 17.236930854678597 11.988880817979634  20.04135678189828 11.949758516254882  20.04135678189828 11.949758516254882  C 20.04135678189828 11.949758516254882  21.50842576949866 11.859235842070577  20.812807370758733 10.70385454197168  C 20.755789483050812 10.609333658648605  20.40769588633924 9.849169873947439  18.727663421212526 8.287149049823467  C 16.969231300531593 6.652310147813093  17.204715011866124 6.916740083863039  19.322930096770847 4.088825780484953  C 20.612960143155643 2.3666050259685254  21.128686629755713 1.3151679522738595  20.967611087470598 0.8648377339325461  C 20.81394788762324 0.4359245252077292  19.865170751535395 0.5492924094644699  19.865170751535395 0.5492924094644699  C 19.865170751535395 0.5492924094644699  16.707519588104656 0.5689956050409009  16.707519588104656 0.5689956050409009  C 16.707519588104656 0.5689956050409009  16.47346095637161 0.5370125909203243  16.299841432149258 0.6409569747102314  C 16.130213162878185 0.7429023698991468  16.02102241332224 0.9804901623902088  16.02102241332224 0.9804901623902088  C 16.02102241332224 0.9804901623902088  15.521262302769326 2.313204695743558  14.854723056697003 3.446597858459185  C 13.448661541262574 5.8381743915458735  12.886464810216088 5.964394108443392  12.656682608134169 5.81590209846684  C 12.122139784758431 5.469801786381538  12.255560989344833 4.42550296485897  12.255560989344833 3.6836144569158202  C 12.255560989344833 1.3659981909814323  12.606506018803733 0.39965832619041664  11.572201298605066 0.14950653460907695  C 11.228953505111642 0.06640825632222126  10.97636414133074 0.011579782590078282  10.098573524461578 0.00272740264199413  C 8.971899855616455 -0.008980600608478426  8.018275593147496 0.006154989304842633  7.478316005191032 0.2711559205862585  C 7.119103258050652 0.447347329046906  6.841996560967115 0.8399934503536881  7.010769488073537 0.8625528252595329  C 7.219455097009016 0.8905378311151635  7.69213340248183 0.9901993344253652  7.942727155326629 1.3320162710944297  C 8.266303749526305 1.7729230966538458  8.254900466388484 2.7632500625787535  8.254900466388484 2.7632500625787535  C 8.254900466388484 2.7632500625787535  8.440778930164516 5.4915026866231855  7.820709300036201 5.830464017592207  C 7.3950706291163595 6.062911047206514  6.811207402091233 5.588308097580268  5.557668735035025 3.4186127635563954  C 4.915362160291137 2.3072078044916924  4.430423856734264 1.0787232105281805  4.430423856734264 1.0787232105281805  C 4.430423856734264 1.0787232105281805  4.336914953567565 0.8491318528815694  4.170137587778631 0.7263404598745385  C 3.96772403596992 0.5775629357153403  3.684915730396546 0.5301596127106306  3.684915730396546 0.5301596127106306  C 3.684915730396546 0.5301596127106306  0.6843484242716782 0.549863901703335  0.6843484242716782 0.549863901703335  C 0.6843484242716782 0.549863901703335  0.23390667060043013 0.562428430934836  0.06855474828279909 0.7586090958626984  C -0.07855143475192283 0.9330871210230243  0.05686645584049429 1.2940369538474072  0.05686645584049429 1.2940369538474072  C 0.05686645584049429 1.2940369538474072  2.406004090161383 6.799089022993021  5.065889281956502 9.57331778016793  Z " stroke-width="0" stroke-dasharray="0" stroke="rgba(121, 121, 121, 1)" fill="none" transform="matrix(1 0 0 1 7 13 )" class="stroke" mask="url(#Clip154)" />
  </g>
</svg>