<?xml version="1.0" encoding="utf-8"?>
<svg version="1.1" xmlns:xlink="http://www.w3.org/1999/xlink" width="25px" height="25px" xmlns="http://www.w3.org/2000/svg">
  <defs>
    <pattern id="BGPattern" patternUnits="userSpaceOnUse" alignment="0 0" imageRepeat="None" />
    <mask fill="white" id="Clip165">
      <path d="M 24.710599013737273 24.710598994023393  C 25.09646766952106 24.329553711724536  25.09646766952106 23.702518766438534  24.710599013737273 23.32147348413968  C 24.710599013737273 23.32147348413968  17.663136550358363 16.27401054069046  17.663136550358363 16.27401054069046  C 19.07155705349786 14.556895017242091  19.9204683303833 12.357443774253559  19.9204683303833 9.960234843678805  C 19.9204683303833 4.461606363678413  15.458862270627705 0  9.96023416519165 0  C 4.45678276675088 0  0 4.461606363678413  0 9.960234843678805  C 0 15.458863323679198  4.45678276675088 19.92046968735761  9.96023416519165 19.92046968735761  C 12.357442932469505 19.92046968735761  14.552071158375057 19.07638122023046  16.269186564854213 17.667960621149923  C 16.269186564854213 17.667960621149923  23.31664732524327 24.710598994023393  23.31664732524327 24.710598994023393  C 23.702515901199412 25.0964676760924  24.32473043778113 25.0964676760924  24.710599013737273 24.710598994023393  Z M 17.942891802106587 9.960234843678805  C 17.942891802106587 14.35913754252962  14.359136564391001 17.938070156783386  9.96023416519165 17.938070156783386  C 5.556508472987583 17.938070156783386  1.9775767411504477 14.35913754252962  1.9775767411504477 9.960234843678805  C 1.9775767411504477 5.561332144827989  5.556508472987583 1.9775766629884353  9.96023416519165 1.9775766629884353  C 14.359136564391001 1.9775766629884353  17.942891802106587 5.561332144827989  17.942891802106587 9.960234843678805  Z " fill-rule="evenodd" />
    </mask>
  </defs>
  <g>
    <path d="M 24.710599013737273 24.710598994023393  C 25.09646766952106 24.329553711724536  25.09646766952106 23.702518766438534  24.710599013737273 23.32147348413968  C 24.710599013737273 23.32147348413968  17.663136550358363 16.27401054069046  17.663136550358363 16.27401054069046  C 19.07155705349786 14.556895017242091  19.9204683303833 12.357443774253559  19.9204683303833 9.960234843678805  C 19.9204683303833 4.461606363678413  15.458862270627705 0  9.96023416519165 0  C 4.45678276675088 0  0 4.461606363678413  0 9.960234843678805  C 0 15.458863323679198  4.45678276675088 19.92046968735761  9.96023416519165 19.92046968735761  C 12.357442932469505 19.92046968735761  14.552071158375057 19.07638122023046  16.269186564854213 17.667960621149923  C 16.269186564854213 17.667960621149923  23.31664732524327 24.710598994023393  23.31664732524327 24.710598994023393  C 23.702515901199412 25.0964676760924  24.32473043778113 25.0964676760924  24.710599013737273 24.710598994023393  Z M 17.942891802106587 9.960234843678805  C 17.942891802106587 14.35913754252962  14.359136564391001 17.938070156783386  9.96023416519165 17.938070156783386  C 5.556508472987583 17.938070156783386  1.9775767411504477 14.35913754252962  1.9775767411504477 9.960234843678805  C 1.9775767411504477 5.561332144827989  5.556508472987583 1.9775766629884353  9.96023416519165 1.9775766629884353  C 14.359136564391001 1.9775766629884353  17.942891802106587 5.561332144827989  17.942891802106587 9.960234843678805  Z " fill-rule="nonzero" fill="rgba(153, 153, 153, 1)" stroke="none" class="fill" />
    <path d="M 24.710599013737273 24.710598994023393  C 25.09646766952106 24.329553711724536  25.09646766952106 23.702518766438534  24.710599013737273 23.32147348413968  C 24.710599013737273 23.32147348413968  17.663136550358363 16.27401054069046  17.663136550358363 16.27401054069046  C 19.07155705349786 14.556895017242091  19.9204683303833 12.357443774253559  19.9204683303833 9.960234843678805  C 19.9204683303833 4.461606363678413  15.458862270627705 0  9.96023416519165 0  C 4.45678276675088 0  0 4.461606363678413  0 9.960234843678805  C 0 15.458863323679198  4.45678276675088 19.92046968735761  9.96023416519165 19.92046968735761  C 12.357442932469505 19.92046968735761  14.552071158375057 19.07638122023046  16.269186564854213 17.667960621149923  C 16.269186564854213 17.667960621149923  23.31664732524327 24.710598994023393  23.31664732524327 24.710598994023393  C 23.702515901199412 25.0964676760924  24.32473043778113 25.0964676760924  24.710599013737273 24.710598994023393  Z " stroke-width="0" stroke-dasharray="0" stroke="rgba(121, 121, 121, 1)" fill="none" class="stroke" mask="url(#Clip165)" />
    <path d="M 17.942891802106587 9.960234843678805  C 17.942891802106587 14.35913754252962  14.359136564391001 17.938070156783386  9.96023416519165 17.938070156783386  C 5.556508472987583 17.938070156783386  1.9775767411504477 14.35913754252962  1.9775767411504477 9.960234843678805  C 1.9775767411504477 5.561332144827989  5.556508472987583 1.9775766629884353  9.96023416519165 1.9775766629884353  C 14.359136564391001 1.9775766629884353  17.942891802106587 5.561332144827989  17.942891802106587 9.960234843678805  Z " stroke-width="0" stroke-dasharray="0" stroke="rgba(121, 121, 121, 1)" fill="none" class="stroke" mask="url(#Clip165)" />
  </g>
</svg>