<?xml version="1.0" encoding="utf-8"?>
<svg version="1.1" xmlns:xlink="http://www.w3.org/1999/xlink" width="130px" height="28px" xmlns="http://www.w3.org/2000/svg">
  <defs>
    <pattern id="BGPattern" patternUnits="userSpaceOnUse" alignment="0 0" imageRepeat="None" />
    <mask fill="white" id="Clip164">
      <path d="M 35.76959873231011 22.870080762887376  C 35.76959873231011 22.870080762887376  41.61260185434657 7.818550068505391  41.61260185434657 7.818550068505391  C 41.61260185434657 7.818550068505391  43.81949042763223 7.818550068505391  43.81949042763223 7.818550068505391  C 43.81949042763223 7.818550068505391  49.683511354866404 22.870080762887376  49.683511354866404 22.870080762887376  C 49.683511354866404 22.870080762887376  47.476622781580744 22.870080762887376  47.476622781580744 22.870080762887376  C 47.476622781580744 22.870080762887376  45.83721875413849 18.33775781875454  45.83721875413849 18.33775781875454  C 45.83721875413849 18.33775781875454  39.48978450185176 18.33775781875454  39.48978450185176 18.33775781875454  C 39.48978450185176 18.33775781875454  37.80834486401408 22.870080762887376  37.80834486401408 22.870080762887376  C 37.80834486401408 22.870080762887376  35.76959873231011 22.870080762887376  35.76959873231011 22.870080762887376  Z M 50.92357327804696 27.022954860870193  C 50.92357327804696 27.022954860870193  50.92357327804696 11.971424166488207  50.92357327804696 11.971424166488207  C 50.92357327804696 11.971424166488207  52.71010574737839 11.971424166488207  52.71010574737839 11.971424166488207  C 52.71010574737839 11.971424166488207  52.71010574737839 13.447064505483226  52.71010574737839 13.447064505483226  C 52.71010574737839 13.447064505483226  52.75214135777381 13.447064505483226  52.75214135777381 13.447064505483226  C 53.046394703621544 12.842751654564342  53.50878109621002 12.403575914449165  54.13932411183314 12.129527057209874  C 54.76986706799525 11.855478199970582  55.46345422329258 11.718455724497504  56.22010585393254 11.718455724497504  C 57.06082983512268 11.718455724497504  57.79295427124195 11.873046589323028  58.41649123287713 12.182229929201782  C 59.04002819451231 12.491413269080534  59.5584680731909 12.909507281909738  59.97182403952855 13.436524312768448  C 60.38518009505771 13.963541403265221  60.6969372634165 14.571357334370784  60.907118273579286 15.259992919769154  C 61.117299283742085 15.94862850516752  61.22238915705015 16.679415677163284  61.22238915705015 17.452373997041136  C 61.22238915705015 18.225332316918987  61.12080402024034 18.95611758049673  60.917629078930744 19.644753165895096  C 60.714454137621146 20.333388751293462  60.4061940055587 20.934180034226113  59.992838039221056 21.447143295884263  C 59.579482072883415 21.960106557542417  59.06104219420482 22.36414733791363  58.43750523256965 22.65927690859182  C 57.81396827093446 22.954406389812917  57.08885339700324 23.101968819448526  56.262141464327954 23.101968819448526  C 55.99591212631842 23.101968819448526  55.69816645646007 23.073862477536046  55.36888284067263 23.0176472777303  C 55.03959931407672 22.96143217856379  54.71382294701557 22.87008252221024  54.39154538521607 22.743598450310042  C 54.06926782341657 22.61711437840985  53.76450489116826 22.444957047559413  53.47725753984745 22.227123282031876  C 53.19001018852663 22.009289620870952  52.948310319421736 21.738757948220258  52.75214135777381 21.415520809321915  C 52.75214135777381 21.415520809321915  52.71010574737839 21.415520809321915  52.71010574737839 21.415520809321915  C 52.71010574737839 21.415520809321915  52.71010574737839 27.022954860870193  52.71010574737839 27.022954860870193  C 52.71010574737839 27.022954860870193  50.92357327804696 27.022954860870193  50.92357327804696 27.022954860870193  Z M 63.38724211994039 27.022954860870193  C 63.38724211994039 27.022954860870193  63.38724211994039 11.971424166488207  63.38724211994039 11.971424166488207  C 63.38724211994039 11.971424166488207  65.17377458927183 11.971424166488207  65.17377458927183 11.971424166488207  C 65.17377458927183 11.971424166488207  65.17377458927183 13.447064505483226  65.17377458927183 13.447064505483226  C 65.17377458927183 13.447064505483226  65.21581019966725 13.447064505483226  65.21581019966725 13.447064505483226  C 65.51006363470651 12.842751654564342  65.97245754911386 12.403575914449165  66.60300056473697 12.129527057209874  C 67.23354358036009 11.855478199970582  67.92713067619641 11.718455724497504  68.68378230683636 11.718455724497504  C 69.5245062880265 11.718455724497504  70.25662311313538 11.873046589323028  70.88016007477057 12.182229929201782  C 71.50369703640575 12.491413269080534  72.02213691508435 12.909507281909738  72.43549288142198 13.436524312768448  C 72.84884884775961 13.963541403265221  73.16061380551186 14.571357334370784  73.37079472648311 15.259992919769154  C 73.58097573664591 15.94862850516752  73.68606560995397 16.679415677163284  73.68606560995397 17.452373997041136  C 73.68606560995397 18.225332316918987  73.5844805623357 18.95611758049673  73.38130553183457 19.644753165895096  C 73.17813059052499 20.333388751293462  72.86986293664367 20.934180034226113  72.45650688111449 21.447143295884263  C 72.04315091477685 21.960106557542417  71.52471864710864 22.36414733791363  70.90118168547347 22.65927690859182  C 70.27764472383829 22.954406389812917  69.55252990936809 23.101968819448526  68.72581791723178 23.101968819448526  C 68.45958869814429 23.101968819448526  68.16183520916199 23.073862477536046  67.83255168256606 23.0176472777303  C 67.50326806677863 22.96143217856379  67.17749178890901 22.87008252221024  66.85521422710951 22.743598450310042  C 66.53293666531 22.61711437840985  66.22818134407208 22.444957047559413  65.94093399275127 22.227123282031876  C 65.65368664143047 22.009289620870952  65.41197916131517 21.738757948220258  65.21581019966725 21.415520809321915  C 65.21581019966725 21.415520809321915  65.17377458927183 21.415520809321915  65.17377458927183 21.415520809321915  C 65.17377458927183 21.415520809321915  65.17377458927183 27.022954860870193  65.17377458927183 27.022954860870193  C 65.17377458927183 27.022954860870193  63.38724211994039 27.022954860870193  63.38724211994039 27.022954860870193  Z M 101.61897607554994 19.665833551324653  C 101.39478260064516 18.977197965926287  101.28269119238655 18.232359469890547  101.28269119238655 17.43129361161158  C 101.28269119238655 16.63022775333261  101.39478260064516 15.881874070583386  101.61897607554994 15.186211570765707  C 101.84316955045472 14.490549070948031  102.17945899725127 13.886244509719914  102.62784594706086 13.373281248061764  C 103.07623188603311 12.86031792676555  103.62969674262075 12.456279024993323  104.28826397419563 12.161149543772225  C 104.94683120577051 11.866019973094033  105.70347433348479 11.718455724497504  106.55820976857962 11.718455724497504  C 107.42695832248765 11.718455724497504  108.18709757971773 11.866019973094033  108.83865875730466 12.161149543772225  C 109.49021993489161 12.456279024993323  110.04018765112612 12.86031792676555  110.48857359009838 13.373281248061764  C 110.93695952907063 13.886244509719914  111.27324237569412 14.490549070948031  111.49743585059892 15.186211570765707  C 111.72162831466639 15.881874070583386  111.83372073376228 16.63022775333261  111.83372073376228 17.43129361161158  C 111.83372073376228 18.232359469890547  111.72162831466639 18.977197965926287  111.49743585059892 19.665833551324653  C 111.27324237569412 20.354469255999145  110.93695952907063 20.95526041965567  110.48857359009838 21.46822368131382  C 110.04018765112612 21.981186942971974  109.49021993489161 22.38171256644873  108.83865875730466 22.66981519288858  C 108.18709757971773 22.957917938604556  107.42695832248765 23.101968819448526  106.55820976857962 23.101968819448526  C 105.70347433348479 23.101968819448526  104.94683120577051 22.957917938604556  104.28826397419563 22.66981519288858  C 103.62969674262075 22.38171256644873  103.07623188603311 21.981186942971974  102.62784594706086 21.46822368131382  C 102.17945899725127 20.95526041965567  101.84316955045472 20.354469255999145  101.61897607554994 19.665833551324653  Z M 128.05961856660318 19.412867017751967  C 128.05961856660318 19.412867017751967  129.82512942523172 19.412867017751967  129.82512942523172 19.412867017751967  C 129.58692379775528 20.635546548428355  129.06148256250924 21.556057606756564  128.2487826188878 22.174424226876006  C 127.43608267526635 22.792790906633513  126.41320658242039 23.101968819448526  125.18014500496999 23.101968819448526  C 124.31139645106195 23.101968819448526  123.5582590260875 22.96143309549901  122.92071001593744 22.680357294021377  C 122.28316100578742 22.39928158200084  121.74721318692222 22.00578054705893  121.31283840454957 21.499844259458154  C 120.8784646330142 20.993907852581252  120.55269495531766 20.389603291353136  120.33550856010339 19.68691393675421  C 120.11832116891705 18.98422458215528  119.99570795873485 18.2183043886526  119.96768364987526 17.38913093233445  C 119.96768364987526 16.559957476016297  120.09379497036844 15.801065926436756  120.34601175444445 15.112430221762263  C 120.59822951962727 14.423794636363898  120.95203601901154 13.826516691364777  121.40742804170225 13.320580284487873  C 121.86282006439296 12.814643996887098  122.40226499388075 12.421144870363209  123.02580284743121 12.14006915834267  C 123.64933969014434 11.858993356865037  124.33242822959906 11.718455724497504  125.07506739549702 11.718455724497504  C 126.04190005116502 11.718455724497504  126.8440742052583 11.918719505354407  127.48162321540835 12.319252434493892  C 128.11917222555837 12.719785363633378  128.63061077740002 13.229229025361377  129.01594202236723 13.84759564548082  C 129.40127427817177 14.465962325238323  129.6674996174278 15.140532929480273  129.81462623089067 15.87132982248032  C 129.9617528443535 16.60212683475649  130.02129517784277 17.297779017189256  129.99327186681342 17.958307064186503  C 129.99327186681342 17.958307064186503  121.85930895070044 17.958307064186503  121.85930895070044 17.958307064186503  C 121.84529679627063 18.436135813386162  121.90134300024411 18.889364696502238  122.02745139228213 19.318005283318968  C 122.15355978432014 19.7466457806786  122.35673045930164 20.126091585287405  122.63697154852096 20.45635563860506  C 122.91721361884707 20.78661960246562  123.27451725858445 21.050124673796834  123.70889103011982 21.24687772588547  C 124.14326581249249 21.443630777974104  124.65470338322731 21.542005030317267  125.24320983707871 21.542005030317267  C 125.99986117041357 21.542005030317267  126.61987878300515 21.3663362550418  127.10329511083914 21.014991577742336  C 127.58671143867315 20.663646900442878  127.9054858694219 20.129610141551453  128.05961856660318 19.412867017751967  Z M 12.356210888920348 7.660983443246851  C 13.974017485154723 7.660983443246851  15.247057678520054 6.252313309348154  17.646062900434284 6.252313309348154  C 20.88099205334405 6.252313309348154  22.949593800375375 9.391596063151733  22.949593800375375 9.391596063151733  C 22.949593800375375 9.391596063151733  19.79401561474892 11.109082106822608  19.79401561474892 14.839053157484427  C 19.79401561474892 19.266105378208238  23.758157100387706 20.553873890919462  23.758157100387706 20.553873890919462  C 23.758157100387706 20.553873890919462  20.629256457561766 28  17.115914166069203 28  C 15.140343345046679 28  15.008319072202612 26.860075199848854  12.382889383097163 26.860075199848854  C 10.102910849951973 26.860075199848854  9.334025887710197 28  7.597192602706779 28  C 4.282228205110641 28  0 20.741789133713173  0 14.839053157484427  C 0 8.707640992219243  4.335584955620198 6.252313309348154  7.053363077161946 6.252313309348154  C 9.440055111326249 6.252313309348154  10.433996818407381 7.660983443246851  12.356210888920348 7.660983443246851  Z M 11.601006480014247 6.6011988409359486  C 11.123531199862468 2.777270407429526  14.623877423535983 0.20173204015066143  17.089920662827673 0  C 17.566711903420465 3.0052555105911067  14.848932622388853 6.722099888107066  11.601006480014247 6.6011988409359486  Z M 92.49717250963934 12.22439070006089  C 92.49717250963934 12.22439070006089  90.60554720881416 12.22439070006089  90.60554720881416 12.22439070006089  C 90.49345097678042 11.142249099942351  90.10462564626992 10.358762425505244  89.43905331208339 9.873906732067242  C 88.77347996705954 9.389051038629244  87.92225386182668 9.146625801075503  86.8853614392725 9.146625801075503  C 86.46499882433675 9.146625801075503  86.05164927978912 9.188787272681855  85.64529951609197 9.273110022070854  C 85.23894963347277 9.357432674548003  84.87814831823309 9.497968599775978  84.56287684015204 9.694721547498002  C 84.24760536207098 9.891474599586637  83.99539111995351 10.154979581460754  83.80622824202405 10.48524363477841  C 83.61706536409457 10.815507598638971  83.52248216359715 11.226573206097287  83.52248216359715 11.718455724497504  C 83.52248216359715 12.1822307044966  83.65909977040437 12.558165169046987  83.93233507321031 12.846267795486837  C 84.20557037601625 13.134370421926686  84.56987635342793 13.369767254109538  85.02526855450168 13.552466432631004  C 85.48066066638393 13.735165715519077  85.99559620992613 13.886241296719266  86.57009055580164 14.005698536202486  C 87.14458585305347 14.125155671319092  87.72958565278876 14.255151627475032  88.32509822008912 14.395689483485299  C 88.92061078738946 14.53622733949557  89.50560297611437 14.70135815848362  90.08009827336618 14.891084266333912  C 90.6545926192417 15.080810374184201  91.16952825197544 15.337286920868403  91.62492027466615 15.660524059766743  C 92.08031229735684 15.98376119866509  92.44462535062974 16.391315227512738  92.71786136696792 16.88319786518908  C 92.99109637246876 17.375080383589296  93.12770666557068 17.993438177275404  93.12770666557068 18.738288958752136  C 93.12770666557068 19.539354817031104  92.94905484570198 20.224465256159455  92.59174692477126 20.793643713895968  C 92.23443900384052 21.362822171632484  91.77555055432892 21.82659088963496  91.21506736505297 22.184962511172767  C 90.65458518661436 22.54333413271057  90.02755714964997 22.803325836289222  89.33396048058964 22.964944405738393  C 88.64036286015302 23.126562975187568  87.95028009945307 23.2073707465963  87.26368954384169 23.2073707465963  C 86.42296526534646 23.2073707465963  85.62779335973593 23.10196788014903  84.8781477236229 22.891161148316932  C 84.12850214697089 22.680354327027736  83.46993985066055 22.360636564416808  82.90245120200687 21.93199597760008  C 82.33496243443115 21.503355480240444  81.8865876741304 20.95526548889103  81.55730405834296 20.287710646750597  C 81.22802053174705 19.620155685334037  81.06337992793895 18.829642484125028  81.06337992793895 17.916146293327394  C 81.06337992793895 17.916146293327394  82.95499761775375 17.916146293327394  82.95499761775375 17.916146293327394  C 82.95499761775375 18.548566682647394  83.07760371119525 19.093143395701343  83.32281491697148 19.549891431462097  C 83.56802601869093 20.006639556679946  83.89029767898433 20.38257202335522  84.2896415670766 20.67770159403341  C 84.68898545516888 20.972831164711604  85.15487668831238 21.190661322136325  85.68733512648738 21.33119926760369  C 86.21979380250646 21.47173712361396  86.76625596465371 21.542005030317267  87.32673915392964 21.542005030317267  C 87.77512509290189 21.542005030317267  88.22701269126469 21.499843558710914  88.68240471395539 21.415520809321915  C 89.13779673664611 21.331198059932913  89.54764182713531 21.187148983140354  89.9119558317845 20.983369091179988  C 90.27626885532688 20.779589109762526  90.57051778619396 20.502030910339933  90.79471126109875 20.15068623304047  C 91.01890372516623 19.799341555741005  91.13099614426214 19.34962782951938  91.13099614426214 18.8015301150408  C 91.13099614426214 18.281540058239464  90.99438585116022 17.8599326776577  90.72115084565937 17.536695538759357  C 90.4479158401585 17.213458519137138  90.0836027571551 16.949953343439315  89.6282097533576 16.74617345147895  C 89.17281773066689 16.54239355951858  88.65788304930946 16.37726464894855  88.08338775205763 16.250780577048356  C 87.50889340618211 16.124296505148163  86.92390026608093 15.99430064590408  86.32838769878056 15.860789629765542  C 85.73287435848697 15.727278717993613  85.14788234814512 15.572689776495626  84.57338764550349 15.397017333479281  C 83.99889294286187 15.221344994829549  83.48395775608577 14.989461515489744  83.02856564420354 14.701358889049892  C 82.57317344312976 14.413256143333914  82.20885985470771 14.04083504653609  81.93562455190177 13.584087010775338  C 81.66238924909581 13.127338885557489  81.52577164228859 12.554655916320778  81.52577164228859 11.866020330922412  C 81.52577164228859 11.10711578024512  81.67990548409452 10.450111686756628  81.98817096764864 9.894987117496798  C 82.29643636201124 9.339862428960844  82.70628163088351 8.883120207911238  83.21772208547773 8.524748705649559  C 83.72916254007197 8.166377084111751  84.31065788574884 7.899360777088733  84.96221894441373 7.723688334072391  C 85.61378000307866 7.548015995422658  86.28284109361466 7.46017969936691  86.96943266006336 7.46017969936691  C 87.74009616083511 7.46017969936691  88.45470439168619 7.551529348265704  89.11327162326107 7.734228526787168  C 89.77183885483596 7.916927809675244  90.34982921130523 8.205025948350848  90.84725767684563 8.59853196307102  C 91.34468614238602 8.992038067248288  91.73701520599009 9.487426498643183  92.02426237892786 10.084712494780817  C 92.3115105329724 10.681998371642326  92.46914820077974 11.39521724374274  92.49717250963934 12.22439070006089  Z M 97.7306478644266 8.7039338902188  C 97.7306478644266 8.7039338902188  97.7306478644266 11.971424166488207  97.7306478644266 11.971424166488207  C 97.7306478644266 11.971424166488207  99.89550082731684 11.971424166488207  99.89550082731684 11.971424166488207  C 99.89550082731684 11.971424166488207  99.89550082731684 13.552466432631004  99.89550082731684 13.552466432631004  C 99.89550082731684 13.552466432631004  97.7306478644266 13.552466432631004  97.7306478644266 13.552466432631004  C 97.7306478644266 13.552466432631004  97.7306478644266 20.31933122489493  97.7306478644266 20.31933122489493  C 97.7306478644266 20.530138046184124  97.74816389502804 20.69878212855813  97.78319428017348 20.82526620045832  C 97.81822366934684 20.951750376725123  97.88478406237537 21.05012462906829  97.98286913780952 21.120393504890117  C 98.0809532172716 21.190662477623796  98.21756350294089 21.23633720516134  98.3927144364123 21.257417918600247  C 98.56786536988369 21.27849863203915  98.79556054877477 21.28903849674458  99.0758026191009 21.28903849674458  C 99.0758026191009 21.28903849674458  99.89550082731684 21.28903849674458  99.89550082731684 21.28903849674458  C 99.89550082731684 21.28903849674458  99.89550082731684 22.870080762887376  99.89550082731684 22.870080762887376  C 99.89550082731684 22.870080762887376  98.52933207295001 22.870080762887376  98.52933207295001 22.870080762887376  C 98.06693396654086 22.870080762887376  97.67110018130379 22.838459155986456  97.34181656551634 22.77521712003636  C 97.0125329497289 22.711975084086262  96.74630659963555 22.59603424644206  96.54313235699293 22.427388852030674  C 96.33995711837824 22.258743353252676  96.18932891241847 22.01983336205048  96.09124383698433 21.71065002217173  C 95.99315975752225 21.401466682292977  95.94412300610556 20.993912623626297  95.94412300610556 20.48797621674939  C 95.94412300610556 20.48797621674939  95.94412300610556 13.552466432631004  95.94412300610556 13.552466432631004  C 95.94412300610556 13.552466432631004  94.09453331567579 13.552466432631004  94.09453331567579 13.552466432631004  C 94.09453331567579 13.552466432631004  94.09453331567579 11.971424166488207  94.09453331567579 11.971424166488207  C 94.09453331567579 11.971424166488207  95.94412300610556 11.971424166488207  95.94412300610556 11.971424166488207  C 95.94412300610556 11.971424166488207  95.94412300610556 8.7039338902188  95.94412300610556 8.7039338902188  C 95.94412300610556 8.7039338902188  97.7306478644266 8.7039338902188  97.7306478644266 8.7039338902188  Z M 113.87246686546625 22.870080762887376  C 113.87246686546625 22.870080762887376  113.87246686546625 11.971424166488207  113.87246686546625 11.971424166488207  C 113.87246686546625 11.971424166488207  115.55390650330393 11.971424166488207  115.55390650330393 11.971424166488207  C 115.55390650330393 11.971424166488207  115.55390650330393 14.269207170907968  115.55390650330393 14.269207170907968  C 115.55390650330393 14.269207170907968  115.59594972470975 14.269207170907968  115.59594972470975 14.269207170907968  C 116.0303234962451 13.38381851851145  116.56277518559449 12.730325884357502  117.19331814175659 12.308712241779116  C 117.8238610979187 11.887098599200726  118.62253811165886 11.690348174914247  119.58937076732686 11.718455724497504  C 119.58937076732686 11.718455724497504  119.58937076732686 13.615707588919669  119.58937076732686 13.615707588919669  C 118.87475492546537 13.615707588919669  118.26522965557895 13.714083749680851  117.76079507658959 13.910836801769486  C 117.25636049760026 14.10758985385812  116.85002015847456 14.395688022352756  116.54175476411196 14.775140238053337  C 116.23348936974935 15.154592573030046  116.00930554239486 15.614848042556087  115.8691849977852 16.155918842615357  C 115.72906345720348 16.69698976195075  115.65899933479768 17.318858865876244  115.65899933479768 18.02154822047517  C 115.65899933479768 18.02154822047517  115.65899933479768 22.870080762887376  115.65899933479768 22.870080762887376  C 115.65899933479768 22.870080762887376  113.87246686546625 22.870080762887376  113.87246686546625 22.870080762887376  Z M 42.66350353074772 9.631480391209337  C 42.66350353074772 9.631480391209337  40.12032626879349 16.65131171704595  40.12032626879349 16.65131171704595  C 40.12032626879349 16.65131171704595  45.20668079270195 16.65131171704595  45.20668079270195 16.65131171704595  C 45.20668079270195 16.65131171704595  42.70553914114314 9.631480391209337  42.70553914114314 9.631480391209337  C 42.70553914114314 9.631480391209337  42.66350353074772 9.631480391209337  42.66350353074772 9.631480391209337  Z M 59.16262902565367 18.885851656759026  C 59.27472556242513 18.37991524988212  59.330771467235365 17.859933721323806  59.330771467235365 17.325889776045784  C 59.330771467235365 16.819953488445005  59.264218889614476 16.324564937773985  59.1311042206097 15.839709244335987  C 58.99798955160493 15.354853550897985  58.79481175616644 14.922706424886915  58.52157645336049 14.543254089910207  C 58.248341150554545 14.163801874209625  57.89804659731704 13.861650488166514  57.47067858246454 13.636789882767243  C 57.043310567612025 13.411929277367975  56.54238689420163 13.299499899058318  55.96789219156 13.299499899058318  C 55.36537333242762 13.299499899058318  54.853942926745546 13.41895578923036  54.433580995611486 13.657870268196799  C 54.01321897528591 13.896784642796629  53.669926343495554 14.209475893545171  53.403697124408055 14.595955053484097  C 53.13746778639852 14.982434213423021  52.944804282213696 15.421607955663088  52.825701773213204 15.91349059333943  C 52.70659916015592 16.405373111739646  52.64704852628006 16.904274910887104  52.64704852628006 17.410211317764006  C 52.64704852628006 17.9442551437659  52.71010399327834 18.460725451541926  52.836212578564655 18.959634914180484  C 52.962321267907754 19.458544376819045  53.16198662664607 19.897718238335237  53.43522192945202 20.277170454035822  C 53.70845723225798 20.656622669736404  54.062256507128474 20.962287319165466  54.49663060569943 21.19417485389356  C 54.931004585348354 21.426062388621656  55.45645411540651 21.542005030317267  56.072985023053754 21.542005030317267  C 56.68951599016201 21.542005030317267  57.20445105801607 21.422549035778612  57.61780702435371 21.183634661178786  C 58.03116299069135 20.944720286578956  58.36394130893015 20.628515697896884  58.616158479502786 20.23500968317671  C 58.86837565007543 19.841503578999443  59.05053248888221 19.391788063635925  59.16262902565367 18.885851656759026  Z M 71.62629786754711 18.885851656759026  C 71.73839440431857 18.37991524988212  71.7944403091288 17.859933721323806  71.7944403091288 17.325889776045784  C 71.7944403091288 16.819953488445005  71.72788773150792 16.324564937773985  71.59477306250314 15.839709244335987  C 71.46165849755515 15.354853550897985  71.25848820907028 14.922706424886915  70.98525290626432 14.543254089910207  C 70.71201760345836 14.163801874209625  70.36171552840202 13.861650488166514  69.93434742435797 13.636789882767243  C 69.50697940950546 13.411929277367975  69.00605573609506 13.299499899058318  68.43156103345343 13.299499899058318  C 67.82904217432106 13.299499899058318  67.31761185783051 13.41895578923036  66.89724983750493 13.657870268196799  C 66.47688781717935 13.896784642796629  66.133595185389 14.209475893545171  65.86736596630149 14.595955053484097  C 65.60113674721399 14.982434213423021  65.40847312410713 15.421607955663088  65.28937061510663 15.91349059333943  C 65.17026800204935 16.405373111739646  65.1107173681735 16.904274910887104  65.1107173681735 17.410211317764006  C 65.1107173681735 17.9442551437659  65.17377283517177 18.460725451541926  65.29988142045809 18.959634914180484  C 65.42599000574441 19.458544376819045  65.6256630795499 19.897718238335237  65.89889838235585 20.277170454035822  C 66.17213368516181 20.656622669736404  66.5259329600323 20.962287319165466  66.96030705860326 21.19417485389356  C 67.39468115717422 21.426062388621656  67.92012295729995 21.542005030317267  68.53665386494718 21.542005030317267  C 69.15318483205544 21.542005030317267  69.66811981071797 21.422549035778612  70.08147586624715 21.183634661178786  C 70.49483183258478 20.944720286578956  70.82761776183399 20.628515697896884  71.07983493240661 20.23500968317671  C 71.3320522219013 19.841503578999443  71.51420133077566 19.391788063635925  71.62629786754711 18.885851656759026  Z M 103.43703334992533 15.671064252481523  C 103.26188241645394 16.184027514139675  103.17430888220134 16.77076556461433  103.17430888220134 17.43129361161158  C 103.17430888220134 18.091821658608826  103.26188241645394 18.678557800665466  103.43703334992533 19.191521062323616  C 103.61218428339673 19.704484323981767  103.85389174864676 20.133118290973496  104.16215714300937 20.477436024034617  C 104.47042253737196 20.821753876371865  104.83122325800146 21.08525882842695  105.24457981894929 21.267958111315025  C 105.65793536905979 21.45065728983649  106.09581166217046 21.542005030317267  106.55820976857962 21.542005030317267  C 107.02060787498878 21.542005030317267  107.45847655708904 21.45065728983649  107.87183210719957 21.267958111315025  C 108.2851886681474 21.08525882842695  108.64599699978727 20.821753876371865  108.95426239414988 20.477436024034617  C 109.26252778851247 20.133118290973496  109.50422764275211 19.704484323981767  109.6793785762235 19.191521062323616  C 109.8545295096949 18.678557800665466  109.9421030439475 18.091821658608826  109.9421030439475 17.43129361161158  C 109.9421030439475 16.77076556461433  109.8545295096949 16.184027514139675  109.6793785762235 15.671064252481523  C 109.50422764275211 15.158100990823373  109.26252778851247 14.725953775355208  108.95426239414988 14.374609098055743  C 108.64599699978727 14.023264420756282  108.2851886681474 13.756246100948633  107.87183210719957 13.57354681806056  C 107.45847655708904 13.390847535172485  107.02060787498878 13.299499899058318  106.55820976857962 13.299499899058318  C 106.09581166217046 13.299499899058318  105.65793536905979 13.390847535172485  105.24457981894929 13.57354681806056  C 104.83122325800146 13.756246100948633  104.47042253737196 14.023264420756282  104.16215714300937 14.374609098055743  C 103.85389174864676 14.725953775355208  103.61218428339673 15.158100990823373  103.43703334992533 15.671064252481523  Z M 121.85930895070044 16.377264798043708  C 121.85930895070044 16.377264798043708  128.10164656598823 16.377264798043708  128.10164656598823 16.377264798043708  C 128.07362225712862 15.955651244922414  127.97904687947147 15.555123713027639  127.8179080985717 15.17567137805093  C 127.65676931767197 14.796219162350347  127.43957972642794 14.469472770725796  127.16634472092709 14.195423913486504  C 126.89310971542622 13.921375056247212  126.57083815918962 13.703544809365399  126.19951807082198 13.541926239916226  C 125.82819798245434 13.380307670467053  125.41836050297552 13.299499899058318  124.96997456400327 13.299499899058318  C 124.50757645759411 13.299499899058318  124.09071330199119 13.380307670467053  123.71939422446087 13.541926239916226  C 123.34807413609323 13.703544809365399  123.02931491250003 13.924888394180742  122.76308599071761 14.20596410620128  C 122.49685706893521 14.487039907678916  122.28667692095719 14.813786180027343  122.13254422377588 15.186211570765707  C 121.97841152659458 15.558636961504073  121.88733325956004 15.955651244922414  121.85930895070044 16.377264798043708  Z " fill-rule="evenodd" />
    </mask>
  </defs>
  <g transform="matrix(1 0 0 1 -14 -10 )">
    <path d="M 35.76959873231011 22.870080762887376  C 35.76959873231011 22.870080762887376  41.61260185434657 7.818550068505391  41.61260185434657 7.818550068505391  C 41.61260185434657 7.818550068505391  43.81949042763223 7.818550068505391  43.81949042763223 7.818550068505391  C 43.81949042763223 7.818550068505391  49.683511354866404 22.870080762887376  49.683511354866404 22.870080762887376  C 49.683511354866404 22.870080762887376  47.476622781580744 22.870080762887376  47.476622781580744 22.870080762887376  C 47.476622781580744 22.870080762887376  45.83721875413849 18.33775781875454  45.83721875413849 18.33775781875454  C 45.83721875413849 18.33775781875454  39.48978450185176 18.33775781875454  39.48978450185176 18.33775781875454  C 39.48978450185176 18.33775781875454  37.80834486401408 22.870080762887376  37.80834486401408 22.870080762887376  C 37.80834486401408 22.870080762887376  35.76959873231011 22.870080762887376  35.76959873231011 22.870080762887376  Z M 50.92357327804696 27.022954860870193  C 50.92357327804696 27.022954860870193  50.92357327804696 11.971424166488207  50.92357327804696 11.971424166488207  C 50.92357327804696 11.971424166488207  52.71010574737839 11.971424166488207  52.71010574737839 11.971424166488207  C 52.71010574737839 11.971424166488207  52.71010574737839 13.447064505483226  52.71010574737839 13.447064505483226  C 52.71010574737839 13.447064505483226  52.75214135777381 13.447064505483226  52.75214135777381 13.447064505483226  C 53.046394703621544 12.842751654564342  53.50878109621002 12.403575914449165  54.13932411183314 12.129527057209874  C 54.76986706799525 11.855478199970582  55.46345422329258 11.718455724497504  56.22010585393254 11.718455724497504  C 57.06082983512268 11.718455724497504  57.79295427124195 11.873046589323028  58.41649123287713 12.182229929201782  C 59.04002819451231 12.491413269080534  59.5584680731909 12.909507281909738  59.97182403952855 13.436524312768448  C 60.38518009505771 13.963541403265221  60.6969372634165 14.571357334370784  60.907118273579286 15.259992919769154  C 61.117299283742085 15.94862850516752  61.22238915705015 16.679415677163284  61.22238915705015 17.452373997041136  C 61.22238915705015 18.225332316918987  61.12080402024034 18.95611758049673  60.917629078930744 19.644753165895096  C 60.714454137621146 20.333388751293462  60.4061940055587 20.934180034226113  59.992838039221056 21.447143295884263  C 59.579482072883415 21.960106557542417  59.06104219420482 22.36414733791363  58.43750523256965 22.65927690859182  C 57.81396827093446 22.954406389812917  57.08885339700324 23.101968819448526  56.262141464327954 23.101968819448526  C 55.99591212631842 23.101968819448526  55.69816645646007 23.073862477536046  55.36888284067263 23.0176472777303  C 55.03959931407672 22.96143217856379  54.71382294701557 22.87008252221024  54.39154538521607 22.743598450310042  C 54.06926782341657 22.61711437840985  53.76450489116826 22.444957047559413  53.47725753984745 22.227123282031876  C 53.19001018852663 22.009289620870952  52.948310319421736 21.738757948220258  52.75214135777381 21.415520809321915  C 52.75214135777381 21.415520809321915  52.71010574737839 21.415520809321915  52.71010574737839 21.415520809321915  C 52.71010574737839 21.415520809321915  52.71010574737839 27.022954860870193  52.71010574737839 27.022954860870193  C 52.71010574737839 27.022954860870193  50.92357327804696 27.022954860870193  50.92357327804696 27.022954860870193  Z M 63.38724211994039 27.022954860870193  C 63.38724211994039 27.022954860870193  63.38724211994039 11.971424166488207  63.38724211994039 11.971424166488207  C 63.38724211994039 11.971424166488207  65.17377458927183 11.971424166488207  65.17377458927183 11.971424166488207  C 65.17377458927183 11.971424166488207  65.17377458927183 13.447064505483226  65.17377458927183 13.447064505483226  C 65.17377458927183 13.447064505483226  65.21581019966725 13.447064505483226  65.21581019966725 13.447064505483226  C 65.51006363470651 12.842751654564342  65.97245754911386 12.403575914449165  66.60300056473697 12.129527057209874  C 67.23354358036009 11.855478199970582  67.92713067619641 11.718455724497504  68.68378230683636 11.718455724497504  C 69.5245062880265 11.718455724497504  70.25662311313538 11.873046589323028  70.88016007477057 12.182229929201782  C 71.50369703640575 12.491413269080534  72.02213691508435 12.909507281909738  72.43549288142198 13.436524312768448  C 72.84884884775961 13.963541403265221  73.16061380551186 14.571357334370784  73.37079472648311 15.259992919769154  C 73.58097573664591 15.94862850516752  73.68606560995397 16.679415677163284  73.68606560995397 17.452373997041136  C 73.68606560995397 18.225332316918987  73.5844805623357 18.95611758049673  73.38130553183457 19.644753165895096  C 73.17813059052499 20.333388751293462  72.86986293664367 20.934180034226113  72.45650688111449 21.447143295884263  C 72.04315091477685 21.960106557542417  71.52471864710864 22.36414733791363  70.90118168547347 22.65927690859182  C 70.27764472383829 22.954406389812917  69.55252990936809 23.101968819448526  68.72581791723178 23.101968819448526  C 68.45958869814429 23.101968819448526  68.16183520916199 23.073862477536046  67.83255168256606 23.0176472777303  C 67.50326806677863 22.96143217856379  67.17749178890901 22.87008252221024  66.85521422710951 22.743598450310042  C 66.53293666531 22.61711437840985  66.22818134407208 22.444957047559413  65.94093399275127 22.227123282031876  C 65.65368664143047 22.009289620870952  65.41197916131517 21.738757948220258  65.21581019966725 21.415520809321915  C 65.21581019966725 21.415520809321915  65.17377458927183 21.415520809321915  65.17377458927183 21.415520809321915  C 65.17377458927183 21.415520809321915  65.17377458927183 27.022954860870193  65.17377458927183 27.022954860870193  C 65.17377458927183 27.022954860870193  63.38724211994039 27.022954860870193  63.38724211994039 27.022954860870193  Z M 101.61897607554994 19.665833551324653  C 101.39478260064516 18.977197965926287  101.28269119238655 18.232359469890547  101.28269119238655 17.43129361161158  C 101.28269119238655 16.63022775333261  101.39478260064516 15.881874070583386  101.61897607554994 15.186211570765707  C 101.84316955045472 14.490549070948031  102.17945899725127 13.886244509719914  102.62784594706086 13.373281248061764  C 103.07623188603311 12.86031792676555  103.62969674262075 12.456279024993323  104.28826397419563 12.161149543772225  C 104.94683120577051 11.866019973094033  105.70347433348479 11.718455724497504  106.55820976857962 11.718455724497504  C 107.42695832248765 11.718455724497504  108.18709757971773 11.866019973094033  108.83865875730466 12.161149543772225  C 109.49021993489161 12.456279024993323  110.04018765112612 12.86031792676555  110.48857359009838 13.373281248061764  C 110.93695952907063 13.886244509719914  111.27324237569412 14.490549070948031  111.49743585059892 15.186211570765707  C 111.72162831466639 15.881874070583386  111.83372073376228 16.63022775333261  111.83372073376228 17.43129361161158  C 111.83372073376228 18.232359469890547  111.72162831466639 18.977197965926287  111.49743585059892 19.665833551324653  C 111.27324237569412 20.354469255999145  110.93695952907063 20.95526041965567  110.48857359009838 21.46822368131382  C 110.04018765112612 21.981186942971974  109.49021993489161 22.38171256644873  108.83865875730466 22.66981519288858  C 108.18709757971773 22.957917938604556  107.42695832248765 23.101968819448526  106.55820976857962 23.101968819448526  C 105.70347433348479 23.101968819448526  104.94683120577051 22.957917938604556  104.28826397419563 22.66981519288858  C 103.62969674262075 22.38171256644873  103.07623188603311 21.981186942971974  102.62784594706086 21.46822368131382  C 102.17945899725127 20.95526041965567  101.84316955045472 20.354469255999145  101.61897607554994 19.665833551324653  Z M 128.05961856660318 19.412867017751967  C 128.05961856660318 19.412867017751967  129.82512942523172 19.412867017751967  129.82512942523172 19.412867017751967  C 129.58692379775528 20.635546548428355  129.06148256250924 21.556057606756564  128.2487826188878 22.174424226876006  C 127.43608267526635 22.792790906633513  126.41320658242039 23.101968819448526  125.18014500496999 23.101968819448526  C 124.31139645106195 23.101968819448526  123.5582590260875 22.96143309549901  122.92071001593744 22.680357294021377  C 122.28316100578742 22.39928158200084  121.74721318692222 22.00578054705893  121.31283840454957 21.499844259458154  C 120.8784646330142 20.993907852581252  120.55269495531766 20.389603291353136  120.33550856010339 19.68691393675421  C 120.11832116891705 18.98422458215528  119.99570795873485 18.2183043886526  119.96768364987526 17.38913093233445  C 119.96768364987526 16.559957476016297  120.09379497036844 15.801065926436756  120.34601175444445 15.112430221762263  C 120.59822951962727 14.423794636363898  120.95203601901154 13.826516691364777  121.40742804170225 13.320580284487873  C 121.86282006439296 12.814643996887098  122.40226499388075 12.421144870363209  123.02580284743121 12.14006915834267  C 123.64933969014434 11.858993356865037  124.33242822959906 11.718455724497504  125.07506739549702 11.718455724497504  C 126.04190005116502 11.718455724497504  126.8440742052583 11.918719505354407  127.48162321540835 12.319252434493892  C 128.11917222555837 12.719785363633378  128.63061077740002 13.229229025361377  129.01594202236723 13.84759564548082  C 129.40127427817177 14.465962325238323  129.6674996174278 15.140532929480273  129.81462623089067 15.87132982248032  C 129.9617528443535 16.60212683475649  130.02129517784277 17.297779017189256  129.99327186681342 17.958307064186503  C 129.99327186681342 17.958307064186503  121.85930895070044 17.958307064186503  121.85930895070044 17.958307064186503  C 121.84529679627063 18.436135813386162  121.90134300024411 18.889364696502238  122.02745139228213 19.318005283318968  C 122.15355978432014 19.7466457806786  122.35673045930164 20.126091585287405  122.63697154852096 20.45635563860506  C 122.91721361884707 20.78661960246562  123.27451725858445 21.050124673796834  123.70889103011982 21.24687772588547  C 124.14326581249249 21.443630777974104  124.65470338322731 21.542005030317267  125.24320983707871 21.542005030317267  C 125.99986117041357 21.542005030317267  126.61987878300515 21.3663362550418  127.10329511083914 21.014991577742336  C 127.58671143867315 20.663646900442878  127.9054858694219 20.129610141551453  128.05961856660318 19.412867017751967  Z M 12.356210888920348 7.660983443246851  C 13.974017485154723 7.660983443246851  15.247057678520054 6.252313309348154  17.646062900434284 6.252313309348154  C 20.88099205334405 6.252313309348154  22.949593800375375 9.391596063151733  22.949593800375375 9.391596063151733  C 22.949593800375375 9.391596063151733  19.79401561474892 11.109082106822608  19.79401561474892 14.839053157484427  C 19.79401561474892 19.266105378208238  23.758157100387706 20.553873890919462  23.758157100387706 20.553873890919462  C 23.758157100387706 20.553873890919462  20.629256457561766 28  17.115914166069203 28  C 15.140343345046679 28  15.008319072202612 26.860075199848854  12.382889383097163 26.860075199848854  C 10.102910849951973 26.860075199848854  9.334025887710197 28  7.597192602706779 28  C 4.282228205110641 28  0 20.741789133713173  0 14.839053157484427  C 0 8.707640992219243  4.335584955620198 6.252313309348154  7.053363077161946 6.252313309348154  C 9.440055111326249 6.252313309348154  10.433996818407381 7.660983443246851  12.356210888920348 7.660983443246851  Z M 11.601006480014247 6.6011988409359486  C 11.123531199862468 2.777270407429526  14.623877423535983 0.20173204015066143  17.089920662827673 0  C 17.566711903420465 3.0052555105911067  14.848932622388853 6.722099888107066  11.601006480014247 6.6011988409359486  Z M 92.49717250963934 12.22439070006089  C 92.49717250963934 12.22439070006089  90.60554720881416 12.22439070006089  90.60554720881416 12.22439070006089  C 90.49345097678042 11.142249099942351  90.10462564626992 10.358762425505244  89.43905331208339 9.873906732067242  C 88.77347996705954 9.389051038629244  87.92225386182668 9.146625801075503  86.8853614392725 9.146625801075503  C 86.46499882433675 9.146625801075503  86.05164927978912 9.188787272681855  85.64529951609197 9.273110022070854  C 85.23894963347277 9.357432674548003  84.87814831823309 9.497968599775978  84.56287684015204 9.694721547498002  C 84.24760536207098 9.891474599586637  83.99539111995351 10.154979581460754  83.80622824202405 10.48524363477841  C 83.61706536409457 10.815507598638971  83.52248216359715 11.226573206097287  83.52248216359715 11.718455724497504  C 83.52248216359715 12.1822307044966  83.65909977040437 12.558165169046987  83.93233507321031 12.846267795486837  C 84.20557037601625 13.134370421926686  84.56987635342793 13.369767254109538  85.02526855450168 13.552466432631004  C 85.48066066638393 13.735165715519077  85.99559620992613 13.886241296719266  86.57009055580164 14.005698536202486  C 87.14458585305347 14.125155671319092  87.72958565278876 14.255151627475032  88.32509822008912 14.395689483485299  C 88.92061078738946 14.53622733949557  89.50560297611437 14.70135815848362  90.08009827336618 14.891084266333912  C 90.6545926192417 15.080810374184201  91.16952825197544 15.337286920868403  91.62492027466615 15.660524059766743  C 92.08031229735684 15.98376119866509  92.44462535062974 16.391315227512738  92.71786136696792 16.88319786518908  C 92.99109637246876 17.375080383589296  93.12770666557068 17.993438177275404  93.12770666557068 18.738288958752136  C 93.12770666557068 19.539354817031104  92.94905484570198 20.224465256159455  92.59174692477126 20.793643713895968  C 92.23443900384052 21.362822171632484  91.77555055432892 21.82659088963496  91.21506736505297 22.184962511172767  C 90.65458518661436 22.54333413271057  90.02755714964997 22.803325836289222  89.33396048058964 22.964944405738393  C 88.64036286015302 23.126562975187568  87.95028009945307 23.2073707465963  87.26368954384169 23.2073707465963  C 86.42296526534646 23.2073707465963  85.62779335973593 23.10196788014903  84.8781477236229 22.891161148316932  C 84.12850214697089 22.680354327027736  83.46993985066055 22.360636564416808  82.90245120200687 21.93199597760008  C 82.33496243443115 21.503355480240444  81.8865876741304 20.95526548889103  81.55730405834296 20.287710646750597  C 81.22802053174705 19.620155685334037  81.06337992793895 18.829642484125028  81.06337992793895 17.916146293327394  C 81.06337992793895 17.916146293327394  82.95499761775375 17.916146293327394  82.95499761775375 17.916146293327394  C 82.95499761775375 18.548566682647394  83.07760371119525 19.093143395701343  83.32281491697148 19.549891431462097  C 83.56802601869093 20.006639556679946  83.89029767898433 20.38257202335522  84.2896415670766 20.67770159403341  C 84.68898545516888 20.972831164711604  85.15487668831238 21.190661322136325  85.68733512648738 21.33119926760369  C 86.21979380250646 21.47173712361396  86.76625596465371 21.542005030317267  87.32673915392964 21.542005030317267  C 87.77512509290189 21.542005030317267  88.22701269126469 21.499843558710914  88.68240471395539 21.415520809321915  C 89.13779673664611 21.331198059932913  89.54764182713531 21.187148983140354  89.9119558317845 20.983369091179988  C 90.27626885532688 20.779589109762526  90.57051778619396 20.502030910339933  90.79471126109875 20.15068623304047  C 91.01890372516623 19.799341555741005  91.13099614426214 19.34962782951938  91.13099614426214 18.8015301150408  C 91.13099614426214 18.281540058239464  90.99438585116022 17.8599326776577  90.72115084565937 17.536695538759357  C 90.4479158401585 17.213458519137138  90.0836027571551 16.949953343439315  89.6282097533576 16.74617345147895  C 89.17281773066689 16.54239355951858  88.65788304930946 16.37726464894855  88.08338775205763 16.250780577048356  C 87.50889340618211 16.124296505148163  86.92390026608093 15.99430064590408  86.32838769878056 15.860789629765542  C 85.73287435848697 15.727278717993613  85.14788234814512 15.572689776495626  84.57338764550349 15.397017333479281  C 83.99889294286187 15.221344994829549  83.48395775608577 14.989461515489744  83.02856564420354 14.701358889049892  C 82.57317344312976 14.413256143333914  82.20885985470771 14.04083504653609  81.93562455190177 13.584087010775338  C 81.66238924909581 13.127338885557489  81.52577164228859 12.554655916320778  81.52577164228859 11.866020330922412  C 81.52577164228859 11.10711578024512  81.67990548409452 10.450111686756628  81.98817096764864 9.894987117496798  C 82.29643636201124 9.339862428960844  82.70628163088351 8.883120207911238  83.21772208547773 8.524748705649559  C 83.72916254007197 8.166377084111751  84.31065788574884 7.899360777088733  84.96221894441373 7.723688334072391  C 85.61378000307866 7.548015995422658  86.28284109361466 7.46017969936691  86.96943266006336 7.46017969936691  C 87.74009616083511 7.46017969936691  88.45470439168619 7.551529348265704  89.11327162326107 7.734228526787168  C 89.77183885483596 7.916927809675244  90.34982921130523 8.205025948350848  90.84725767684563 8.59853196307102  C 91.34468614238602 8.992038067248288  91.73701520599009 9.487426498643183  92.02426237892786 10.084712494780817  C 92.3115105329724 10.681998371642326  92.46914820077974 11.39521724374274  92.49717250963934 12.22439070006089  Z M 97.7306478644266 8.7039338902188  C 97.7306478644266 8.7039338902188  97.7306478644266 11.971424166488207  97.7306478644266 11.971424166488207  C 97.7306478644266 11.971424166488207  99.89550082731684 11.971424166488207  99.89550082731684 11.971424166488207  C 99.89550082731684 11.971424166488207  99.89550082731684 13.552466432631004  99.89550082731684 13.552466432631004  C 99.89550082731684 13.552466432631004  97.7306478644266 13.552466432631004  97.7306478644266 13.552466432631004  C 97.7306478644266 13.552466432631004  97.7306478644266 20.31933122489493  97.7306478644266 20.31933122489493  C 97.7306478644266 20.530138046184124  97.74816389502804 20.69878212855813  97.78319428017348 20.82526620045832  C 97.81822366934684 20.951750376725123  97.88478406237537 21.05012462906829  97.98286913780952 21.120393504890117  C 98.0809532172716 21.190662477623796  98.21756350294089 21.23633720516134  98.3927144364123 21.257417918600247  C 98.56786536988369 21.27849863203915  98.79556054877477 21.28903849674458  99.0758026191009 21.28903849674458  C 99.0758026191009 21.28903849674458  99.89550082731684 21.28903849674458  99.89550082731684 21.28903849674458  C 99.89550082731684 21.28903849674458  99.89550082731684 22.870080762887376  99.89550082731684 22.870080762887376  C 99.89550082731684 22.870080762887376  98.52933207295001 22.870080762887376  98.52933207295001 22.870080762887376  C 98.06693396654086 22.870080762887376  97.67110018130379 22.838459155986456  97.34181656551634 22.77521712003636  C 97.0125329497289 22.711975084086262  96.74630659963555 22.59603424644206  96.54313235699293 22.427388852030674  C 96.33995711837824 22.258743353252676  96.18932891241847 22.01983336205048  96.09124383698433 21.71065002217173  C 95.99315975752225 21.401466682292977  95.94412300610556 20.993912623626297  95.94412300610556 20.48797621674939  C 95.94412300610556 20.48797621674939  95.94412300610556 13.552466432631004  95.94412300610556 13.552466432631004  C 95.94412300610556 13.552466432631004  94.09453331567579 13.552466432631004  94.09453331567579 13.552466432631004  C 94.09453331567579 13.552466432631004  94.09453331567579 11.971424166488207  94.09453331567579 11.971424166488207  C 94.09453331567579 11.971424166488207  95.94412300610556 11.971424166488207  95.94412300610556 11.971424166488207  C 95.94412300610556 11.971424166488207  95.94412300610556 8.7039338902188  95.94412300610556 8.7039338902188  C 95.94412300610556 8.7039338902188  97.7306478644266 8.7039338902188  97.7306478644266 8.7039338902188  Z M 113.87246686546625 22.870080762887376  C 113.87246686546625 22.870080762887376  113.87246686546625 11.971424166488207  113.87246686546625 11.971424166488207  C 113.87246686546625 11.971424166488207  115.55390650330393 11.971424166488207  115.55390650330393 11.971424166488207  C 115.55390650330393 11.971424166488207  115.55390650330393 14.269207170907968  115.55390650330393 14.269207170907968  C 115.55390650330393 14.269207170907968  115.59594972470975 14.269207170907968  115.59594972470975 14.269207170907968  C 116.0303234962451 13.38381851851145  116.56277518559449 12.730325884357502  117.19331814175659 12.308712241779116  C 117.8238610979187 11.887098599200726  118.62253811165886 11.690348174914247  119.58937076732686 11.718455724497504  C 119.58937076732686 11.718455724497504  119.58937076732686 13.615707588919669  119.58937076732686 13.615707588919669  C 118.87475492546537 13.615707588919669  118.26522965557895 13.714083749680851  117.76079507658959 13.910836801769486  C 117.25636049760026 14.10758985385812  116.85002015847456 14.395688022352756  116.54175476411196 14.775140238053337  C 116.23348936974935 15.154592573030046  116.00930554239486 15.614848042556087  115.8691849977852 16.155918842615357  C 115.72906345720348 16.69698976195075  115.65899933479768 17.318858865876244  115.65899933479768 18.02154822047517  C 115.65899933479768 18.02154822047517  115.65899933479768 22.870080762887376  115.65899933479768 22.870080762887376  C 115.65899933479768 22.870080762887376  113.87246686546625 22.870080762887376  113.87246686546625 22.870080762887376  Z M 42.66350353074772 9.631480391209337  C 42.66350353074772 9.631480391209337  40.12032626879349 16.65131171704595  40.12032626879349 16.65131171704595  C 40.12032626879349 16.65131171704595  45.20668079270195 16.65131171704595  45.20668079270195 16.65131171704595  C 45.20668079270195 16.65131171704595  42.70553914114314 9.631480391209337  42.70553914114314 9.631480391209337  C 42.70553914114314 9.631480391209337  42.66350353074772 9.631480391209337  42.66350353074772 9.631480391209337  Z M 59.16262902565367 18.885851656759026  C 59.27472556242513 18.37991524988212  59.330771467235365 17.859933721323806  59.330771467235365 17.325889776045784  C 59.330771467235365 16.819953488445005  59.264218889614476 16.324564937773985  59.1311042206097 15.839709244335987  C 58.99798955160493 15.354853550897985  58.79481175616644 14.922706424886915  58.52157645336049 14.543254089910207  C 58.248341150554545 14.163801874209625  57.89804659731704 13.861650488166514  57.47067858246454 13.636789882767243  C 57.043310567612025 13.411929277367975  56.54238689420163 13.299499899058318  55.96789219156 13.299499899058318  C 55.36537333242762 13.299499899058318  54.853942926745546 13.41895578923036  54.433580995611486 13.657870268196799  C 54.01321897528591 13.896784642796629  53.669926343495554 14.209475893545171  53.403697124408055 14.595955053484097  C 53.13746778639852 14.982434213423021  52.944804282213696 15.421607955663088  52.825701773213204 15.91349059333943  C 52.70659916015592 16.405373111739646  52.64704852628006 16.904274910887104  52.64704852628006 17.410211317764006  C 52.64704852628006 17.9442551437659  52.71010399327834 18.460725451541926  52.836212578564655 18.959634914180484  C 52.962321267907754 19.458544376819045  53.16198662664607 19.897718238335237  53.43522192945202 20.277170454035822  C 53.70845723225798 20.656622669736404  54.062256507128474 20.962287319165466  54.49663060569943 21.19417485389356  C 54.931004585348354 21.426062388621656  55.45645411540651 21.542005030317267  56.072985023053754 21.542005030317267  C 56.68951599016201 21.542005030317267  57.20445105801607 21.422549035778612  57.61780702435371 21.183634661178786  C 58.03116299069135 20.944720286578956  58.36394130893015 20.628515697896884  58.616158479502786 20.23500968317671  C 58.86837565007543 19.841503578999443  59.05053248888221 19.391788063635925  59.16262902565367 18.885851656759026  Z M 71.62629786754711 18.885851656759026  C 71.73839440431857 18.37991524988212  71.7944403091288 17.859933721323806  71.7944403091288 17.325889776045784  C 71.7944403091288 16.819953488445005  71.72788773150792 16.324564937773985  71.59477306250314 15.839709244335987  C 71.46165849755515 15.354853550897985  71.25848820907028 14.922706424886915  70.98525290626432 14.543254089910207  C 70.71201760345836 14.163801874209625  70.36171552840202 13.861650488166514  69.93434742435797 13.636789882767243  C 69.50697940950546 13.411929277367975  69.00605573609506 13.299499899058318  68.43156103345343 13.299499899058318  C 67.82904217432106 13.299499899058318  67.31761185783051 13.41895578923036  66.89724983750493 13.657870268196799  C 66.47688781717935 13.896784642796629  66.133595185389 14.209475893545171  65.86736596630149 14.595955053484097  C 65.60113674721399 14.982434213423021  65.40847312410713 15.421607955663088  65.28937061510663 15.91349059333943  C 65.17026800204935 16.405373111739646  65.1107173681735 16.904274910887104  65.1107173681735 17.410211317764006  C 65.1107173681735 17.9442551437659  65.17377283517177 18.460725451541926  65.29988142045809 18.959634914180484  C 65.42599000574441 19.458544376819045  65.6256630795499 19.897718238335237  65.89889838235585 20.277170454035822  C 66.17213368516181 20.656622669736404  66.5259329600323 20.962287319165466  66.96030705860326 21.19417485389356  C 67.39468115717422 21.426062388621656  67.92012295729995 21.542005030317267  68.53665386494718 21.542005030317267  C 69.15318483205544 21.542005030317267  69.66811981071797 21.422549035778612  70.08147586624715 21.183634661178786  C 70.49483183258478 20.944720286578956  70.82761776183399 20.628515697896884  71.07983493240661 20.23500968317671  C 71.3320522219013 19.841503578999443  71.51420133077566 19.391788063635925  71.62629786754711 18.885851656759026  Z M 103.43703334992533 15.671064252481523  C 103.26188241645394 16.184027514139675  103.17430888220134 16.77076556461433  103.17430888220134 17.43129361161158  C 103.17430888220134 18.091821658608826  103.26188241645394 18.678557800665466  103.43703334992533 19.191521062323616  C 103.61218428339673 19.704484323981767  103.85389174864676 20.133118290973496  104.16215714300937 20.477436024034617  C 104.47042253737196 20.821753876371865  104.83122325800146 21.08525882842695  105.24457981894929 21.267958111315025  C 105.65793536905979 21.45065728983649  106.09581166217046 21.542005030317267  106.55820976857962 21.542005030317267  C 107.02060787498878 21.542005030317267  107.45847655708904 21.45065728983649  107.87183210719957 21.267958111315025  C 108.2851886681474 21.08525882842695  108.64599699978727 20.821753876371865  108.95426239414988 20.477436024034617  C 109.26252778851247 20.133118290973496  109.50422764275211 19.704484323981767  109.6793785762235 19.191521062323616  C 109.8545295096949 18.678557800665466  109.9421030439475 18.091821658608826  109.9421030439475 17.43129361161158  C 109.9421030439475 16.77076556461433  109.8545295096949 16.184027514139675  109.6793785762235 15.671064252481523  C 109.50422764275211 15.158100990823373  109.26252778851247 14.725953775355208  108.95426239414988 14.374609098055743  C 108.64599699978727 14.023264420756282  108.2851886681474 13.756246100948633  107.87183210719957 13.57354681806056  C 107.45847655708904 13.390847535172485  107.02060787498878 13.299499899058318  106.55820976857962 13.299499899058318  C 106.09581166217046 13.299499899058318  105.65793536905979 13.390847535172485  105.24457981894929 13.57354681806056  C 104.83122325800146 13.756246100948633  104.47042253737196 14.023264420756282  104.16215714300937 14.374609098055743  C 103.85389174864676 14.725953775355208  103.61218428339673 15.158100990823373  103.43703334992533 15.671064252481523  Z M 121.85930895070044 16.377264798043708  C 121.85930895070044 16.377264798043708  128.10164656598823 16.377264798043708  128.10164656598823 16.377264798043708  C 128.07362225712862 15.955651244922414  127.97904687947147 15.555123713027639  127.8179080985717 15.17567137805093  C 127.65676931767197 14.796219162350347  127.43957972642794 14.469472770725796  127.16634472092709 14.195423913486504  C 126.89310971542622 13.921375056247212  126.57083815918962 13.703544809365399  126.19951807082198 13.541926239916226  C 125.82819798245434 13.380307670467053  125.41836050297552 13.299499899058318  124.96997456400327 13.299499899058318  C 124.50757645759411 13.299499899058318  124.09071330199119 13.380307670467053  123.71939422446087 13.541926239916226  C 123.34807413609323 13.703544809365399  123.02931491250003 13.924888394180742  122.76308599071761 14.20596410620128  C 122.49685706893521 14.487039907678916  122.28667692095719 14.813786180027343  122.13254422377588 15.186211570765707  C 121.97841152659458 15.558636961504073  121.88733325956004 15.955651244922414  121.85930895070044 16.377264798043708  Z " fill-rule="nonzero" fill="rgba(155, 155, 155, 1)" stroke="none" transform="matrix(1 0 0 1 14 10 )" class="fill" />
    <path d="M 35.76959873231011 22.870080762887376  C 35.76959873231011 22.870080762887376  41.61260185434657 7.818550068505391  41.61260185434657 7.818550068505391  C 41.61260185434657 7.818550068505391  43.81949042763223 7.818550068505391  43.81949042763223 7.818550068505391  C 43.81949042763223 7.818550068505391  49.683511354866404 22.870080762887376  49.683511354866404 22.870080762887376  C 49.683511354866404 22.870080762887376  47.476622781580744 22.870080762887376  47.476622781580744 22.870080762887376  C 47.476622781580744 22.870080762887376  45.83721875413849 18.33775781875454  45.83721875413849 18.33775781875454  C 45.83721875413849 18.33775781875454  39.48978450185176 18.33775781875454  39.48978450185176 18.33775781875454  C 39.48978450185176 18.33775781875454  37.80834486401408 22.870080762887376  37.80834486401408 22.870080762887376  C 37.80834486401408 22.870080762887376  35.76959873231011 22.870080762887376  35.76959873231011 22.870080762887376  Z " stroke-width="0" stroke-dasharray="0" stroke="rgba(121, 121, 121, 1)" fill="none" transform="matrix(1 0 0 1 14 10 )" class="stroke" mask="url(#Clip164)" />
    <path d="M 50.92357327804696 27.022954860870193  C 50.92357327804696 27.022954860870193  50.92357327804696 11.971424166488207  50.92357327804696 11.971424166488207  C 50.92357327804696 11.971424166488207  52.71010574737839 11.971424166488207  52.71010574737839 11.971424166488207  C 52.71010574737839 11.971424166488207  52.71010574737839 13.447064505483226  52.71010574737839 13.447064505483226  C 52.71010574737839 13.447064505483226  52.75214135777381 13.447064505483226  52.75214135777381 13.447064505483226  C 53.046394703621544 12.842751654564342  53.50878109621002 12.403575914449165  54.13932411183314 12.129527057209874  C 54.76986706799525 11.855478199970582  55.46345422329258 11.718455724497504  56.22010585393254 11.718455724497504  C 57.06082983512268 11.718455724497504  57.79295427124195 11.873046589323028  58.41649123287713 12.182229929201782  C 59.04002819451231 12.491413269080534  59.5584680731909 12.909507281909738  59.97182403952855 13.436524312768448  C 60.38518009505771 13.963541403265221  60.6969372634165 14.571357334370784  60.907118273579286 15.259992919769154  C 61.117299283742085 15.94862850516752  61.22238915705015 16.679415677163284  61.22238915705015 17.452373997041136  C 61.22238915705015 18.225332316918987  61.12080402024034 18.95611758049673  60.917629078930744 19.644753165895096  C 60.714454137621146 20.333388751293462  60.4061940055587 20.934180034226113  59.992838039221056 21.447143295884263  C 59.579482072883415 21.960106557542417  59.06104219420482 22.36414733791363  58.43750523256965 22.65927690859182  C 57.81396827093446 22.954406389812917  57.08885339700324 23.101968819448526  56.262141464327954 23.101968819448526  C 55.99591212631842 23.101968819448526  55.69816645646007 23.073862477536046  55.36888284067263 23.0176472777303  C 55.03959931407672 22.96143217856379  54.71382294701557 22.87008252221024  54.39154538521607 22.743598450310042  C 54.06926782341657 22.61711437840985  53.76450489116826 22.444957047559413  53.47725753984745 22.227123282031876  C 53.19001018852663 22.009289620870952  52.948310319421736 21.738757948220258  52.75214135777381 21.415520809321915  C 52.75214135777381 21.415520809321915  52.71010574737839 21.415520809321915  52.71010574737839 21.415520809321915  C 52.71010574737839 21.415520809321915  52.71010574737839 27.022954860870193  52.71010574737839 27.022954860870193  C 52.71010574737839 27.022954860870193  50.92357327804696 27.022954860870193  50.92357327804696 27.022954860870193  Z " stroke-width="0" stroke-dasharray="0" stroke="rgba(121, 121, 121, 1)" fill="none" transform="matrix(1 0 0 1 14 10 )" class="stroke" mask="url(#Clip164)" />
    <path d="M 63.38724211994039 27.022954860870193  C 63.38724211994039 27.022954860870193  63.38724211994039 11.971424166488207  63.38724211994039 11.971424166488207  C 63.38724211994039 11.971424166488207  65.17377458927183 11.971424166488207  65.17377458927183 11.971424166488207  C 65.17377458927183 11.971424166488207  65.17377458927183 13.447064505483226  65.17377458927183 13.447064505483226  C 65.17377458927183 13.447064505483226  65.21581019966725 13.447064505483226  65.21581019966725 13.447064505483226  C 65.51006363470651 12.842751654564342  65.97245754911386 12.403575914449165  66.60300056473697 12.129527057209874  C 67.23354358036009 11.855478199970582  67.92713067619641 11.718455724497504  68.68378230683636 11.718455724497504  C 69.5245062880265 11.718455724497504  70.25662311313538 11.873046589323028  70.88016007477057 12.182229929201782  C 71.50369703640575 12.491413269080534  72.02213691508435 12.909507281909738  72.43549288142198 13.436524312768448  C 72.84884884775961 13.963541403265221  73.16061380551186 14.571357334370784  73.37079472648311 15.259992919769154  C 73.58097573664591 15.94862850516752  73.68606560995397 16.679415677163284  73.68606560995397 17.452373997041136  C 73.68606560995397 18.225332316918987  73.5844805623357 18.95611758049673  73.38130553183457 19.644753165895096  C 73.17813059052499 20.333388751293462  72.86986293664367 20.934180034226113  72.45650688111449 21.447143295884263  C 72.04315091477685 21.960106557542417  71.52471864710864 22.36414733791363  70.90118168547347 22.65927690859182  C 70.27764472383829 22.954406389812917  69.55252990936809 23.101968819448526  68.72581791723178 23.101968819448526  C 68.45958869814429 23.101968819448526  68.16183520916199 23.073862477536046  67.83255168256606 23.0176472777303  C 67.50326806677863 22.96143217856379  67.17749178890901 22.87008252221024  66.85521422710951 22.743598450310042  C 66.53293666531 22.61711437840985  66.22818134407208 22.444957047559413  65.94093399275127 22.227123282031876  C 65.65368664143047 22.009289620870952  65.41197916131517 21.738757948220258  65.21581019966725 21.415520809321915  C 65.21581019966725 21.415520809321915  65.17377458927183 21.415520809321915  65.17377458927183 21.415520809321915  C 65.17377458927183 21.415520809321915  65.17377458927183 27.022954860870193  65.17377458927183 27.022954860870193  C 65.17377458927183 27.022954860870193  63.38724211994039 27.022954860870193  63.38724211994039 27.022954860870193  Z " stroke-width="0" stroke-dasharray="0" stroke="rgba(121, 121, 121, 1)" fill="none" transform="matrix(1 0 0 1 14 10 )" class="stroke" mask="url(#Clip164)" />
    <path d="M 101.61897607554994 19.665833551324653  C 101.39478260064516 18.977197965926287  101.28269119238655 18.232359469890547  101.28269119238655 17.43129361161158  C 101.28269119238655 16.63022775333261  101.39478260064516 15.881874070583386  101.61897607554994 15.186211570765707  C 101.84316955045472 14.490549070948031  102.17945899725127 13.886244509719914  102.62784594706086 13.373281248061764  C 103.07623188603311 12.86031792676555  103.62969674262075 12.456279024993323  104.28826397419563 12.161149543772225  C 104.94683120577051 11.866019973094033  105.70347433348479 11.718455724497504  106.55820976857962 11.718455724497504  C 107.42695832248765 11.718455724497504  108.18709757971773 11.866019973094033  108.83865875730466 12.161149543772225  C 109.49021993489161 12.456279024993323  110.04018765112612 12.86031792676555  110.48857359009838 13.373281248061764  C 110.93695952907063 13.886244509719914  111.27324237569412 14.490549070948031  111.49743585059892 15.186211570765707  C 111.72162831466639 15.881874070583386  111.83372073376228 16.63022775333261  111.83372073376228 17.43129361161158  C 111.83372073376228 18.232359469890547  111.72162831466639 18.977197965926287  111.49743585059892 19.665833551324653  C 111.27324237569412 20.354469255999145  110.93695952907063 20.95526041965567  110.48857359009838 21.46822368131382  C 110.04018765112612 21.981186942971974  109.49021993489161 22.38171256644873  108.83865875730466 22.66981519288858  C 108.18709757971773 22.957917938604556  107.42695832248765 23.101968819448526  106.55820976857962 23.101968819448526  C 105.70347433348479 23.101968819448526  104.94683120577051 22.957917938604556  104.28826397419563 22.66981519288858  C 103.62969674262075 22.38171256644873  103.07623188603311 21.981186942971974  102.62784594706086 21.46822368131382  C 102.17945899725127 20.95526041965567  101.84316955045472 20.354469255999145  101.61897607554994 19.665833551324653  Z " stroke-width="0" stroke-dasharray="0" stroke="rgba(121, 121, 121, 1)" fill="none" transform="matrix(1 0 0 1 14 10 )" class="stroke" mask="url(#Clip164)" />
    <path d="M 128.05961856660318 19.412867017751967  C 128.05961856660318 19.412867017751967  129.82512942523172 19.412867017751967  129.82512942523172 19.412867017751967  C 129.58692379775528 20.635546548428355  129.06148256250924 21.556057606756564  128.2487826188878 22.174424226876006  C 127.43608267526635 22.792790906633513  126.41320658242039 23.101968819448526  125.18014500496999 23.101968819448526  C 124.31139645106195 23.101968819448526  123.5582590260875 22.96143309549901  122.92071001593744 22.680357294021377  C 122.28316100578742 22.39928158200084  121.74721318692222 22.00578054705893  121.31283840454957 21.499844259458154  C 120.8784646330142 20.993907852581252  120.55269495531766 20.389603291353136  120.33550856010339 19.68691393675421  C 120.11832116891705 18.98422458215528  119.99570795873485 18.2183043886526  119.96768364987526 17.38913093233445  C 119.96768364987526 16.559957476016297  120.09379497036844 15.801065926436756  120.34601175444445 15.112430221762263  C 120.59822951962727 14.423794636363898  120.95203601901154 13.826516691364777  121.40742804170225 13.320580284487873  C 121.86282006439296 12.814643996887098  122.40226499388075 12.421144870363209  123.02580284743121 12.14006915834267  C 123.64933969014434 11.858993356865037  124.33242822959906 11.718455724497504  125.07506739549702 11.718455724497504  C 126.04190005116502 11.718455724497504  126.8440742052583 11.918719505354407  127.48162321540835 12.319252434493892  C 128.11917222555837 12.719785363633378  128.63061077740002 13.229229025361377  129.01594202236723 13.84759564548082  C 129.40127427817177 14.465962325238323  129.6674996174278 15.140532929480273  129.81462623089067 15.87132982248032  C 129.9617528443535 16.60212683475649  130.02129517784277 17.297779017189256  129.99327186681342 17.958307064186503  C 129.99327186681342 17.958307064186503  121.85930895070044 17.958307064186503  121.85930895070044 17.958307064186503  C 121.84529679627063 18.436135813386162  121.90134300024411 18.889364696502238  122.02745139228213 19.318005283318968  C 122.15355978432014 19.7466457806786  122.35673045930164 20.126091585287405  122.63697154852096 20.45635563860506  C 122.91721361884707 20.78661960246562  123.27451725858445 21.050124673796834  123.70889103011982 21.24687772588547  C 124.14326581249249 21.443630777974104  124.65470338322731 21.542005030317267  125.24320983707871 21.542005030317267  C 125.99986117041357 21.542005030317267  126.61987878300515 21.3663362550418  127.10329511083914 21.014991577742336  C 127.58671143867315 20.663646900442878  127.9054858694219 20.129610141551453  128.05961856660318 19.412867017751967  Z " stroke-width="0" stroke-dasharray="0" stroke="rgba(121, 121, 121, 1)" fill="none" transform="matrix(1 0 0 1 14 10 )" class="stroke" mask="url(#Clip164)" />
    <path d="M 12.356210888920348 7.660983443246851  C 13.974017485154723 7.660983443246851  15.247057678520054 6.252313309348154  17.646062900434284 6.252313309348154  C 20.88099205334405 6.252313309348154  22.949593800375375 9.391596063151733  22.949593800375375 9.391596063151733  C 22.949593800375375 9.391596063151733  19.79401561474892 11.109082106822608  19.79401561474892 14.839053157484427  C 19.79401561474892 19.266105378208238  23.758157100387706 20.553873890919462  23.758157100387706 20.553873890919462  C 23.758157100387706 20.553873890919462  20.629256457561766 28  17.115914166069203 28  C 15.140343345046679 28  15.008319072202612 26.860075199848854  12.382889383097163 26.860075199848854  C 10.102910849951973 26.860075199848854  9.334025887710197 28  7.597192602706779 28  C 4.282228205110641 28  0 20.741789133713173  0 14.839053157484427  C 0 8.707640992219243  4.335584955620198 6.252313309348154  7.053363077161946 6.252313309348154  C 9.440055111326249 6.252313309348154  10.433996818407381 7.660983443246851  12.356210888920348 7.660983443246851  Z " stroke-width="0" stroke-dasharray="0" stroke="rgba(121, 121, 121, 1)" fill="none" transform="matrix(1 0 0 1 14 10 )" class="stroke" mask="url(#Clip164)" />
    <path d="M 11.601006480014247 6.6011988409359486  C 11.123531199862468 2.777270407429526  14.623877423535983 0.20173204015066143  17.089920662827673 0  C 17.566711903420465 3.0052555105911067  14.848932622388853 6.722099888107066  11.601006480014247 6.6011988409359486  Z " stroke-width="0" stroke-dasharray="0" stroke="rgba(121, 121, 121, 1)" fill="none" transform="matrix(1 0 0 1 14 10 )" class="stroke" mask="url(#Clip164)" />
    <path d="M 92.49717250963934 12.22439070006089  C 92.49717250963934 12.22439070006089  90.60554720881416 12.22439070006089  90.60554720881416 12.22439070006089  C 90.49345097678042 11.142249099942351  90.10462564626992 10.358762425505244  89.43905331208339 9.873906732067242  C 88.77347996705954 9.389051038629244  87.92225386182668 9.146625801075503  86.8853614392725 9.146625801075503  C 86.46499882433675 9.146625801075503  86.05164927978912 9.188787272681855  85.64529951609197 9.273110022070854  C 85.23894963347277 9.357432674548003  84.87814831823309 9.497968599775978  84.56287684015204 9.694721547498002  C 84.24760536207098 9.891474599586637  83.99539111995351 10.154979581460754  83.80622824202405 10.48524363477841  C 83.61706536409457 10.815507598638971  83.52248216359715 11.226573206097287  83.52248216359715 11.718455724497504  C 83.52248216359715 12.1822307044966  83.65909977040437 12.558165169046987  83.93233507321031 12.846267795486837  C 84.20557037601625 13.134370421926686  84.56987635342793 13.369767254109538  85.02526855450168 13.552466432631004  C 85.48066066638393 13.735165715519077  85.99559620992613 13.886241296719266  86.57009055580164 14.005698536202486  C 87.14458585305347 14.125155671319092  87.72958565278876 14.255151627475032  88.32509822008912 14.395689483485299  C 88.92061078738946 14.53622733949557  89.50560297611437 14.70135815848362  90.08009827336618 14.891084266333912  C 90.6545926192417 15.080810374184201  91.16952825197544 15.337286920868403  91.62492027466615 15.660524059766743  C 92.08031229735684 15.98376119866509  92.44462535062974 16.391315227512738  92.71786136696792 16.88319786518908  C 92.99109637246876 17.375080383589296  93.12770666557068 17.993438177275404  93.12770666557068 18.738288958752136  C 93.12770666557068 19.539354817031104  92.94905484570198 20.224465256159455  92.59174692477126 20.793643713895968  C 92.23443900384052 21.362822171632484  91.77555055432892 21.82659088963496  91.21506736505297 22.184962511172767  C 90.65458518661436 22.54333413271057  90.02755714964997 22.803325836289222  89.33396048058964 22.964944405738393  C 88.64036286015302 23.126562975187568  87.95028009945307 23.2073707465963  87.26368954384169 23.2073707465963  C 86.42296526534646 23.2073707465963  85.62779335973593 23.10196788014903  84.8781477236229 22.891161148316932  C 84.12850214697089 22.680354327027736  83.46993985066055 22.360636564416808  82.90245120200687 21.93199597760008  C 82.33496243443115 21.503355480240444  81.8865876741304 20.95526548889103  81.55730405834296 20.287710646750597  C 81.22802053174705 19.620155685334037  81.06337992793895 18.829642484125028  81.06337992793895 17.916146293327394  C 81.06337992793895 17.916146293327394  82.95499761775375 17.916146293327394  82.95499761775375 17.916146293327394  C 82.95499761775375 18.548566682647394  83.07760371119525 19.093143395701343  83.32281491697148 19.549891431462097  C 83.56802601869093 20.006639556679946  83.89029767898433 20.38257202335522  84.2896415670766 20.67770159403341  C 84.68898545516888 20.972831164711604  85.15487668831238 21.190661322136325  85.68733512648738 21.33119926760369  C 86.21979380250646 21.47173712361396  86.76625596465371 21.542005030317267  87.32673915392964 21.542005030317267  C 87.77512509290189 21.542005030317267  88.22701269126469 21.499843558710914  88.68240471395539 21.415520809321915  C 89.13779673664611 21.331198059932913  89.54764182713531 21.187148983140354  89.9119558317845 20.983369091179988  C 90.27626885532688 20.779589109762526  90.57051778619396 20.502030910339933  90.79471126109875 20.15068623304047  C 91.01890372516623 19.799341555741005  91.13099614426214 19.34962782951938  91.13099614426214 18.8015301150408  C 91.13099614426214 18.281540058239464  90.99438585116022 17.8599326776577  90.72115084565937 17.536695538759357  C 90.4479158401585 17.213458519137138  90.0836027571551 16.949953343439315  89.6282097533576 16.74617345147895  C 89.17281773066689 16.54239355951858  88.65788304930946 16.37726464894855  88.08338775205763 16.250780577048356  C 87.50889340618211 16.124296505148163  86.92390026608093 15.99430064590408  86.32838769878056 15.860789629765542  C 85.73287435848697 15.727278717993613  85.14788234814512 15.572689776495626  84.57338764550349 15.397017333479281  C 83.99889294286187 15.221344994829549  83.48395775608577 14.989461515489744  83.02856564420354 14.701358889049892  C 82.57317344312976 14.413256143333914  82.20885985470771 14.04083504653609  81.93562455190177 13.584087010775338  C 81.66238924909581 13.127338885557489  81.52577164228859 12.554655916320778  81.52577164228859 11.866020330922412  C 81.52577164228859 11.10711578024512  81.67990548409452 10.450111686756628  81.98817096764864 9.894987117496798  C 82.29643636201124 9.339862428960844  82.70628163088351 8.883120207911238  83.21772208547773 8.524748705649559  C 83.72916254007197 8.166377084111751  84.31065788574884 7.899360777088733  84.96221894441373 7.723688334072391  C 85.61378000307866 7.548015995422658  86.28284109361466 7.46017969936691  86.96943266006336 7.46017969936691  C 87.74009616083511 7.46017969936691  88.45470439168619 7.551529348265704  89.11327162326107 7.734228526787168  C 89.77183885483596 7.916927809675244  90.34982921130523 8.205025948350848  90.84725767684563 8.59853196307102  C 91.34468614238602 8.992038067248288  91.73701520599009 9.487426498643183  92.02426237892786 10.084712494780817  C 92.3115105329724 10.681998371642326  92.46914820077974 11.39521724374274  92.49717250963934 12.22439070006089  Z " stroke-width="0" stroke-dasharray="0" stroke="rgba(121, 121, 121, 1)" fill="none" transform="matrix(1 0 0 1 14 10 )" class="stroke" mask="url(#Clip164)" />
    <path d="M 97.7306478644266 8.7039338902188  C 97.7306478644266 8.7039338902188  97.7306478644266 11.971424166488207  97.7306478644266 11.971424166488207  C 97.7306478644266 11.971424166488207  99.89550082731684 11.971424166488207  99.89550082731684 11.971424166488207  C 99.89550082731684 11.971424166488207  99.89550082731684 13.552466432631004  99.89550082731684 13.552466432631004  C 99.89550082731684 13.552466432631004  97.7306478644266 13.552466432631004  97.7306478644266 13.552466432631004  C 97.7306478644266 13.552466432631004  97.7306478644266 20.31933122489493  97.7306478644266 20.31933122489493  C 97.7306478644266 20.530138046184124  97.74816389502804 20.69878212855813  97.78319428017348 20.82526620045832  C 97.81822366934684 20.951750376725123  97.88478406237537 21.05012462906829  97.98286913780952 21.120393504890117  C 98.0809532172716 21.190662477623796  98.21756350294089 21.23633720516134  98.3927144364123 21.257417918600247  C 98.56786536988369 21.27849863203915  98.79556054877477 21.28903849674458  99.0758026191009 21.28903849674458  C 99.0758026191009 21.28903849674458  99.89550082731684 21.28903849674458  99.89550082731684 21.28903849674458  C 99.89550082731684 21.28903849674458  99.89550082731684 22.870080762887376  99.89550082731684 22.870080762887376  C 99.89550082731684 22.870080762887376  98.52933207295001 22.870080762887376  98.52933207295001 22.870080762887376  C 98.06693396654086 22.870080762887376  97.67110018130379 22.838459155986456  97.34181656551634 22.77521712003636  C 97.0125329497289 22.711975084086262  96.74630659963555 22.59603424644206  96.54313235699293 22.427388852030674  C 96.33995711837824 22.258743353252676  96.18932891241847 22.01983336205048  96.09124383698433 21.71065002217173  C 95.99315975752225 21.401466682292977  95.94412300610556 20.993912623626297  95.94412300610556 20.48797621674939  C 95.94412300610556 20.48797621674939  95.94412300610556 13.552466432631004  95.94412300610556 13.552466432631004  C 95.94412300610556 13.552466432631004  94.09453331567579 13.552466432631004  94.09453331567579 13.552466432631004  C 94.09453331567579 13.552466432631004  94.09453331567579 11.971424166488207  94.09453331567579 11.971424166488207  C 94.09453331567579 11.971424166488207  95.94412300610556 11.971424166488207  95.94412300610556 11.971424166488207  C 95.94412300610556 11.971424166488207  95.94412300610556 8.7039338902188  95.94412300610556 8.7039338902188  C 95.94412300610556 8.7039338902188  97.7306478644266 8.7039338902188  97.7306478644266 8.7039338902188  Z " stroke-width="0" stroke-dasharray="0" stroke="rgba(121, 121, 121, 1)" fill="none" transform="matrix(1 0 0 1 14 10 )" class="stroke" mask="url(#Clip164)" />
    <path d="M 113.87246686546625 22.870080762887376  C 113.87246686546625 22.870080762887376  113.87246686546625 11.971424166488207  113.87246686546625 11.971424166488207  C 113.87246686546625 11.971424166488207  115.55390650330393 11.971424166488207  115.55390650330393 11.971424166488207  C 115.55390650330393 11.971424166488207  115.55390650330393 14.269207170907968  115.55390650330393 14.269207170907968  C 115.55390650330393 14.269207170907968  115.59594972470975 14.269207170907968  115.59594972470975 14.269207170907968  C 116.0303234962451 13.38381851851145  116.56277518559449 12.730325884357502  117.19331814175659 12.308712241779116  C 117.8238610979187 11.887098599200726  118.62253811165886 11.690348174914247  119.58937076732686 11.718455724497504  C 119.58937076732686 11.718455724497504  119.58937076732686 13.615707588919669  119.58937076732686 13.615707588919669  C 118.87475492546537 13.615707588919669  118.26522965557895 13.714083749680851  117.76079507658959 13.910836801769486  C 117.25636049760026 14.10758985385812  116.85002015847456 14.395688022352756  116.54175476411196 14.775140238053337  C 116.23348936974935 15.154592573030046  116.00930554239486 15.614848042556087  115.8691849977852 16.155918842615357  C 115.72906345720348 16.69698976195075  115.65899933479768 17.318858865876244  115.65899933479768 18.02154822047517  C 115.65899933479768 18.02154822047517  115.65899933479768 22.870080762887376  115.65899933479768 22.870080762887376  C 115.65899933479768 22.870080762887376  113.87246686546625 22.870080762887376  113.87246686546625 22.870080762887376  Z " stroke-width="0" stroke-dasharray="0" stroke="rgba(121, 121, 121, 1)" fill="none" transform="matrix(1 0 0 1 14 10 )" class="stroke" mask="url(#Clip164)" />
    <path d="M 42.66350353074772 9.631480391209337  C 42.66350353074772 9.631480391209337  40.12032626879349 16.65131171704595  40.12032626879349 16.65131171704595  C 40.12032626879349 16.65131171704595  45.20668079270195 16.65131171704595  45.20668079270195 16.65131171704595  C 45.20668079270195 16.65131171704595  42.70553914114314 9.631480391209337  42.70553914114314 9.631480391209337  C 42.70553914114314 9.631480391209337  42.66350353074772 9.631480391209337  42.66350353074772 9.631480391209337  Z " stroke-width="0" stroke-dasharray="0" stroke="rgba(121, 121, 121, 1)" fill="none" transform="matrix(1 0 0 1 14 10 )" class="stroke" mask="url(#Clip164)" />
    <path d="M 59.16262902565367 18.885851656759026  C 59.27472556242513 18.37991524988212  59.330771467235365 17.859933721323806  59.330771467235365 17.325889776045784  C 59.330771467235365 16.819953488445005  59.264218889614476 16.324564937773985  59.1311042206097 15.839709244335987  C 58.99798955160493 15.354853550897985  58.79481175616644 14.922706424886915  58.52157645336049 14.543254089910207  C 58.248341150554545 14.163801874209625  57.89804659731704 13.861650488166514  57.47067858246454 13.636789882767243  C 57.043310567612025 13.411929277367975  56.54238689420163 13.299499899058318  55.96789219156 13.299499899058318  C 55.36537333242762 13.299499899058318  54.853942926745546 13.41895578923036  54.433580995611486 13.657870268196799  C 54.01321897528591 13.896784642796629  53.669926343495554 14.209475893545171  53.403697124408055 14.595955053484097  C 53.13746778639852 14.982434213423021  52.944804282213696 15.421607955663088  52.825701773213204 15.91349059333943  C 52.70659916015592 16.405373111739646  52.64704852628006 16.904274910887104  52.64704852628006 17.410211317764006  C 52.64704852628006 17.9442551437659  52.71010399327834 18.460725451541926  52.836212578564655 18.959634914180484  C 52.962321267907754 19.458544376819045  53.16198662664607 19.897718238335237  53.43522192945202 20.277170454035822  C 53.70845723225798 20.656622669736404  54.062256507128474 20.962287319165466  54.49663060569943 21.19417485389356  C 54.931004585348354 21.426062388621656  55.45645411540651 21.542005030317267  56.072985023053754 21.542005030317267  C 56.68951599016201 21.542005030317267  57.20445105801607 21.422549035778612  57.61780702435371 21.183634661178786  C 58.03116299069135 20.944720286578956  58.36394130893015 20.628515697896884  58.616158479502786 20.23500968317671  C 58.86837565007543 19.841503578999443  59.05053248888221 19.391788063635925  59.16262902565367 18.885851656759026  Z " stroke-width="0" stroke-dasharray="0" stroke="rgba(121, 121, 121, 1)" fill="none" transform="matrix(1 0 0 1 14 10 )" class="stroke" mask="url(#Clip164)" />
    <path d="M 71.62629786754711 18.885851656759026  C 71.73839440431857 18.37991524988212  71.7944403091288 17.859933721323806  71.7944403091288 17.325889776045784  C 71.7944403091288 16.819953488445005  71.72788773150792 16.324564937773985  71.59477306250314 15.839709244335987  C 71.46165849755515 15.354853550897985  71.25848820907028 14.922706424886915  70.98525290626432 14.543254089910207  C 70.71201760345836 14.163801874209625  70.36171552840202 13.861650488166514  69.93434742435797 13.636789882767243  C 69.50697940950546 13.411929277367975  69.00605573609506 13.299499899058318  68.43156103345343 13.299499899058318  C 67.82904217432106 13.299499899058318  67.31761185783051 13.41895578923036  66.89724983750493 13.657870268196799  C 66.47688781717935 13.896784642796629  66.133595185389 14.209475893545171  65.86736596630149 14.595955053484097  C 65.60113674721399 14.982434213423021  65.40847312410713 15.421607955663088  65.28937061510663 15.91349059333943  C 65.17026800204935 16.405373111739646  65.1107173681735 16.904274910887104  65.1107173681735 17.410211317764006  C 65.1107173681735 17.9442551437659  65.17377283517177 18.460725451541926  65.29988142045809 18.959634914180484  C 65.42599000574441 19.458544376819045  65.6256630795499 19.897718238335237  65.89889838235585 20.277170454035822  C 66.17213368516181 20.656622669736404  66.5259329600323 20.962287319165466  66.96030705860326 21.19417485389356  C 67.39468115717422 21.426062388621656  67.92012295729995 21.542005030317267  68.53665386494718 21.542005030317267  C 69.15318483205544 21.542005030317267  69.66811981071797 21.422549035778612  70.08147586624715 21.183634661178786  C 70.49483183258478 20.944720286578956  70.82761776183399 20.628515697896884  71.07983493240661 20.23500968317671  C 71.3320522219013 19.841503578999443  71.51420133077566 19.391788063635925  71.62629786754711 18.885851656759026  Z " stroke-width="0" stroke-dasharray="0" stroke="rgba(121, 121, 121, 1)" fill="none" transform="matrix(1 0 0 1 14 10 )" class="stroke" mask="url(#Clip164)" />
    <path d="M 103.43703334992533 15.671064252481523  C 103.26188241645394 16.184027514139675  103.17430888220134 16.77076556461433  103.17430888220134 17.43129361161158  C 103.17430888220134 18.091821658608826  103.26188241645394 18.678557800665466  103.43703334992533 19.191521062323616  C 103.61218428339673 19.704484323981767  103.85389174864676 20.133118290973496  104.16215714300937 20.477436024034617  C 104.47042253737196 20.821753876371865  104.83122325800146 21.08525882842695  105.24457981894929 21.267958111315025  C 105.65793536905979 21.45065728983649  106.09581166217046 21.542005030317267  106.55820976857962 21.542005030317267  C 107.02060787498878 21.542005030317267  107.45847655708904 21.45065728983649  107.87183210719957 21.267958111315025  C 108.2851886681474 21.08525882842695  108.64599699978727 20.821753876371865  108.95426239414988 20.477436024034617  C 109.26252778851247 20.133118290973496  109.50422764275211 19.704484323981767  109.6793785762235 19.191521062323616  C 109.8545295096949 18.678557800665466  109.9421030439475 18.091821658608826  109.9421030439475 17.43129361161158  C 109.9421030439475 16.77076556461433  109.8545295096949 16.184027514139675  109.6793785762235 15.671064252481523  C 109.50422764275211 15.158100990823373  109.26252778851247 14.725953775355208  108.95426239414988 14.374609098055743  C 108.64599699978727 14.023264420756282  108.2851886681474 13.756246100948633  107.87183210719957 13.57354681806056  C 107.45847655708904 13.390847535172485  107.02060787498878 13.299499899058318  106.55820976857962 13.299499899058318  C 106.09581166217046 13.299499899058318  105.65793536905979 13.390847535172485  105.24457981894929 13.57354681806056  C 104.83122325800146 13.756246100948633  104.47042253737196 14.023264420756282  104.16215714300937 14.374609098055743  C 103.85389174864676 14.725953775355208  103.61218428339673 15.158100990823373  103.43703334992533 15.671064252481523  Z " stroke-width="0" stroke-dasharray="0" stroke="rgba(121, 121, 121, 1)" fill="none" transform="matrix(1 0 0 1 14 10 )" class="stroke" mask="url(#Clip164)" />
    <path d="M 121.85930895070044 16.377264798043708  C 121.85930895070044 16.377264798043708  128.10164656598823 16.377264798043708  128.10164656598823 16.377264798043708  C 128.07362225712862 15.955651244922414  127.97904687947147 15.555123713027639  127.8179080985717 15.17567137805093  C 127.65676931767197 14.796219162350347  127.43957972642794 14.469472770725796  127.16634472092709 14.195423913486504  C 126.89310971542622 13.921375056247212  126.57083815918962 13.703544809365399  126.19951807082198 13.541926239916226  C 125.82819798245434 13.380307670467053  125.41836050297552 13.299499899058318  124.96997456400327 13.299499899058318  C 124.50757645759411 13.299499899058318  124.09071330199119 13.380307670467053  123.71939422446087 13.541926239916226  C 123.34807413609323 13.703544809365399  123.02931491250003 13.924888394180742  122.76308599071761 14.20596410620128  C 122.49685706893521 14.487039907678916  122.28667692095719 14.813786180027343  122.13254422377588 15.186211570765707  C 121.97841152659458 15.558636961504073  121.88733325956004 15.955651244922414  121.85930895070044 16.377264798043708  Z " stroke-width="0" stroke-dasharray="0" stroke="rgba(121, 121, 121, 1)" fill="none" transform="matrix(1 0 0 1 14 10 )" class="stroke" mask="url(#Clip164)" />
  </g>
</svg>