<?xml version="1.0" encoding="utf-8"?>
<svg version="1.1" xmlns:xlink="http://www.w3.org/1999/xlink" width="16px" height="16px" xmlns="http://www.w3.org/2000/svg">
  <defs>
    <pattern id="BGPattern" patternUnits="userSpaceOnUse" alignment="0 0" imageRepeat="None" />
    <mask fill="white" id="Clip167">
      <path d="M 4 4  C 4 6.199999953761245  5.799999952316284 8  8 8  C 10.200000047683716 8  12 6.199999953761245  12 4  C 12 1.8000000462387546  10.200000047683716 0  8 0  C 5.799999952316284 0  4 1.8000000462387546  4 4  Z M 16 14  C 16 11.300000046238756  10.700000047683716 10  8 10  C 5.299999952316284 10  0 11.300000046238756  0 14  C 0 14  0 16  0 16  L 16 16  C 16 16  16 14  16 14  Z " fill-rule="evenodd" />
    </mask>
  </defs>
  <g transform="matrix(1 0 0 1 -9 -9 )">
    <path d="M 4 4  C 4 6.199999953761245  5.799999952316284 8  8 8  C 10.200000047683716 8  12 6.199999953761245  12 4  C 12 1.8000000462387546  10.200000047683716 0  8 0  C 5.799999952316284 0  4 1.8000000462387546  4 4  Z M 16 14  C 16 11.300000046238756  10.700000047683716 10  8 10  C 5.299999952316284 10  0 11.300000046238756  0 14  C 0 14  0 16  0 16  L 16 16  C 16 16  16 14  16 14  Z " fill-rule="nonzero" fill="rgba(89, 185, 88, 1)" stroke="none" transform="matrix(1 0 0 1 9 9 )" class="fill" />
    <path d="M 4 4  C 4 6.199999953761245  5.799999952316284 8  8 8  C 10.200000047683716 8  12 6.199999953761245  12 4  C 12 1.8000000462387546  10.200000047683716 0  8 0  C 5.799999952316284 0  4 1.8000000462387546  4 4  Z " stroke-width="0" stroke-dasharray="0" stroke="rgba(121, 121, 121, 1)" fill="none" transform="matrix(1 0 0 1 9 9 )" class="stroke" mask="url(#Clip167)" />
    <path d="M 16 14  C 16 11.300000046238756  10.700000047683716 10  8 10  C 5.299999952316284 10  0 11.300000046238756  0 14  C 0 14  0 16  0 16  L 16 16  C 16 16  16 14  16 14  Z " stroke-width="0" stroke-dasharray="0" stroke="rgba(121, 121, 121, 1)" fill="none" transform="matrix(1 0 0 1 9 9 )" class="stroke" mask="url(#Clip167)" />
  </g>
</svg>