<?xml version="1.0" encoding="utf-8"?>
<svg version="1.1" xmlns:xlink="http://www.w3.org/1999/xlink" width="31px" height="32px" xmlns="http://www.w3.org/2000/svg">
  <defs>
    <pattern id="BGPattern" patternUnits="userSpaceOnUse" alignment="0 0" imageRepeat="None" />
    <mask fill="white" id="Clip166">
      <path d="M 15.5 0  C 24.060414046049118 0  31 7.1634438254616475  31 16  C 31 24.83655617453835  24.060414046049118 32  15.5 32  C 6.939585953950882 32  0 24.83655617453835  0 16  C 0 7.1634438254616475  6.939585953950882 0  15.5 0  Z " fill-rule="evenodd" />
    </mask>
  </defs>
  <g transform="matrix(1 0 0 1 -1 -1 )">
    <path d="M 15.5 0  C 24.060414046049118 0  31 7.1634438254616475  31 16  C 31 24.83655617453835  24.060414046049118 32  15.5 32  C 6.939585953950882 32  0 24.83655617453835  0 16  C 0 7.1634438254616475  6.939585953950882 0  15.5 0  Z " fill-rule="nonzero" fill="rgba(255, 255, 255, 0)" stroke="none" transform="matrix(1 0 0 1 1 1 )" class="fill" />
    <path d="M 15.5 0  C 24.060414046049118 0  31 7.1634438254616475  31 16  C 31 24.83655617453835  24.060414046049118 32  15.5 32  C 6.939585953950882 32  0 24.83655617453835  0 16  C 0 7.1634438254616475  6.939585953950882 0  15.5 0  Z " stroke-width="1.941176414489746" stroke-dasharray="0" stroke="rgba(230, 230, 230, 1)" fill="none" transform="matrix(1 0 0 1 1 1 )" class="stroke" mask="url(#Clip166)" />
  </g>
</svg>