<?xml version="1.0" encoding="utf-8"?>
<svg version="1.1" xmlns:xlink="http://www.w3.org/1999/xlink" width="35px" height="35px" xmlns="http://www.w3.org/2000/svg">
  <defs>
    <pattern id="BGPattern" patternUnits="userSpaceOnUse" alignment="0 0" imageRepeat="None" />
    <mask fill="white" id="Clip149">
      <path d="M 17.5 0  C 27.168800354003906 0  35 7.831250190734863  35 17.5  C 35 27.168800354003906  27.168800354003906 35  17.5 35  C 7.831250190734863 35  0 27.168800354003906  0 17.5  C 0 7.831250190734863  7.831250190734863 0  17.5 0  Z " fill-rule="evenodd" />
    </mask>
  </defs>
  <g>
    <path d="M 17.5 0  C 27.168800354003906 0  35 7.831250190734863  35 17.5  C 35 27.168800354003906  27.168800354003906 35  17.5 35  C 7.831250190734863 35  0 27.168800354003906  0 17.5  C 0 7.831250190734863  7.831250190734863 0  17.5 0  Z " fill-rule="nonzero" fill="rgba(206, 206, 206, 1)" stroke="none" class="fill" />
    <path d="M 17.5 0  C 27.168800354003906 0  35 7.831250190734863  35 17.5  C 35 27.168800354003906  27.168800354003906 35  17.5 35  C 7.831250190734863 35  0 27.168800354003906  0 17.5  C 0 7.831250190734863  7.831250190734863 0  17.5 0  Z " stroke-width="0" stroke-dasharray="0" stroke="rgba(121, 121, 121, 1)" fill="none" class="stroke" mask="url(#Clip149)" />
  </g>
</svg>