<?xml version="1.0" encoding="utf-8"?>
<svg version="1.1" xmlns:xlink="http://www.w3.org/1999/xlink" width="19px" height="16px" xmlns="http://www.w3.org/2000/svg">
  <defs>
    <pattern id="BGPattern" patternUnits="userSpaceOnUse" alignment="0 0" imageRepeat="None" />
    <mask fill="white" id="Clip152">
      <path d="M 15.558074711549446 3.2366509998615736  C 15.558074711549446 3.2366509998615736  7.435014374928602 10.563168687237447  7.435014374928602 10.563168687237447  C 7.435014374928602 10.563168687237447  14.480789002703629 15.783777528976895  14.480789002703629 15.783777528976895  C 15.281465683427896 16.22248823674687  15.863730228523286 16.00318296977882  16.067567876318495 15.038019436592712  C 16.067567876318495 15.038019436592712  18.93536994021553 1.467167966177106  18.93536994021553 1.467167966177106  C 19.226452486577056 0.2825988726498896  18.484073697688586 -0.2438543188549868  17.712545219146264 0.1071142413840342  C 17.712545219146264 0.1071142413840342  0.8841593165721031 6.629314497783624  0.8841593165721031 6.629314497783624  C -0.2658763827538936 7.097305999265073  -0.25132194604165875 7.740780660186209  0.6803618602680781 8.018547221204146  C 0.6803618602680781 8.018547221204146  5.003935969688893 9.3786004304845  5.003935969688893 9.3786004304845  C 5.003935969688893 9.3786004304845  15.004857012299608 3.046526322886326  15.004857012299608 3.046526322886326  C 15.470728843389438 2.75401908658199  15.907453632525419 2.9148629698457635  15.558074711549446 3.2366509998615736  Z " fill-rule="evenodd" />
    </mask>
  </defs>
  <g transform="matrix(1 0 0 1 -7 -11 )">
    <path d="M 15.558074711549446 3.2366509998615736  C 15.558074711549446 3.2366509998615736  7.435014374928602 10.563168687237447  7.435014374928602 10.563168687237447  C 7.435014374928602 10.563168687237447  14.480789002703629 15.783777528976895  14.480789002703629 15.783777528976895  C 15.281465683427896 16.22248823674687  15.863730228523286 16.00318296977882  16.067567876318495 15.038019436592712  C 16.067567876318495 15.038019436592712  18.93536994021553 1.467167966177106  18.93536994021553 1.467167966177106  C 19.226452486577056 0.2825988726498896  18.484073697688586 -0.2438543188549868  17.712545219146264 0.1071142413840342  C 17.712545219146264 0.1071142413840342  0.8841593165721031 6.629314497783624  0.8841593165721031 6.629314497783624  C -0.2658763827538936 7.097305999265073  -0.25132194604165875 7.740780660186209  0.6803618602680781 8.018547221204146  C 0.6803618602680781 8.018547221204146  5.003935969688893 9.3786004304845  5.003935969688893 9.3786004304845  C 5.003935969688893 9.3786004304845  15.004857012299608 3.046526322886326  15.004857012299608 3.046526322886326  C 15.470728843389438 2.75401908658199  15.907453632525419 2.9148629698457635  15.558074711549446 3.2366509998615736  Z " fill-rule="nonzero" fill="rgba(255, 255, 255, 1)" stroke="none" transform="matrix(1 0 0 1 7 11 )" class="fill" />
    <path d="M 15.558074711549446 3.2366509998615736  C 15.558074711549446 3.2366509998615736  7.435014374928602 10.563168687237447  7.435014374928602 10.563168687237447  C 7.435014374928602 10.563168687237447  14.480789002703629 15.783777528976895  14.480789002703629 15.783777528976895  C 15.281465683427896 16.22248823674687  15.863730228523286 16.00318296977882  16.067567876318495 15.038019436592712  C 16.067567876318495 15.038019436592712  18.93536994021553 1.467167966177106  18.93536994021553 1.467167966177106  C 19.226452486577056 0.2825988726498896  18.484073697688586 -0.2438543188549868  17.712545219146264 0.1071142413840342  C 17.712545219146264 0.1071142413840342  0.8841593165721031 6.629314497783624  0.8841593165721031 6.629314497783624  C -0.2658763827538936 7.097305999265073  -0.25132194604165875 7.740780660186209  0.6803618602680781 8.018547221204146  C 0.6803618602680781 8.018547221204146  5.003935969688893 9.3786004304845  5.003935969688893 9.3786004304845  C 5.003935969688893 9.3786004304845  15.004857012299608 3.046526322886326  15.004857012299608 3.046526322886326  C 15.470728843389438 2.75401908658199  15.907453632525419 2.9148629698457635  15.558074711549446 3.2366509998615736  Z " stroke-width="0" stroke-dasharray="0" stroke="rgba(121, 121, 121, 1)" fill="none" transform="matrix(1 0 0 1 7 11 )" class="stroke" mask="url(#Clip152)" />
  </g>
</svg>